<?xml version="1.0" encoding="utf-8"?>
<!-- Generator: Adobe Illustrator 18.0.0, SVG Export Plug-In . SVG Version: 6.00 Build 0)  -->
<!DOCTYPE svg PUBLIC "-//W3C//DTD SVG 1.1//EN" "http://www.w3.org/Graphics/SVG/1.1/DTD/svg11.dtd">
<svg version="1.1" id="Layer_1" xmlns="http://www.w3.org/2000/svg" xmlns:xlink="http://www.w3.org/1999/xlink" x="0px" y="0px"
	 width="111px" height="49.6px" viewBox="0 0 111 49.6" style="enable-background:new 0 0 111 49.6;" xml:space="preserve">
<g>
	<path class="hover" style="fill:#F4F4F4;" d="M27.6,48.7v-5.5c-2.4,3.6-6.9,6.4-12.1,6.4C6.3,49.6,0,42.6,0,31.4c0-11,6.3-18.3,15.5-18.3
		c5,0,9.4,2.5,12.1,6.5V0.7h3.8v48H27.6z M27.6,40V22.8c-2-3.4-6.6-6.3-11.4-6.3C8.4,16.5,4,23,4,31.4s4.5,14.8,12.2,14.8
		C21,46.2,25.6,43.3,27.6,40z"/>
	<path class="hover" style="fill:#F4F4F4;" d="M42.3,48.7V14h3.7v6c3-3.9,6.9-6.7,11.7-6.7v4.1c-0.6-0.1-1.2-0.1-1.9-0.1c-3.5,0-8.3,3.2-9.9,6.2
		v25.3H42.3z"/>
	<path class="hover" style="fill:#F4F4F4;" d="M63.4,5.6c0-1.6,1.4-2.8,2.9-2.8c1.6,0,2.9,1.2,2.9,2.8s-1.3,2.9-2.9,2.9
		C64.8,8.5,63.4,7.2,63.4,5.6z M64.4,48.7V14h3.7v34.8H64.4z"/>
	<path class="hover" style="fill:#F4F4F4;" d="M80.4,48.7V17.3h-5.8V14h5.8v-3.2C80.4,4,84,0,89.8,0c2.4,0,4.4,0.5,6.6,2.4l-1.8,2.7
		c-1.2-1.1-2.6-1.8-4.5-1.8c-4,0-6,2.7-6,7.4V14h7.1v3.3h-7.1v31.5H80.4z"/>
	<path class="hover" style="fill:#F4F4F4;" d="M98.2,42.1V17.3h-5.8V14h5.8V4.5h3.8V14h7.1v3.3H102v24.2c0,2.8,1.2,4.8,3.6,4.8
		c1.7,0,3.1-0.8,3.9-1.7l1.4,2.9c-1.4,1.3-3,2.2-5.9,2.2C100.4,49.6,98.2,46.8,98.2,42.1z"/>
</g>
</svg>
