<?xml version="1.0" encoding="utf-8"?>
<!-- Generator: Adobe Illustrator 18.0.0, SVG Export Plug-In . SVG Version: 6.00 Build 0)  -->
<!DOCTYPE svg PUBLIC "-//W3C//DTD SVG 1.1//EN" "http://www.w3.org/Graphics/SVG/1.1/DTD/svg11.dtd">
<svg version="1.1" id="Layer_1" xmlns="http://www.w3.org/2000/svg" xmlns:xlink="http://www.w3.org/1999/xlink" x="0px" y="0px"
	 width="1189.5px" height="359.2px" viewBox="0 0 1189.5 359.2" style="enable-background:new 0 0 1189.5 359.2;"
	 xml:space="preserve">
<style type="text/css">
	.st0{fill:#FFFFFF;}
</style>
<g>
	<g>
		<path class="st0 hover" d="M179.6,73.7c58.4,0,105.9,47.5,105.9,105.9S238,285.5,179.6,285.5S73.7,238,73.7,179.6
			C73.7,121.2,121.2,73.7,179.6,73.7 M179.6,25.4c-85.1,0-154.1,69-154.1,154.1s69,154.1,154.1,154.1s154.1-69,154.1-154.1
			S264.7,25.4,179.6,25.4L179.6,25.4z"/>
		<path class="st0 hover" d="M179.6,10C273,10,349,86.1,349,179.6s-76,169.5-169.5,169.5S10,273.1,10,179.6C10.1,86.1,86.1,10,179.6,10
			 M179.6,0C80.4,0,0,80.4,0,179.6s80.4,179.6,179.6,179.6s179.6-80.4,179.6-179.6S278.7,0,179.6,0L179.6,0z"/>
	</g>
</g>
<g>
	<g>
		<path class="st0 hover" d="M600.1,88.6c30.4,0,49.9,11.8,58.7,18.3c4,3,4.3,7,1.5,11.5l-3.3,5c-3,4.5-6.8,5-11.5,2
			c-7.5-5-23.1-14.1-44.4-14.1c-41.2,0-65.5,30.1-65.5,67.5c0,37.6,24.8,70,65.7,70c23.3,0,40.4-11.3,48.2-17.3
			c4.3-3.3,8.3-3.3,11.5,1l3.8,5c3,4,2.8,8-1.3,11.5c-9,7.5-30.6,22.6-63,22.6c-54.7,0-90.6-40.7-90.6-92.6
			C510,127.7,547.1,88.6,600.1,88.6z"/>
		<path class="st0 hover" d="M800.6,88.6c52.7,0,90.8,39.4,90.8,90.3c0,52.2-38.1,92.8-90.8,92.8c-52.7,0-91.1-40.7-91.1-92.8
			C709.5,128,747.9,88.6,800.6,88.6z M800.6,248.9c37.6,0,65.2-30.4,65.2-70c0-38.4-27.6-67.5-65.2-67.5s-65.5,29.1-65.5,67.5
			C735.1,218.6,762.9,248.9,800.6,248.9z"/>
		<path class="st0 hover" d="M947.6,99.9c0-5.5,2.8-8.3,8.3-8.3h8c5.5,0,8.3,2.8,8.3,8.3v160.6c0,5.5-2.8,8.3-8.3,8.3h-8
			c-5.5,0-8.3-2.8-8.3-8.3V99.9z"/>
		<path class="st0 hover" d="M1048,99.9c0-5.5,2.8-8.3,8.3-8.3h9.5c4.8,0,7.5,1.5,10,5.5l75.5,109.7c6.3,9.5,14.6,25.6,14.6,25.6h0.5
			c0,0-1.5-15.8-1.5-25.6V99.9c0-5.5,3-8.3,8.3-8.3h8c5.5,0,8.3,2.8,8.3,8.3v160.6c0,5.5-2.8,8.3-8.3,8.3h-9.5
			c-4.5,0-7.5-1.5-9.8-5.5l-75.8-109.4c-6.3-9.8-14.6-25.8-14.6-25.8h-0.5c0,0,1.5,15.8,1.5,25.8v106.6c0,5.5-2.8,8.3-8.3,8.3h-8
			c-5.5,0-8.3-2.8-8.3-8.3V99.9z"/>
	</g>
</g>
</svg>
