<?xml version="1.0" encoding="utf-8"?>
<!-- Generator: Adobe Illustrator 18.0.0, SVG Export Plug-In . SVG Version: 6.00 Build 0)  -->
<!DOCTYPE svg PUBLIC "-//W3C//DTD SVG 1.1//EN" "http://www.w3.org/Graphics/SVG/1.1/DTD/svg11.dtd">
<svg version="1.1" id="Layer_1" xmlns="http://www.w3.org/2000/svg" xmlns:xlink="http://www.w3.org/1999/xlink" x="0px" y="0px"
	 width="390.2px" height="108.1px" viewBox="0 0 390.2 108.1" style="enable-background:new 0 0 390.2 108.1;" xml:space="preserve"
	>
<style type="text/css">
	.st0{fill:#FFFFFF;}
</style>
<g>
	<g class="hover">
		<path class="st0" d="M103.6,52.8c0,0,14.4-4.9,22.2-18.9c0,0,14.5,3.1,35.2-19.5c0,0,36.4-21,74.5-9.8c0,0,32.6-6.7,56,14.2
			c0,0,1.4,10.5-32-4.7c0,0-17.3-2.2-17.9,11l44.4,12.4c0,0-11,4.1-43.6-7.1c0,0-37.2,9-48-11c0,0-17.9-4.7-25.6,10.8
			c0,0-28.1,18.1-41.5,9.6C127.4,39.8,118.4,54.4,103.6,52.8z"/>
		<path class="st0" d="M241.4,32.2c0,0,11,14.9,38.9,20.8c0,0-8.3,10-49.3-19.1L241.4,32.2z"/>
		<path class="st0" d="M173.6,26.5c0,0,5.3,20.6-32.8,23.8c0,0-10.4,6.5-24.8,7.7c0,0,16.1-4.7,21-12.6c0,0,11.2,0.4,16.5-6.1
			C153.6,39.2,169.7,35.3,173.6,26.5z"/>
		<path class="st0" d="M162.8,15c0,0-21-3.9-42.7,9.4c0,0,19.3-10,38.9-6.1L162.8,15z"/>
		<path class="st0" d="M255.8,4.6c0,0,8-7.6,17.7-3.3c0,0-7.6,1.7-5.5,6.8L255.8,4.6z"/>
	</g>
	<g >
		<path class="hover st0" d="M26.4,57C14.7,57.3,5.6,67.4,5.9,79.1C6.1,90.5,15,100,26.4,100.3c5.9,0.1,11.4-1.7,16-6.5v7.1
			c-5.1,3.7-9.8,5-15.7,5C12.3,106,0.1,93.7,0,79c0-14.7,11.6-26.9,26.2-27.2c6.7-0.2,11.1,1.1,16.4,4.9v7.3
			C38,58.9,33.3,56.9,26.4,57z"/>
		<path class="hover st0" d="M66.5,106.8c-9.6,0-17.4-7.8-17.4-17.4c0-9.7,8.3-17.8,17.7-17.7c9.5,0,17.2,8,17.2,17.5
			C83.9,98.8,77.2,106.8,66.5,106.8z M66.6,77c-6.9,0-11.8,5.8-11.8,12.4c0.1,6.6,5.3,12.3,11.9,12.2c6.4-0.1,11.3-5.6,11.4-11.9
			C78.3,83,73.7,77,66.6,77z"/>
		<path class="hover st0" d="M100.6,108.1L84.4,72.2h6.5l9.8,22.4l9.8-22.4h6.4L100.6,108.1z"/>
		<path class="hover st0" d="M124,89.9v1.3c0,5.6,5.3,10,10.4,10c3.9,0,6.7-1.3,8.9-4.6l1.5-2.3l4.7,2.8l-1.3,2.1
			c-3.2,5.3-9.8,7.4-13.9,7.3c-9.9-0.2-15.9-8.2-16-17.4c-0.1-9.3,5.7-18,16.1-17.8c8.2,0.1,15,6.3,15.4,14.5l0.2,4.1H124z
			 M134.5,76.7c-5.1-0.2-9.6,3.4-10.3,8.5h19.6C143.1,80.4,139.3,76.9,134.5,76.7z"/>
		<path class="hover st0" d="M172.3,78c-1.4-1.2-2.6-1.9-4.3-1.6c-3.9,0.7-5.4,5.5-5.4,9.8v19.2h-5.8V72.2h5.8v3.4
			c0.1-0.1,2.8-3.9,6.1-4.3c2.5-0.3,4.2,0.1,6.2,1.6L172.3,78z"/>
		<path class="hover st0" d="M211.8,105.5V83.1h-21.3v22.4h-11v-53h11v20.9h21.3V52.5h11v53H211.8z"/>
		<path class="hover st0" d="M248.5,107.1c-10.4,0-19.2-8.6-19.2-19c0.1-10.5,9.1-18.6,19.8-18.5c10.4,0,19,8.6,18.9,19
			C267.9,99.2,259.1,107.1,248.5,107.1z M248.4,79.3c-4.8,0.2-8.5,4.3-8.5,9.1c0.1,4.7,4,8.7,8.7,8.7c4.8,0.1,9.1-3.9,8.8-8.8
			C257.2,83.1,253.3,79.2,248.4,79.3z"/>
		<path class="hover st0" d="M291.3,106.7c-9.9-0.1-16.7-5.9-16.7-14.5V70.9h10.6v20.4c0,4.4,3,6,6.3,6c3.5-0.1,6.3-2.3,6.3-6.3V70.9H308
			v21.7C308,101.9,299.2,106.7,291.3,106.7z"/>
		<path class="hover st0" d="M337.2,105.5V84.4c0-3-1.8-5.3-5.5-5.4c-3.4-0.1-6.7,2.8-6.7,6.1v20.4h-10.5V70.9h10.4v3.8
			c2.9-3,6.1-4.9,10.6-4.9c7,0.1,12,5.5,12,12.1v23.6H337.2z"/>
		<path class="hover st0" d="M380.2,105.5v-4.9c-1.9,1.9-6.3,5-11.1,5.1c-9.1,0.4-16.5-7.8-16.7-17.4c-0.2-9.5,5.6-19.2,16.3-18.9
			c4.4,0.1,7.8,1.9,10.9,4.7V47.7h10.6v57.7H380.2z M371.6,78.8c-5.4-0.1-8.8,4.6-8.5,9c0.4,5,3.9,8.6,8.7,8.6
			c4.9,0,8.3-3.9,8.5-8.6C380.2,82.9,376.6,79,371.6,78.8z"/>
	</g>
</g>
</svg>
