<svg width="80" height="57" viewBox="0 0 80 57" fill="none" xmlns="http://www.w3.org/2000/svg">
<g class="hover" clip-path="url(#clip0)">
<path d="M40.5676 57H39.3567C39.0539 57 38.7512 56.698 38.7512 56.396V0.603974C38.7512 0.301987 39.0539 0 39.3567 0H40.5676C40.8704 0 41.1731 0.301987 41.1731 0.603974V56.396C41.1731 56.7735 40.8704 57 40.5676 57ZM2.42195 51.6397V6.19073C2.42195 6.03974 2.34626 5.81325 2.19489 5.73775L0.983917 4.83179C0.605487 4.5298 0 4.75629 0 5.28477V52.6212C0 53.1497 0.605487 53.3762 0.983917 53.0742L2.19489 52.1682C2.34626 52.0172 2.42195 51.8662 2.42195 51.6397ZM9.158 46.2795V11.4C9.158 11.249 9.08231 11.0225 8.93094 10.947L7.71996 10.0411C7.34153 9.73907 6.73605 10.0411 6.73605 10.494V47.2609C6.73605 47.7894 7.34153 48.0159 7.71996 47.7139L8.93094 46.8079C9.08231 46.657 9.158 46.506 9.158 46.2795ZM15.9697 40.9192V16.5338C15.9697 16.3828 15.894 16.1563 15.7427 16.0808L14.5317 15.1748C14.1533 14.8728 13.5478 15.1748 13.5478 15.6278V41.8252C13.5478 42.3536 14.1533 42.5801 14.5317 42.2781L15.7427 41.3722C15.894 41.2967 15.9697 41.0702 15.9697 40.9192ZM22.7058 35.5589V21.743C22.7058 21.5921 22.6301 21.3656 22.4787 21.2901L21.3434 20.3841C20.965 20.0821 20.3595 20.3841 20.3595 20.8371V36.4649C20.3595 36.9934 20.965 37.2199 21.3434 36.9179L22.5544 36.0119C22.6301 35.8609 22.7058 35.7099 22.7058 35.5589ZM29.5175 30.1232V26.8768C29.5175 26.7258 29.4418 26.4993 29.2904 26.4238L28.0795 25.5179C27.701 25.2159 27.0956 25.5179 27.0956 25.9709V31.0291C27.0956 31.5576 27.701 31.7841 28.0795 31.4821L29.2904 30.5762C29.4418 30.5007 29.5175 30.3497 29.5175 30.1232Z" fill="white"/>
<path d="M35.1938 25.1404L3.93556 0.150993C3.85987 0.0754967 3.7085 0 3.55713 0H1.66498C1.13518 0 0.908122 0.67947 1.28655 1.05695L34.437 27.5563C34.8154 27.8583 35.4209 27.5563 35.4209 27.1033V25.5934C35.4209 25.4424 35.3452 25.2159 35.1938 25.1404ZM35.1938 18.1947L12.6394 0.150993C12.4881 0.0754967 12.3367 0 12.261 0H10.3689C9.76337 0 9.53631 0.67947 9.99043 1.05695L34.437 20.6106C34.8154 20.9126 35.4209 20.6106 35.4209 20.1576V18.6477C35.4209 18.4212 35.3452 18.2702 35.1938 18.1947ZM35.1938 10.5695L22.1759 0.150993C22.0245 0.0754967 21.9488 0 21.7974 0H19.9053C19.2998 0 19.0727 0.67947 19.5268 1.05695L34.437 12.9854C34.8154 13.2874 35.4209 12.9854 35.4209 12.5324V11.0225C35.4209 10.796 35.3452 10.645 35.1938 10.5695ZM35.1938 3.24636L31.3338 0.150993C31.1825 0.0754967 31.1068 0 30.9554 0H29.0633C28.4578 0 28.2307 0.67947 28.6848 1.05695L34.437 5.66225C34.8154 5.96424 35.4209 5.66225 35.4209 5.20927V3.69934C35.4209 3.54834 35.3452 3.32185 35.1938 3.24636Z" fill="white"/>
<path d="M35.194 31.9349L3.93574 56.9243C3.86006 56.9998 3.70869 57.0753 3.55731 57.0753H1.66517C1.05968 57.0753 0.832622 56.3958 1.28674 56.0183L34.4372 29.519C34.8156 29.217 35.4211 29.519 35.4211 29.972V31.4819C35.4211 31.6329 35.3454 31.7839 35.194 31.9349ZM35.194 38.8806L12.6396 56.9243C12.5639 56.9998 12.4126 57.0753 12.2612 57.0753H10.369C9.76356 57.0753 9.5365 56.3958 9.99062 56.0183L34.4372 36.4647C34.8156 36.1627 35.4211 36.4647 35.4211 36.9177V38.4276C35.4211 38.5786 35.3454 38.8051 35.194 38.8806ZM35.194 46.5058L22.1761 56.9243C22.1004 56.9998 21.949 57.0753 21.7976 57.0753H19.9055C19.3 57.0753 19.0729 56.3958 19.527 56.0183L34.4372 44.0899C34.8156 43.7879 35.4211 44.0899 35.4211 44.5428V46.0528C35.4211 46.2038 35.3454 46.4303 35.194 46.5058ZM35.194 53.8289L31.334 56.9243C31.2584 56.9998 31.107 57.0753 30.9556 57.0753H29.0635C28.458 57.0753 28.2309 56.3958 28.685 56.0183L34.4372 51.413C34.8156 51.111 35.4211 51.413 35.4211 51.866V53.3759C35.4211 53.5269 35.3454 53.6779 35.194 53.8289Z" fill="white"/>
<path d="M77.5781 51.6397V6.1907C77.5781 6.03971 77.6538 5.81322 77.8052 5.73772L79.0162 4.83176C79.3946 4.52978 80.0001 4.83176 80.0001 5.28474V52.6212C80.0001 53.1496 79.3946 53.3761 79.0162 53.0741L77.8052 52.1682C77.6538 52.0172 77.5781 51.8662 77.5781 51.6397ZM70.7664 46.2794V11.4C70.7664 11.249 70.8421 11.0225 70.9934 10.947L72.2044 10.041C72.5828 9.73905 73.1883 10.041 73.1883 10.494V47.2609C73.1883 47.7894 72.5828 48.0159 72.2044 47.7139L70.9934 46.8079C70.8421 46.6569 70.7664 46.5059 70.7664 46.2794ZM64.0303 40.9192V16.5337C64.0303 16.3828 64.106 16.1563 64.2574 16.0808L65.4684 15.1748C65.8468 14.8728 66.4523 15.1748 66.4523 15.6278V41.8251C66.4523 42.3536 65.8468 42.5801 65.4684 42.2781L64.2574 41.3722C64.106 41.2967 64.0303 41.0702 64.0303 40.9192ZM57.2186 35.5589V21.743C57.2186 21.592 57.2943 21.3655 57.4457 21.29L58.6566 20.3841C59.0351 20.0821 59.6405 20.3841 59.6405 20.8371V36.4649C59.6405 36.9934 59.0351 37.2198 58.6566 36.9179L57.4457 36.0119C57.2943 35.8609 57.2186 35.7099 57.2186 35.5589ZM50.4069 30.1232V26.8768C50.4069 26.7258 50.4825 26.4993 50.6339 26.4238L51.8449 25.5179C52.2233 25.2159 52.8288 25.5179 52.8288 25.9708V31.0291C52.8288 31.5576 52.2233 31.7841 51.8449 31.4821L50.6339 30.5761C50.5582 30.5006 50.4069 30.3496 50.4069 30.1232Z" fill="white"/>
<path d="M44.7304 25.1404L75.9886 0.150993C76.0643 0.0754967 76.2157 0 76.367 0H78.2592C78.8647 0 79.0917 0.67947 78.6376 1.05695L45.4872 27.5563C45.1088 27.8583 44.5033 27.5563 44.5033 27.1033V25.5934C44.5033 25.4424 44.579 25.2159 44.7304 25.1404ZM44.7304 18.1947L67.3604 0.150993C67.4361 0.0754967 67.5875 0 67.7389 0H69.631C70.2365 0 70.4635 0.67947 70.0094 1.05695L45.4872 20.6106C45.1088 20.9126 44.5033 20.6106 44.5033 20.1576V18.6477C44.5033 18.4212 44.579 18.2702 44.7304 18.1947ZM44.7304 10.5695L57.7483 0.150993C57.8997 0.0754967 58.0511 0 58.1267 0H60.0189C60.6244 0 60.8514 0.67947 60.3973 1.05695L45.4872 12.9854C45.1088 13.2874 44.5033 12.9854 44.5033 12.5324V11.0225C44.5033 10.796 44.579 10.645 44.7304 10.5695ZM44.7304 3.24636L48.5903 0.150993C48.7417 0.0754967 48.8931 0 48.9688 0H50.8609C51.4664 0 51.6934 0.67947 51.2393 1.05695L45.4872 5.66225C45.1088 5.96424 44.5033 5.66225 44.5033 5.20927V3.69934C44.5033 3.54834 44.579 3.32185 44.7304 3.24636Z" fill="white"/>
<path d="M44.7304 31.9349L75.9886 56.9243C76.0643 56.9998 76.2157 57.0753 76.367 57.0753H78.2592C78.8647 57.0753 79.0917 56.3958 78.6376 56.0183L45.4872 29.519C45.1088 29.217 44.5033 29.519 44.5033 29.972V31.4819C44.5033 31.6329 44.579 31.7839 44.7304 31.9349ZM44.7304 38.8806L67.3604 56.9243C67.4361 56.9998 67.5875 57.0753 67.7389 57.0753H69.631C70.2365 57.0753 70.4635 56.3958 70.0094 56.0183L45.4872 36.4647C45.1088 36.1627 44.5033 36.4647 44.5033 36.9177V38.4276C44.5033 38.5786 44.579 38.8051 44.7304 38.8806ZM44.7304 46.5058L57.7483 56.9243C57.824 56.9998 57.9754 57.0753 58.1267 57.0753H60.0189C60.6244 57.0753 60.8514 56.3958 60.3973 56.0183L45.4872 44.0899C45.1088 43.7879 44.5033 44.0899 44.5033 44.5428V46.0528C44.5033 46.2038 44.579 46.4303 44.7304 46.5058ZM44.7304 53.8289L48.5903 56.9243C48.666 56.9998 48.8174 57.0753 48.9688 57.0753H50.8609C51.4664 57.0753 51.6934 56.3958 51.2393 56.0183L45.4872 51.413C45.1088 51.111 44.5033 51.413 44.5033 51.866V53.3759C44.5033 53.5269 44.579 53.6779 44.7304 53.8289Z" fill="white"/>
</g>
<defs>
<clipPath id="clip0">
<rect width="80" height="57" fill="white"/>
</clipPath>
</defs>
</svg>
