<svg xmlns="http://www.w3.org/2000/svg" width="391.6" height="75.6" viewBox="0 0 391.6 75.6"><style>.st0{fill:#fff;}</style><path class="st0" d="M53.6 75.5H52c-.4 0-.8-.4-.8-.8V.8c0-.4.4-.8.8-.8h1.6c.4 0 .8.4.8.8v73.9c0 .5-.4.8-.8.8zM3.1 68.4V8.2c0-.2-.1-.5-.3-.6L1.3 6.4C.8 6 0 6.3 0 7v62.7c0 .7.8 1 1.3.6l1.6-1.2c.1-.2.2-.4.2-.7zM12.1 61.3V15.1c0-.2-.1-.5-.3-.6l-1.6-1.2c-.5-.4-1.3 0-1.3.6v48.7c0 .7.8 1 1.3.6l1.6-1.2c.2-.2.3-.4.3-.7zM21.1 54.2V21.9c0-.2-.1-.5-.3-.6l-1.6-1.2c-.5-.4-1.3 0-1.3.6v34.7c0 .7.8 1 1.3.6l1.6-1.2c.1-.1.3-.4.3-.6zM30 47.1V28.8c0-.2-.1-.5-.3-.6L28.1 27c-.5-.4-1.3 0-1.3.6v20.7c0 .7.8 1 1.3.6l1.6-1.2c.2-.2.3-.4.3-.6zM39 39.9v-4.3c0-.2-.1-.5-.3-.6l-1.6-1.2c-.5-.4-1.3 0-1.3.6v6.7c0 .7.8 1 1.3.6l1.6-1.2c.2-.1.3-.3.3-.6z"/><g><path class="st0" d="M46.5 33.3L5.2.2C5.1.1 4.9 0 4.7 0H2.2c-.7 0-1.1.9-.5 1.4l43.8 35.1c.5.4 1.3 0 1.3-.6v-2c0-.2-.1-.5-.3-.6zM46.5 24.1L16.6.2c-.1-.1-.3-.2-.5-.2h-2.5c-.8 0-1.1.9-.5 1.4l32.3 25.9c.5.4 1.3 0 1.3-.6v-2c.1-.3 0-.5-.2-.6zM46.5 14L29.3.2c-.2-.1-.3-.2-.5-.2h-2.5c-.8 0-1.1.9-.5 1.4l19.7 15.8c.5.4 1.3 0 1.3-.6v-2c0-.3-.1-.5-.3-.6zM46.5 4.3L41.4.2c-.2-.1-.4-.2-.5-.2h-2.5c-.8 0-1.1.9-.5 1.4l7.6 6.1c.5.4 1.3 0 1.3-.6v-2c0-.2-.1-.5-.3-.6z"/></g><g><path class="st0" d="M46.5 42.3L5.2 75.4c-.1.1-.3.2-.5.2H2.2c-.8 0-1.1-.9-.5-1.4l43.8-35.1c.5-.4 1.3 0 1.3.6v2c0 .2-.1.4-.3.6zM46.5 51.5L16.6 75.4c-.1.1-.3.2-.5.2h-2.5c-.8 0-1.1-.9-.5-1.4l32.3-25.9c.5-.4 1.3 0 1.3.6v2c.1.2 0 .5-.2.6zM46.5 61.6L29.3 75.4c-.1.1-.3.2-.5.2h-2.5c-.8 0-1.1-.9-.5-1.4l19.7-15.8c.5-.4 1.3 0 1.3.6v2c0 .2-.1.5-.3.6zM46.5 71.3l-5.1 4.1c-.1.1-.3.2-.5.2h-2.5c-.8 0-1.1-.9-.5-1.4l7.6-6.1c.5-.4 1.3 0 1.3.6v2c0 .2-.1.4-.3.6z"/></g><g><path class="st0" d="M102.4 68.4V8.2c0-.2.1-.5.3-.6l1.6-1.2c.5-.4 1.3 0 1.3.6v62.7c0 .7-.8 1-1.3.6l-1.6-1.2c-.1-.2-.3-.4-.3-.7zM93.5 61.3V15.1c0-.2.1-.5.3-.6l1.6-1.2c.5-.4 1.3 0 1.3.6v48.7c0 .7-.8 1-1.3.6L93.8 62c-.2-.2-.3-.4-.3-.7zM84.5 54.2V21.9c0-.2.1-.5.3-.6l1.6-1.2c.5-.4 1.3 0 1.3.6v34.7c0 .7-.8 1-1.3.6l-1.6-1.2c-.2-.1-.3-.4-.3-.6zM75.6 47.1V28.8c0-.2.1-.5.3-.6l1.6-1.2c.5-.4 1.3 0 1.3.6v20.7c0 .7-.8 1-1.3.6l-1.6-1.2c-.2-.2-.3-.4-.3-.6zM66.6 39.9v-4.3c0-.2.1-.5.3-.6l1.6-1.2c.5-.4 1.3 0 1.3.6v6.7c0 .7-.8 1-1.3.6l-1.6-1.2c-.2-.1-.3-.3-.3-.6z"/><g><path class="st0" d="M59.1 33.3L100.4.2c.1-.1.3-.2.5-.2h2.5c.8 0 1.1.9.5 1.4L60.1 36.5c-.5.4-1.3 0-1.3-.6v-2c0-.2.1-.5.3-.6zM59.1 24.1L89 .2c.1-.1.3-.2.4-.2h2.5c.8 0 1.1.9.5 1.4L60.1 27.3c-.5.4-1.3 0-1.3-.6v-2c0-.3.1-.5.3-.6zM59.1 14L76.3.2c.2-.1.3-.2.5-.2h2.5c.8 0 1.1.9.5 1.4L60.1 17.2c-.5.4-1.3 0-1.3-.6v-2c0-.3.1-.5.3-.6zM59.1 4.3L64.2.2c.2-.1.3-.2.5-.2h2.5c.8 0 1.1.9.5 1.4l-7.6 6.1c-.5.4-1.3 0-1.3-.6v-2c0-.2.1-.5.3-.6z"/></g><g><path class="st0" d="M59.1 42.3l41.3 33.1c.1.1.3.2.5.2h2.5c.8 0 1.1-.9.5-1.4L60.1 39.1c-.5-.4-1.3 0-1.3.6v2c0 .2.1.4.3.6zM59.1 51.5L89 75.4c.1.1.3.2.5.2H92c.8 0 1.1-.9.5-1.4L60.1 48.3c-.5-.4-1.3 0-1.3.6v2c0 .2.1.5.3.6zM59.1 61.6l17.2 13.8c.1.1.3.2.5.2h2.5c.8 0 1.1-.9.5-1.4L60.1 58.4c-.5-.4-1.3 0-1.3.6v2c0 .2.1.5.3.6zM59.1 71.3l5.1 4.1c.1.1.3.2.5.2h2.5c.8 0 1.1-.9.5-1.4l-7.6-6.1c-.5-.4-1.3 0-1.3.6v2c0 .2.1.4.3.6z"/></g></g><g><path class="st0" d="M130.4 24.4c0-.3.3-.7.6-.7h8c6.7 0 12.2 5.5 12.2 12.2 0 6.8-5.5 12.2-12.2 12.2h-8c-.3 0-.6-.3-.6-.7v-23zm8.2 20.5c5.1 0 8.7-3.8 8.7-8.9 0-5.1-3.6-8.9-8.7-8.9h-4.7v17.8h4.7zM162.6 31.7c4.2 0 7.4 3.1 7.4 7.4 0 .3 0 .8-.1 1.1 0 .4-.4.7-.7.7H158c0 2.2 2 4.4 4.8 4.4 1.8 0 3-.7 3.9-1.4.3-.2.7-.3.9.1l.9 1.5c.3.3.4.7-.1 1.1-1.2 1-3.3 2-6 2-4.9 0-8.1-3.8-8.1-8.4.3-4.6 3.5-8.5 8.3-8.5zm3.9 6.6c-.1-2-1.6-3.7-4-3.7-2.5 0-4.1 1.6-4.3 3.7h8.3zM173.1 46.9c-.2-.2-.5-.5-.3-.8l.7-1.5c.2-.3.6-.5 1-.2.9.5 2.1 1.2 4 1.2 1.4 0 2.1-.7 2.1-1.6 0-1.1-1.2-1.8-3.5-2.8-2.5-1.1-4.4-2.4-4.4-5.1 0-2 1.4-4.4 5.3-4.4 2.2 0 3.9.7 4.7 1.2.4.3.6.8.3 1.2l-.6 1.1c-.2.5-.7.5-1 .3-1.1-.5-2.2-.8-3.5-.8-1.4 0-2.1.7-2.1 1.4 0 1 1.2 1.7 2.8 2.4 3 1.3 5.2 2.3 5.2 5.3 0 2.5-2.2 4.7-5.7 4.7-2.2.1-4.1-1-5-1.6zM187.5 26.3c0-1.3 1-2.4 2.3-2.4 1.3 0 2.4 1 2.4 2.4 0 1.3-1 2.3-2.4 2.3-1.3 0-2.3-1-2.3-2.3zm.5 6.5c0-.4.3-.8.8-.8h2c.4 0 .8.4.8.8v14.6c0 .4-.4.8-.8.8h-2c-.4 0-.8-.3-.8-.8V32.8zM211 48.3c0 5-3.2 7.5-7.5 7.5-2.7 0-4.9-1.3-5.6-2-.3-.2-.3-.7-.2-.9l.8-1.5c.2-.4.7-.6 1.1-.2.6.5 1.9 1.5 3.8 1.5 2.1 0 4-1 4-4.3v-.9c-.3.2-2 1.1-4.1 1.1-4.4 0-7.8-3.7-7.8-8.4 0-4.6 3.2-8.4 7.6-8.4 3 0 4.8 1.6 5.1 1.9l.4-1c.1-.3.2-.6.6-.6h.9c.4 0 .8.4.8.8v15.4zm-7.2-3.1c2.1 0 3.7-1.3 3.7-1.3v-6.7c-.3-.6-1.7-2.3-3.9-2.3-2.8 0-4.6 2.4-4.6 5.1.1 2.9 2.2 5.2 4.8 5.2zM216.1 32.8c0-.4.3-.8.8-.8h.8c.3 0 .6.2.7.5l.5 1.4c.3-.4 2.2-2.2 5.4-2.2 4.9 0 6.2 3.4 6.2 7.6v8.1c0 .4-.4.8-.8.8h-2c-.4 0-.8-.3-.8-.8v-8.2c0-2.6-1.1-4.1-3.2-4.1-2.5 0-4 1.8-4.3 2.3v10c0 .5-.3.8-.9.8h-1.8c-.4 0-.8-.3-.8-.8V32.8zM244.6 24.6c0-.5.3-.8.8-.8h2c.5 0 .8.4.8.8v9.7l9.8-10.1c.1-.2.4-.3.7-.3h2.6c.6 0 1 .7.5 1.3l-10.1 10.2L262.5 47c.3.3.1 1.2-.6 1.2h-2.8c-.3 0-.6-.1-.6-.2l-10.1-11.4v10.8c0 .5-.4.8-.8.8h-2c-.5 0-.8-.4-.8-.8V24.6zM272.9 31.7c4.5 0 8.2 3.8 8.2 8.4 0 4.6-3.7 8.5-8.2 8.5-4.5 0-8.2-3.9-8.2-8.5 0-4.5 3.7-8.4 8.2-8.4zm0 13.5c2.7 0 4.8-2.2 4.8-5.2 0-2.9-2.1-5.1-4.8-5.1-2.7 0-4.8 2.2-4.8 5.1 0 3 2.1 5.2 4.8 5.2zM285.2 24.5c0-.4.3-.8.8-.8h2c.4 0 .8.4.8.8v22.9c0 .4-.4.8-.8.8h-2c-.4 0-.8-.3-.8-.8V24.5zM294 24.5c0-.4.3-.8.8-.8h2c.4 0 .8.4.8.8v22.9c0 .4-.4.8-.8.8h-2c-.4 0-.8-.3-.8-.8V24.5zM309.7 31.7c4.2 0 7.4 3.1 7.4 7.4 0 .3 0 .8-.1 1.1 0 .4-.4.7-.7.7h-11.1c0 2.2 2 4.4 4.8 4.4 1.8 0 3-.7 3.9-1.4.3-.2.7-.3.9.1l.9 1.5c.3.3.4.7-.1 1.1-1.2 1-3.3 2-6 2-4.9 0-8.1-3.8-8.1-8.4.2-4.6 3.3-8.5 8.2-8.5zm3.9 6.6c-.1-2-1.6-3.7-4-3.7-2.5 0-4.1 1.6-4.3 3.7h8.3zM328.1 31.7c2.5 0 4.4.9 5.9 2.8.3.4.2.8-.1 1.1l-1.3 1.2c-.5.4-.8.1-1-.2-.7-.8-2-1.6-3.3-1.6-2.8 0-4.9 2.2-4.9 5.1 0 2.9 2.1 5.1 4.8 5.1 2.1 0 2.9-1.2 3.8-2 .3-.3.7-.3 1.1-.1l1.1.9c.4.3.6.7.3 1.1-1.3 2-3.5 3.3-6.3 3.3-4.5 0-8.2-3.6-8.2-8.4-.1-4.6 3.6-8.3 8.1-8.3zM339.3 35h-1.8c-.5 0-.8-.4-.8-.8v-1.4c0-.5.3-.8.8-.8h1.8v-4.5c0-.4.3-.8.8-.8h2c.4 0 .7.3.7.8V32h4.3c.4 0 .8.3.8.8v1.4c0 .4-.3.8-.8.8h-4.3v8.6c0 1.4.5 1.6 1.3 1.6 1 0 2-.4 2.6-.8.5-.3.8 0 .9.3l.6 1.6c.2.4 0 .7-.4.9-.7.4-2.5 1.1-4.5 1.1-3.2 0-4.1-2-4.1-4.8V35zM351 26.3c0-1.3 1-2.4 2.3-2.4 1.3 0 2.4 1 2.4 2.4 0 1.3-1 2.3-2.4 2.3-1.2 0-2.3-1-2.3-2.3zm.6 6.5c0-.4.3-.8.8-.8h2c.4 0 .8.4.8.8v14.6c0 .4-.4.8-.8.8h-2c-.4 0-.8-.3-.8-.8V32.8zM358.4 33c-.3-.5 0-.9.6-.9h2.1c.4 0 .6.2.7.5l4.3 9.9h.1l4.5-9.9c.2-.5.6-.5 1.1-.5h1.6c.6 0 .9.4.6.9l-7 15.2c-.1.2-.3.4-.7.4h-.2c-.3 0-.6-.2-.7-.4l-7-15.2zM384.3 31.7c4.2 0 7.4 3.1 7.4 7.4 0 .3 0 .8-.1 1.1 0 .4-.4.7-.7.7h-11.1c0 2.2 2 4.4 4.8 4.4 1.8 0 3-.7 3.9-1.4.3-.2.7-.3.9.1l.9 1.5c.3.3.4.7-.1 1.1-1.2 1-3.3 2-6 2-4.9 0-8.1-3.8-8.1-8.4.1-4.6 3.3-8.5 8.2-8.5zm3.9 6.6c-.1-2-1.6-3.7-4-3.7-2.5 0-4.1 1.6-4.3 3.7h8.3z"/></g></svg>
