<?xml version="1.0" encoding="UTF-8"?>
<svg width="255px" height="93px" viewBox="0 0 255 93" version="1.1" xmlns="http://www.w3.org/2000/svg" xmlns:xlink="http://www.w3.org/1999/xlink">
  <path class="hover" style="fill: #222;" d="M0.46875,35 L0.46875,0.875 L10.546875,0.875 C13.5625151,0.875 16.2382696,1.54686828 18.5742188,2.890625 C20.9101679,4.23438172 22.7187436,6.14061266 24,8.609375 C25.2812564,11.0781373 25.921875,13.9062341 25.921875,17.09375 L25.921875,18.8046875 C25.921875,22.0390787 25.2773502,24.8828002 23.9882812,27.3359375 C22.6992123,29.7890748 20.8632932,31.6796809 18.4804688,33.0078125 C16.0976443,34.3359441 13.3672029,35 10.2890625,35 L0.46875,35 Z M6.3984375,5.65625 L6.3984375,30.265625 L10.265625,30.265625 C13.3750155,30.265625 15.7617104,29.2929785 17.4257812,27.3476562 C19.0898521,25.402334 19.9374998,22.6093932 19.96875,18.96875 L19.96875,17.0703125 C19.96875,13.367169 19.1640705,10.5390723 17.5546875,8.5859375 C15.9453045,6.63280273 13.6093903,5.65625 10.546875,5.65625 L6.3984375,5.65625 Z"></path>
  <path class="hover" style="fill: #222;" d="M58.139423,18.828125 C58.139423,22.1718917 57.5613037,25.1054561 56.405048,27.6289062 C55.2487922,30.1523564 53.5964649,32.089837 51.4480167,33.4414062 C49.2995685,34.7929755 46.8269369,35.46875 44.030048,35.46875 C41.2644091,35.46875 38.79959,34.7929755 36.6355167,33.4414062 C34.4714434,32.089837 32.7995851,30.164075 31.6198917,27.6640625 C30.4401983,25.16405 29.842548,22.2812663 29.826923,19.015625 L29.826923,17.09375 C29.826923,13.7656084 30.4167608,10.8281377 31.5964542,8.28125 C32.7761476,5.73436227 34.4401935,3.78516301 36.5886417,2.43359375 C38.7370899,1.08202449 41.201909,0.40625 43.983173,0.40625 C46.7644369,0.40625 49.229256,1.07421207 51.3777042,2.41015625 C53.5261524,3.74610043 55.1862921,5.66795621 56.358173,8.17578125 C57.5300538,10.6836063 58.1237979,13.6015459 58.139423,16.9296875 L58.139423,18.828125 Z M52.2097355,17.046875 C52.2097355,13.2656061 51.4948989,10.3671976 50.0652042,8.3515625 C48.6355096,6.33592742 46.6081861,5.328125 43.983173,5.328125 C41.4206601,5.328125 39.4167739,6.33202121 37.9714542,8.33984375 C36.5261345,10.3476663 35.7878606,13.1874816 35.7566105,16.859375 L35.7566105,18.828125 C35.7566105,22.5781437 36.4870719,25.4765523 37.9480167,27.5234375 C39.4089615,29.5703227 41.436285,30.59375 44.030048,30.59375 C46.6550611,30.59375 48.6745721,29.59376 50.0886417,27.59375 C51.5027113,25.59374 52.2097355,22.6718942 52.2097355,18.828125 L52.2097355,17.046875 Z"></path>
  <polygon class="hover" style="fill: #222;" points="83.0679084 19.765625 69.0522834 19.765625 69.0522834 30.265625 85.4350959 30.265625 85.4350959 35 63.1225959 35 63.1225959 0.875 85.2710334 0.875 85.2710334 5.65625 69.0522834 5.65625 69.0522834 15.078125 83.0679084 15.078125"></polygon>
  <path class="hover" style="fill: #222;" d="M107.176081,26.2109375 C107.176081,24.71093 106.648743,23.5546916 105.59405,22.7421875 C104.539357,21.9296834 102.637033,21.1093791 99.8870189,20.28125 C97.1370051,19.4531209 94.949527,18.5312551 93.3245189,17.515625 C90.2151283,15.5624902 88.6604564,13.0156407 88.6604564,9.875 C88.6604564,7.12498625 89.7815389,4.85938391 92.0237376,3.078125 C94.2659363,1.29686609 97.1760635,0.40625 100.754206,0.40625 C103.129218,0.40625 105.246385,0.843745625 107.105769,1.71875 C108.965153,2.59375438 110.426076,3.83983566 111.488581,5.45703125 C112.551087,7.07422684 113.082331,8.86717766 113.082331,10.8359375 L107.176081,10.8359375 C107.176081,9.05467859 106.617493,7.66016129 105.5003,6.65234375 C104.383107,5.64452621 102.785467,5.140625 100.707331,5.140625 C98.7698217,5.140625 97.2659305,5.55468336 96.1956126,6.3828125 C95.1252948,7.21094164 94.5901439,8.36718008 94.5901439,9.8515625 C94.5901439,11.1015688 95.1682631,12.1445271 96.3245189,12.9804688 C97.4807746,13.8164104 99.3870056,14.6289023 102.043269,15.4179688 C104.699532,16.2070352 106.832323,17.1054637 108.441706,18.1132812 C110.051089,19.1210988 111.230765,20.2773372 111.980769,21.5820313 C112.730773,22.8867253 113.105769,24.4140537 113.105769,26.1640625 C113.105769,29.0078267 112.015936,31.2695229 109.836238,32.9492188 C107.656539,34.6289146 104.699538,35.46875 100.965144,35.46875 C98.4963815,35.46875 96.226873,35.0117233 94.1565501,34.0976562 C92.0862273,33.1835892 90.4768684,31.921883 89.3284251,30.3125 C88.1799819,28.703117 87.6057689,26.8281357 87.6057689,24.6875 L93.5354564,24.6875 C93.5354564,26.6250097 94.176075,28.1249947 95.4573314,29.1875 C96.7385878,30.2500053 98.5745069,30.78125 100.965144,30.78125 C103.027654,30.78125 104.57842,30.3632854 105.617488,29.5273438 C106.656555,28.6914021 107.176081,27.5859444 107.176081,26.2109375 L107.176081,26.2109375 Z"></path>
  <polygon class="hover" style="fill: #222;" points="155.486177 35 149.55649 35 134.345552 10.7890625 134.345552 35 128.415865 35 128.415865 0.875 134.345552 0.875 149.603365 25.1796875 149.603365 0.875 155.486177 0.875"></polygon>
  <path class="hover" style="fill: #222;" d="M188.805288,18.828125 C188.805288,22.1718917 188.227169,25.1054561 187.070913,27.6289062 C185.914657,30.1523564 184.26233,32.089837 182.113881,33.4414062 C179.965433,34.7929755 177.492802,35.46875 174.695913,35.46875 C171.930274,35.46875 169.465455,34.7929755 167.301381,33.4414062 C165.137308,32.089837 163.46545,30.164075 162.285756,27.6640625 C161.106063,25.16405 160.508413,22.2812663 160.492788,19.015625 L160.492788,17.09375 C160.492788,13.7656084 161.082626,10.8281377 162.262319,8.28125 C163.442012,5.73436227 165.106058,3.78516301 167.254506,2.43359375 C169.402955,1.08202449 171.867774,0.40625 174.649038,0.40625 C177.430302,0.40625 179.895121,1.07421207 182.043569,2.41015625 C184.192017,3.74610043 185.852157,5.66795621 187.024038,8.17578125 C188.195919,10.6836063 188.789663,13.6015459 188.805288,16.9296875 L188.805288,18.828125 Z M182.8756,17.046875 C182.8756,13.2656061 182.160764,10.3671976 180.731069,8.3515625 C179.301374,6.33592742 177.274051,5.328125 174.649038,5.328125 C172.086525,5.328125 170.082639,6.33202121 168.637319,8.33984375 C167.191999,10.3476663 166.453725,13.1874816 166.422475,16.859375 L166.422475,18.828125 C166.422475,22.5781437 167.152937,25.4765523 168.613881,27.5234375 C170.074826,29.5703227 172.10215,30.59375 174.695913,30.59375 C177.320926,30.59375 179.340437,29.59376 180.754506,27.59375 C182.168576,25.59374 182.8756,22.6718942 182.8756,18.828125 L182.8756,17.046875 Z"></path>
  <polygon class="hover" style="fill: #222;" points="216.452523 5.65625 205.811898 5.65625 205.811898 35 199.929086 35 199.929086 5.65625 189.382211 5.65625 189.382211 0.875 216.452523 0.875"></polygon>
  <path class="hover" style="fill: #222;" d="M27.5078125,80.890625 C27.1640608,84.5312682 25.8203242,87.3710836 23.4765625,89.4101562 C21.1328008,91.4492289 18.0156445,92.46875 14.125,92.46875 C11.4062364,92.46875 9.0117291,91.8242252 6.94140625,90.5351562 C4.8710834,89.2460873 3.27344313,87.4140744 2.1484375,85.0390625 C1.02343187,82.6640506 0.437500234,79.9062657 0.390625,76.765625 L0.390625,73.578125 C0.390625,70.3593589 0.960931797,67.5234498 2.1015625,65.0703125 C3.2421932,62.6171752 4.87889559,60.7265691 7.01171875,59.3984375 C9.14454191,58.0703059 11.609361,57.40625 14.40625,57.40625 C18.1718938,57.40625 21.2031135,58.4296773 23.5,60.4765625 C25.7968865,62.5234477 27.1328106,65.4140438 27.5078125,69.1484375 L21.6015625,69.1484375 C21.3203111,66.6953002 20.6054745,64.9257867 19.4570312,63.8398438 C18.308588,62.7539008 16.6250111,62.2109375 14.40625,62.2109375 C11.8281121,62.2109375 9.84766316,63.1523343 8.46484375,65.0351562 C7.08202434,66.9179782 6.37500016,69.6796693 6.34375,73.3203125 L6.34375,76.34375 C6.34375,80.0312684 7.00389965,82.8437403 8.32421875,84.78125 C9.64453785,86.7187597 11.5781123,87.6875 14.125,87.6875 C16.4531366,87.6875 18.2031191,87.1640677 19.375,86.1171875 C20.5468809,85.0703073 21.2890609,83.3281372 21.6015625,80.890625 L27.5078125,80.890625 Z"></path>
  <path class="hover" style="fill: #222;" d="M59.1159855,75.828125 C59.1159855,79.1718917 58.5378662,82.1054561 57.3816105,84.6289062 C56.2253547,87.1523564 54.5730274,89.089837 52.4245792,90.4414062 C50.276131,91.7929755 47.8034994,92.46875 45.0066105,92.46875 C42.2409716,92.46875 39.7761525,91.7929755 37.6120792,90.4414062 C35.4480059,89.089837 33.7761476,87.164075 32.5964542,84.6640625 C31.4167608,82.16405 30.8191105,79.2812663 30.8034855,76.015625 L30.8034855,74.09375 C30.8034855,70.7656084 31.3933233,67.8281377 32.5730167,65.28125 C33.7527101,62.7343623 35.416756,60.785163 37.5652042,59.4335938 C39.7136524,58.0820245 42.1784715,57.40625 44.9597355,57.40625 C47.7409994,57.40625 50.2058185,58.0742121 52.3542667,59.4101562 C54.5027149,60.7461004 56.1628546,62.6679562 57.3347355,65.1757812 C58.5066163,67.6836063 59.1003604,70.6015459 59.1159855,73.9296875 L59.1159855,75.828125 Z M53.186298,74.046875 C53.186298,70.2656061 52.4714614,67.3671976 51.0417667,65.3515625 C49.6120721,63.3359274 47.5847486,62.328125 44.9597355,62.328125 C42.3972226,62.328125 40.3933364,63.3320212 38.9480167,65.3398438 C37.502697,67.3476663 36.7644231,70.1874816 36.733173,73.859375 L36.733173,75.828125 C36.733173,79.5781437 37.4636344,82.4765523 38.9245792,84.5234375 C40.385524,86.5703227 42.4128475,87.59375 45.0066105,87.59375 C47.6316236,87.59375 49.6511346,86.59376 51.0652042,84.59375 C52.4792738,82.59374 53.186298,79.6718942 53.186298,75.828125 L53.186298,74.046875 Z"></path>
  <polygon class="hover" style="fill: #222;" points="71.7866584 57.875 81.6304084 84.03125 91.4507209 57.875 99.1147834 57.875 99.1147834 92 93.2085334 92 93.2085334 80.75 93.7944709 65.703125 83.7163459 92 79.4741584 92 69.4194709 65.7265625 70.0054084 80.75 70.0054084 92 64.0991584 92 64.0991584 57.875"></polygon>
  <path class="hover" style="fill: #222;" d="M111.129206,79.3203125 L111.129206,92 L105.199519,92 L105.199519,57.875 L118.254206,57.875 C122.066725,57.875 125.094039,58.8671776 127.336238,60.8515625 C129.578436,62.8359474 130.699519,65.4609212 130.699519,68.7265625 C130.699519,72.0703292 129.601874,74.6718657 127.40655,76.53125 C125.211227,78.3906343 122.137039,79.3203125 118.183894,79.3203125 L111.129206,79.3203125 Z M111.129206,74.5625 L118.254206,74.5625 C120.363592,74.5625 121.972951,74.0664112 123.082331,73.0742188 C124.191712,72.0820263 124.746394,70.6484469 124.746394,68.7734375 C124.746394,66.9296783 124.183899,65.4570368 123.058894,64.3554688 C121.933888,63.2539007 120.387029,62.6875002 118.418269,62.65625 L111.129206,62.65625 L111.129206,74.5625 Z"></path>
  <path class="hover" style="fill: #222;" d="M159.917067,57.875 L159.917067,80.6796875 C159.917067,84.3047056 158.756922,87.1757707 156.436598,89.2929688 C154.116274,91.4101668 151.026461,92.46875 147.167067,92.46875 C143.260797,92.46875 140.159266,91.4257917 137.862379,89.3398438 C135.565493,87.2538958 134.417067,84.3593935 134.417067,80.65625 L134.417067,57.875 L140.323317,57.875 L140.323317,80.703125 C140.323317,82.9843864 140.901436,84.7265565 142.057692,85.9296875 C143.213948,87.1328185 144.917056,87.734375 147.167067,87.734375 C151.72959,87.734375 154.010817,85.3281491 154.010817,80.515625 L154.010817,57.875 L159.917067,57.875 Z"></path>
  <polygon class="hover" style="fill: #222;" points="228.978365 62.65625 218.33774 62.65625 218.33774 92 212.454927 92 212.454927 62.65625 201.908052 62.65625 201.908052 57.875 228.978365 57.875"></polygon>
  <polygon class="hover" style="fill: #222;" points="252.477163 76.765625 238.461538 76.765625 238.461538 87.265625 254.84435 87.265625 254.84435 92 232.53185 92 232.53185 57.875 254.680288 57.875 254.680288 62.65625 238.461538 62.65625 238.461538 72.078125 252.477163 72.078125"></polygon>
</svg>
