<?xml version="1.0" encoding="utf-8"?>
<!-- Generator: Adobe Illustrator 18.0.0, SVG Export Plug-In . SVG Version: 6.00 Build 0)  -->
<!DOCTYPE svg PUBLIC "-//W3C//DTD SVG 1.1//EN" "http://www.w3.org/Graphics/SVG/1.1/DTD/svg11.dtd">
<svg version="1.1" id="Layer_1" xmlns="http://www.w3.org/2000/svg" xmlns:xlink="http://www.w3.org/1999/xlink" x="0px" y="0px"
	 width="932px" height="182.7px" viewBox="0 0 932 182.7" style="enable-background:new 0 0 932 182.7;" xml:space="preserve">
<style type="text/css">
	.st0{fill:#FFFFFF;}
</style>
	<g>
		<g class="hover" id="logo">
			<path class="st0" d="M276.2,182.2c-11.2,0-91.5,0-120.6,0l4.5-12.4c52-3.2,74.9-46.5,74.9-80c0-35.5-28.4-76.3-80-77.3L159.3,0
				c28.6,0,110.2,0,119.3,0c9.5,0,18.3,8.9,18.3,17.1c0,12,0,117.9,0,139.8C296.9,173.3,290.4,182.2,276.2,182.2z"/>
			<path class="st0" d="M115.1,182.2c-29,0-83.2,0-94.4,0C6.5,182.2,0,173.3,0,156.9C0,135,0,29.2,0,17.1C0,8.9,8.9,0,18.3,0
				c9.5,0,71.6,0,100.1,0l-4.1,12.2c-30,11.8-53,42-53,77.5c0,33.5,19.7,66,58.6,78.9L115.1,182.2z"/>
		</g>
		<path id="H" class="hover st0" d="M150.8,75.7c-1.2,3.5-17.7,50.1-17.7,50.1h-19.3L135,65.8h-10.6l-21.3,59.9H84.4L129.1,0h18.7
			l-19.7,55.4c0,0,8.7,0,14,0c6.7,0,11.4,4.9,11.4,10.6C153.6,68.8,151.6,73.5,150.8,75.7z"/>
		<path id="P" class="hover st0" d="M213.3,75.5c-1.2,3.5-12.2,34.7-14.2,40c-2,5.3-4.7,13-13.8,13h-21.1l-19.3,53.6h-19.3l45.1-126.8h33.9
			c6.5,0,11.4,4.9,11.4,10.6C216.1,68.4,214.7,71.8,213.3,75.5z M186.5,65.8L168,118.1h10.6l18.5-52.2H186.5z"/>
	</g>

	<polygon class="hover st0" points="408.8,71.4 408.8,41.4 365.6,41.4 365.6,71.4 350,71.4 350,0 365.6,0 365.6,27.8 408.8,27.8 408.8,0
	424.4,0 424.4,71.4 "/>
	<path class="hover st0" d="M455.1,71.4c-6.7,0-12.6-3.7-12.6-10.6c0-27.8,0-38.6,0-50.1c0-6.1,4.9-10.6,12.6-10.6c4.3,0,53.4,0,53.4,0
		v15.2h-50.5v12.6h44.2v13.6h-44.2v14.8h52.4v15.2C510.5,71.4,468.9,71.4,455.1,71.4z"/>
	<path class="hover st0" d="M607.9,71.4c0,0-9.1,0-12.4,0c-3.2,0-7.7-3-9.3-8.3c-1.4-5.5-10.8-42.2-10.8-42.2l-13.8,50.5
		c-4.3,0-8.3,0-11.8,0c-3.5,0-7.7-2.4-10.3-10.1C537.1,53.8,520.4,0,520.4,0h16.2l15,49.3L566.9,0h17.3l15.2,49.3L615.2,0h16.6
		L607.9,71.4z"/>
	<path class="hover st0" d="M656,71.4c-6.5,0-12.6-3.7-12.6-10.6c0-27.8,0-60.7,0-60.7h15.6v56.2h44.9v15.2C703.9,71.4,669.8,71.4,656,71.4
	z"/>
	<path class="hover st0" d="M724.6,71.4c-6.5,0-12.6-3.7-12.6-10.6c0-27.8,0-38.6,0-50.1C712,4.5,717.1,0,724.6,0c4.3,0,53.4,0,53.4,0v15.2
		h-50.5v12.6h44.2v13.6h-44.2v14.8H780v15.2C780,71.4,738.4,71.4,724.6,71.4z"/>
	<polygon class="hover st0" points="831.6,15.2 831.6,71.4 816.1,71.4 816.1,15.2 792.4,15.2 792.4,0 855.5,0 855.5,15.2 "/>
	<polygon class="hover st0" points="907.1,15.2 907.1,71.4 891.6,71.4 891.6,15.2 867.9,15.2 867.9,0 931,0 931,15.2 "/>
	<path class="hover st0" d="M401.7,110.8H350v71.4h15.6v-20.3h37.9c10.6,0,17.7-10.8,17.7-25.2C421.2,120.8,414.1,110.8,401.7,110.8z
		 M397.9,147.3h-32.3v-22.1h32.3c4.5,0,7.5,5.5,7.5,11C405.4,141.9,402.5,147.3,397.9,147.3z"/>
	<path class="hover st0" d="M478.6,118.3c-2.4-4.9-5.5-7.5-12.4-7.5h-14.8l-31.1,71.4h16.4l6.1-13.6h41.4l5.9,13.6h16.8
		C506.8,182.2,480.1,121.6,478.6,118.3z M448.8,154.6l14.6-33.7l14.6,33.7H448.8z"/>
	<path class="hover st0" d="M583.6,176.4c-5.3,5.3-8.9,6.3-31.7,6.3c-22.1,0-26-0.4-31.5-6.3c-5.1-5.3-6.1-14-6.1-30.2
		c0-15.6,1-24.2,6.1-29.6c5.5-5.9,9.5-6.3,31.5-6.3c22.9,0,26.4,1,31.7,6.3c2.4,2.4,3.7,6.5,3.7,11v4.5h-15c0,0-0.2-4.3-1.4-5.9
		c-1.4-1.8-4.5-2.6-19.3-2.6c-15.6,0-17.9,0.2-19.5,2.2c-1.6,1.8-2.2,5.7-2.2,20.3c0,14.8,0.6,18.7,2.2,20.5c1.6,2,3.9,2.2,19.5,2.2
		c14.8,0,17.9-0.8,19.3-2.6c1.2-1.6,1-3.7,1-5.9h15.4v4.9C587.4,169.9,586,174.1,583.6,176.4z"/>
	<polygon class="hover st0" points="641.6,144.3 669.4,172.5 669.4,182.2 657.8,182.2 627.8,152 617.7,152 617.7,182.2 602.2,182.2
		602.2,110.8 617.7,110.8 617.7,136.8 627.8,136.8 654.2,110.8 675.3,110.8 "/>
	<path class="hover st0" d="M732.7,118.3c-2.2-4.9-5.3-7.5-12.4-7.5h-14.4l-27.4,61.7v9.7h12.4l6.1-13.6h41l6.3,13.6h16.6
		C760.9,182.2,734.3,121.6,732.7,118.3z M703.1,154.6l14.6-32.9l14.2,32.9H703.1z"/>
	<path class="hover st0" d="M835.6,159.7c5.5-3.7,8.5-11.6,8.5-21.7c0-15.6-8.9-27.2-21.3-27.2h-50.3v71.4h15.6v-19.9h26.2
	c8.1,0,11.4,5.1,11.4,9.1v10.8h15.4v-12.6C841.1,165.8,838.9,162,835.6,159.7z M819,148.1h-31v-22.7h31.5c4.5,0,8.3,5.7,8.3,11.4
	C827.9,142.3,824.7,148.1,819,148.1z"/>
	<path class="hover st0" d="M923.9,114.5c-3.5-3.2-9.5-3.7-13.6-3.7h-50.5v71.4h50.5c3.7,0,8.9,0,13.6-3.7c5.3-3.9,8.1-9.9,8.1-33.5
		S927.4,117.7,923.9,114.5z M913.1,165.8c-1.8,1.6-4.5,2-7.3,2h-30.4v-43.6h30.4c3,0,5.5,0.6,7.5,2.4c3,2.2,3.4,6.9,3.4,18.7
		C916.6,157.3,915.4,163.4,913.1,165.8z"/>
</svg>
