<svg width="110" height="35" viewBox="0 0 110 35" fill="none" xmlns="http://www.w3.org/2000/svg">
<path class="hover" d="M2.87582 23.1L2.87582 11.9L5.82552e-08 11.9L4.11213e-08 8.4L6.47059 8.4L6.47059 23.1L9.34641 23.1L9.34641 26.6L1.30217e-07 26.6L1.13084e-07 23.1L2.87582 23.1ZM6.47059 2.1C6.47059 3.255 5.5 4.2 4.31373 4.2C3.12745 4.2 2.15686 3.255 2.15686 2.1C2.15686 0.945 3.12745 -1.53101e-08 4.31373 -2.11174e-08C5.5 -2.69247e-08 6.47059 0.945 6.47059 2.1Z" fill="white"/>
<path class="hover" d="M14.379 23.1001L14.379 11.9001L11.5032 11.9001L11.5032 8.40014L18.2613 8.40014L18.2613 10.5001C20.4182 8.78514 22.6829 8.01514 24.7679 8.01514C26.8528 8.01514 28.2908 8.96014 29.0816 10.8501C31.4542 8.96014 33.6829 8.01514 35.7319 8.01514C36.9182 8.01514 37.8888 8.26014 38.6437 8.78514C39.3986 9.31014 39.9378 9.97514 40.1895 10.7451C40.4411 11.5501 40.5849 12.7051 40.5849 14.2451L40.5849 23.1001L43.8202 23.1001L43.8202 26.6001L36.9542 26.6001L36.9542 14.9101C36.9542 13.8601 36.9182 13.1251 36.8104 12.7051C36.7025 12.2851 36.4868 11.9351 36.0914 11.6201C35.696 11.3401 35.2287 11.2001 34.6895 11.2001C33.1437 11.2001 31.4182 11.9701 29.4411 13.5451L29.4411 23.1001L32.3529 23.1001L32.3529 26.6001L25.9182 26.6001L25.9182 14.5951C25.9182 13.4051 25.7385 12.5651 25.4149 12.0051C25.0555 11.4801 24.4803 11.2001 23.6535 11.2001C22.2875 11.2001 20.1306 11.7251 18.0097 13.3001L18.0097 23.1001L21.6404 23.1001L21.6404 26.6001L11.5032 26.6001L11.5032 23.1001L14.379 23.1001Z" fill="white"/>
<path class="hover" d="M66.8628 8.39998L66.8628 11.9L63.7713 11.9L63.7354 24.99C63.7354 26.81 63.6275 28.175 63.4478 29.05C63.2681 29.925 62.8007 30.835 62.0818 31.745C61.3628 32.655 60.2844 33.425 58.8105 34.055C57.3726 34.685 55.719 35 53.9576 35C51.2615 35 48.853 34.195 46.7321 32.585L49.0687 29.995C50.6504 31.22 52.3759 31.815 54.2452 31.815C55.2877 31.815 56.2223 31.605 57.121 31.22C58.0197 30.835 58.6668 30.345 59.0981 29.785C59.5295 29.225 59.8171 28.7 59.9249 28.175C60.0687 27.685 60.1047 26.81 60.1047 25.62L60.1047 23.975C59.5295 24.675 58.6308 25.375 57.4445 26.005C56.2223 26.635 54.8922 26.95 53.4543 26.95C50.8302 26.95 48.6733 26.04 47.0197 24.255C45.3661 22.47 44.5393 20.23 44.5393 17.605C44.5393 14.735 45.438 12.425 47.2713 10.64C49.1047 8.85498 51.1896 7.97998 53.5981 7.97998C56.0066 7.97998 58.4511 9.23998 60.3563 11.165L60.3563 8.36498L66.8628 8.36498L66.8628 8.39998ZM48.3857 17.57C48.3857 19.39 48.9249 20.895 50.0034 22.085C51.0818 23.24 52.4478 23.835 54.1373 23.835C55.7909 23.835 57.1929 23.24 58.3792 22.085C59.5654 20.93 60.1766 19.425 60.1766 17.57C60.1766 15.715 59.5654 14.21 58.3792 13.09C57.1929 11.97 55.8269 11.41 54.2452 11.41C52.6635 11.41 51.2975 11.97 50.1471 13.09C48.9968 14.14 48.3857 15.68 48.3857 17.57Z" fill="white"/>
</g>
<g class="hover">
  <path d="M110 31.3249C110 32.5849 108.958 33.5999 107.699 33.5999L73.4772 33.5999C72.219 33.5999 71.1765 32.5849 71.1765 31.3249L71.1765 3.6749C71.1765 2.4149 72.219 1.3999 73.4772 1.3999L107.699 1.3999C108.958 1.3999 110 2.4149 110 3.6749L110 31.3249Z" fill="#FF6633"/>
  <path d="M110 31.3249C110 32.5849 108.958 33.5999 107.699 33.5999L73.4772 33.5999C72.219 33.5999 71.1765 32.5849 71.1765 31.3249L71.1765 3.6749C71.1765 2.4149 72.219 1.3999 73.4772 1.3999L107.699 1.3999C108.958 1.3999 110 2.4149 110 3.6749L110 31.3249Z" fill="url(#paint0_linear)"/>
  <path d="M77.9347 28.9799C76.6406 28.9799 75.634 27.9649 75.634 26.7049L75.634 8.53989C75.634 7.27989 76.6765 6.26489 77.9347 6.26489C79.1929 6.26489 80.2353 7.27989 80.2353 8.53989L80.2353 26.7049C80.2713 27.9649 79.2288 28.9799 77.9347 28.9799Z" fill="#F5F5F5"/>
  <path d="M98.4968 17.3601L105.255 9.80008C106.082 8.85508 106.01 7.42008 105.039 6.58008C104.069 5.74008 102.631 5.84508 101.768 6.79008L95.4053 13.9301L89.0425 6.79008C88.2157 5.84508 86.7419 5.74008 85.7713 6.58008C84.8007 7.42008 84.7288 8.85508 85.5556 9.80008L92.3138 17.3951L85.5556 24.9551C84.7288 25.9001 84.8007 27.3351 85.7713 28.1751C86.2027 28.5601 86.7419 28.7351 87.2811 28.7351C87.9281 28.7351 88.5752 28.4901 89.0425 27.9651L95.4053 20.8251L101.768 27.9651C102.235 28.4901 102.882 28.7351 103.529 28.7351C104.069 28.7351 104.608 28.5601 105.039 28.1751C106.01 27.3351 106.082 25.9001 105.255 24.9551L98.4968 17.3601Z" fill="#F5F5F5"/>
<defs>
<linearGradient id="paint0_linear" x1="90.5883" y1="33.5999" x2="90.5883" y2="1.3999" gradientUnits="userSpaceOnUse">
<stop stop-color="#D84A2E"/>
<stop offset="1" stop-color="#FF6633"/>
</linearGradient>
</defs>
</svg>
