<?xml version="1.0" encoding="utf-8"?>
<svg version="1.1" id="Layer_1" xmlns="http://www.w3.org/2000/svg" xmlns:xlink="http://www.w3.org/1999/xlink" x="0px" y="0px"
   width="304px" height="100px" viewBox="0 0 304 100" style="enable-background:new 0 0 304 100;" xml:space="preserve">
<style type="text/css">
  .st0{fill:#FAFAFA;}
</style>
<g>
  <path class="hover st0" d="M304,10.5c0-3.6-2.9-6.5-6.4-6.5h-95.2c-3.5,0-6.4,2.9-6.4,6.5l0,79c0,3.6,2.9,6.5,6.4,6.5h95.2
    c3.5,0,6.4-2.9,6.4-6.5L304,10.5z M221.9,76.3c0,3.6-2.9,6.5-6.4,6.5c-3.6,0-6.4-2.9-6.4-6.5V24.4c0-3.6,2.9-6.5,6.4-6.5
    c3.6,0,6.4,2.9,6.4,6.5V76.3z M291.4,71.3c2.3,2.7,2.1,6.8-0.6,9.2c-1.2,1.1-2.7,1.6-4.2,1.6c-1.8,0-3.6-0.7-4.9-2.2L264,59.5
    l-17.7,20.4c-1.3,1.5-3.1,2.2-4.9,2.2c-1.5,0-3-0.5-4.2-1.6c-2.7-2.4-2.9-6.5-0.6-9.2l18.8-21.7L236.6,28c-2.3-2.7-2.1-6.8,0.6-9.2
    c2.7-2.4,6.7-2.1,9.1,0.6L264,39.8l17.7-20.4c2.3-2.7,6.4-3,9.1-0.6c2.7,2.4,2.9,6.5,0.6,9.2l-18.8,21.7L291.4,71.3z"/>
  <g>
    <path class="hover st0" d="M8,66V34H0V24h18v42h8v10H0V66H8z M18,6c0,3.3-2.7,6-6,6S6,9.3,6,6s2.7-6,6-6S18,2.7,18,6z"/>
    <path class="hover st0" d="M40,66V34h-8V24h18.8v6c6-4.9,12.3-7.1,18.1-7.1c5.8,0,9.8,2.7,12,8.1c6.6-5.4,12.8-8.1,18.5-8.1
      c3.3,0,6,0.7,8.1,2.2c2.1,1.5,3.6,3.4,4.3,5.6c0.7,2.3,1.1,5.6,1.1,10V66h9v10h-19.1V42.6c0-3-0.1-5.1-0.4-6.3
      c-0.3-1.2-0.9-2.2-2-3.1c-1.1-0.8-2.4-1.2-3.9-1.2c-4.3,0-9.1,2.2-14.6,6.7V66H90v10H72.1V41.7c0-3.4-0.5-5.8-1.4-7.4
      c-1-1.5-2.6-2.3-4.9-2.3c-3.8,0-9.8,1.5-15.7,6v28h10.1v10H32V66H40z"/>
    <path class="hover st0" d="M186,24v10h-8.6l-0.1,37.4c0,5.2-0.3,9.1-0.8,11.6c-0.5,2.5-1.8,5.1-3.8,7.7c-2,2.6-5,4.8-9.1,6.6
      c-4,1.8-8.6,2.7-13.5,2.7c-7.5,0-14.2-2.3-20.1-6.9l6.5-7.4c4.4,3.5,9.2,5.2,14.4,5.2c2.9,0,5.5-0.6,8-1.7
      c2.5-1.1,4.3-2.5,5.5-4.1c1.2-1.6,2-3.1,2.3-4.6c0.4-1.4,0.5-3.9,0.5-7.3v-4.7c-1.6,2-4.1,4-7.4,5.8c-3.4,1.8-7.1,2.7-11.1,2.7
      c-7.3,0-13.3-2.6-17.9-7.7c-4.6-5.1-6.9-11.5-6.9-19c0-8.2,2.5-14.8,7.6-19.9c5.1-5.1,10.9-7.6,17.6-7.6c6.7,0,13.5,3.6,18.8,9.1
      v-8H186z M134.6,50.2c0,5.2,1.5,9.5,4.5,12.9c3,3.3,6.8,5,11.5,5c4.6,0,8.5-1.7,11.8-5c3.3-3.3,5-7.6,5-12.9c0-5.3-1.7-9.6-5-12.8
      c-3.3-3.2-7.1-4.8-11.5-4.8c-4.4,0-8.2,1.6-11.4,4.8C136.3,40.4,134.6,44.8,134.6,50.2z"/>
  </g>
</g>
</svg>
