<?xml version="1.0" encoding="utf-8"?>
<!-- Generator: Adobe Illustrator 18.0.0, SVG Export Plug-In . SVG Version: 6.00 Build 0)  -->
<!DOCTYPE svg PUBLIC "-//W3C//DTD SVG 1.1//EN" "http://www.w3.org/Graphics/SVG/1.1/DTD/svg11.dtd">
<svg version="1.1" id="Layer_1" xmlns="http://www.w3.org/2000/svg" xmlns:xlink="http://www.w3.org/1999/xlink" x="0px" y="0px"
	 width="263.7px" height="48.9px" viewBox="0 0 263.7 48.9" style="enable-background:new 0 0 263.7 48.9;" xml:space="preserve">
<g>
	<path class="hover" style="fill:#F4F4F4;" d="M0,48V0h3.7v48H0z"/>
	<path class="hover" style="fill:#F4F4F4;" d="M38.2,48v-5.1c-2.8,3.2-7.5,6-12.5,6c-7.1,0-10.9-3.3-10.9-11.2V13.2h3.7v23.6
		c0,6.8,3.4,8.6,8.4,8.6c4.5,0,9-2.7,11.3-5.8V13.2h3.7V48H38.2z"/>
	<path class="hover" style="fill:#F4F4F4;" d="M94.2,48V23.7c0-4.9-2.1-7.9-7-7.9c-3.7,0-8,2.7-9.9,5.9V48h-3.8V23.7c0-4.9-2-7.9-6.9-7.9
		c-3.7,0-7.9,2.8-10,6V48h-3.7V13.2h3.7v5.3c1.4-2.2,6.2-6.1,11.2-6.1c5.4,0,8.3,3.2,9.1,6.6c1.9-3.2,6.6-6.6,11.5-6.6
		C94.9,12.4,98,16,98,23V48H94.2z"/>
	<path class="hover" style="fill:#F4F4F4;" d="M107.9,4.9c0-1.6,1.4-2.8,2.9-2.8c1.6,0,2.9,1.2,2.9,2.8c0,1.6-1.3,2.9-2.9,2.9
		C109.3,7.8,107.9,6.5,107.9,4.9z M108.9,48V13.2h3.7V48H108.9z"/>
	<path class="hover" style="fill:#F4F4F4;" d="M147.1,48V24.5c0-6.7-3.4-8.7-8.4-8.7c-4.5,0-9.1,2.8-11.3,6V48h-3.7V13.2h3.7v5.3
		c2.5-3,7.5-6.1,12.5-6.1c7.1,0,10.9,3.5,10.9,11.3V48H147.1z"/>
	<path class="hover" style="fill:#F4F4F4;" d="M159.8,30.6c0-10.2,6.5-18.2,16.6-18.2c10.3,0,16.8,8.1,16.8,18.2c0,10.2-6.5,18.3-16.8,18.3
		C166.3,48.9,159.8,40.8,159.8,30.6z M189.2,30.6c0-7.7-4.5-14.8-12.7-14.8c-8.1,0-12.7,7.1-12.7,14.8c0,7.8,4.6,14.9,12.7,14.9
		C184.7,45.5,189.2,38.4,189.2,30.6z"/>
	<path class="hover" style="fill:#F4F4F4;" d="M225.6,48v-5.1c-2.8,3.2-7.5,6-12.5,6c-7.1,0-10.9-3.3-10.9-11.2V13.2h3.7v23.6
		c0,6.8,3.4,8.6,8.4,8.6c4.5,0,9-2.7,11.3-5.8V13.2h3.7V48H225.6z"/>
	<path class="hover" style="fill:#F4F4F4;" d="M237.3,43.3l2.2-2.7c2.2,2.8,6.3,5.1,11.2,5.1c5.8,0,9.3-3,9.3-7.1c0-9.5-22-4.1-22-16.6
		c0-5.3,4.5-9.6,12.4-9.6c6,0,9.9,2.3,12.5,5.1l-2.1,2.7c-2-2.7-5.8-4.6-10.4-4.6c-5.4,0-8.6,2.7-8.6,6.3c0,8.7,21.9,3.4,21.9,16.8
		c0,5.6-4.3,10.2-13,10.2C245.1,48.9,240.8,47.2,237.3,43.3z"/>
</g>
</svg>
