<svg width="94" height="94" viewBox="0 0 94 94" fill="none" xmlns="http://www.w3.org/2000/svg">
<g class="hover" clip-path="url(#clip0)">
<path d="M78.667 62.9158L77.0895 63.7802C71.4604 66.8594 66.8576 71.4622 63.7784 77.0913L62.9139 78.6689L73.8159 81.8671C78.7319 83.304 83.3022 78.7446 81.8544 73.8284L78.667 62.9158Z" fill="white"/>
<path d="M15.3228 31.075L16.9003 30.2106C22.5294 27.1313 27.1322 22.5285 30.2116 16.8993L31.0759 15.3218L20.1741 12.1236C15.258 10.6866 10.6876 15.2462 12.1355 20.1623L15.3228 31.075Z" fill="white"/>
<path d="M63.7795 16.8989C66.8588 22.5281 71.4616 27.1309 77.0907 30.2102L78.6682 31.0746L81.8665 20.1727C83.3033 15.2566 78.7438 10.6863 73.8278 12.1341L62.926 15.3323L63.7795 16.8989Z" fill="white"/>
<path d="M30.2102 77.0915C27.1308 71.4622 22.5282 66.8594 16.8989 63.7802L15.3214 62.9158L12.1233 73.8177C10.6863 78.7337 15.2458 83.304 20.1618 81.8562L31.0637 78.6581L30.2102 77.0915Z" fill="white"/>
<path d="M69.0643 10.1469L68.9345 8.89343C68.3835 3.79315 62.4187 1.32945 58.4206 4.53874L57.4481 5.32755L61.3273 12.4161L69.0643 10.1469Z" fill="white"/>
<path d="M36.5416 5.33836L35.5474 4.53874C31.5492 1.32945 25.5846 3.79315 25.0335 8.89343L24.9038 10.1361L32.6731 12.4161L36.5416 5.33836Z" fill="white"/>
<path d="M5.2941 36.5645L12.4151 32.6745L10.1459 24.9375L8.85997 25.0672C3.7597 25.6184 1.296 31.5831 4.50529 35.5811L5.2941 36.5645Z" fill="white"/>
<path d="M5.31457 57.4482L4.49332 58.464C1.28404 62.4622 3.74774 68.4269 8.84803 68.9779L10.1231 69.1183L12.4031 61.3383L5.31457 57.4482Z" fill="white"/>
<path d="M88.6531 57.4482L81.5753 61.3167L83.8554 69.0967L85.1088 68.9563C90.209 68.4053 92.6728 62.4406 89.4634 58.4424L88.6531 57.4482Z" fill="white"/>
<path d="M88.6855 36.5534L89.4634 35.5808C92.6728 31.5828 90.209 25.618 85.1088 25.067L83.8445 24.9265L81.5753 32.6633L88.6855 36.5534Z" fill="white"/>
<path d="M57.427 88.6955L58.4211 89.4951C62.4192 92.7044 68.3838 90.2407 68.935 85.1404L69.0755 83.8436L61.3278 81.5745L57.427 88.6955Z" fill="white"/>
<path d="M24.8947 83.8546L25.0351 85.1405C25.5863 90.2408 31.551 92.7045 35.5492 89.4952L36.5648 88.6847L32.6748 81.5854L24.8947 83.8546Z" fill="white"/>
<path d="M90.6273 41.306L75.5425 33.0621C69.3833 29.691 64.3046 24.6237 60.9332 18.4543L52.6885 3.37103C50.2248 -1.12368 43.7737 -1.12368 41.3102 3.37103L33.0654 18.4543C29.694 24.613 24.6261 29.691 18.4561 33.0621L3.37137 41.306C-1.12379 43.7694 -1.12379 50.2197 3.37137 52.6832L18.4561 60.9379C24.6154 64.309 29.694 69.3763 33.0654 75.5457L41.3209 90.629C43.7846 95.1237 50.2357 95.1237 52.6994 90.629L60.9441 75.535C64.3154 69.3763 69.3833 64.2981 75.5534 60.927L90.638 52.6723C95.1224 50.2197 95.1224 43.7694 90.6273 41.306ZM56.5137 55.4277H53.2721V51.9485V46.3409V45.1849L48.3771 52.467H45.6755L40.7266 45.1849V55.4277H37.4849V38.5723H40.1756L47.0047 48.6963L53.834 38.5723H56.5137V55.4277Z" fill="white"/>
</g>
<defs>
<clipPath id="clip0">
<rect width="94" height="94" fill="white"/>
</clipPath>
</defs>
</svg>
