<?xml version="1.0" encoding="utf-8"?>
<!-- Generator: Adobe Illustrator 18.0.0, SVG Export Plug-In . SVG Version: 6.00 Build 0)  -->
<!DOCTYPE svg PUBLIC "-//W3C//DTD SVG 1.1//EN" "http://www.w3.org/Graphics/SVG/1.1/DTD/svg11.dtd">
<svg version="1.1" id="Layer_1" xmlns="http://www.w3.org/2000/svg" xmlns:xlink="http://www.w3.org/1999/xlink" x="0px" y="0px"
   width="155.9px" height="81.5px" viewBox="0 0 155.9 81.5" style="enable-background:new 0 0 155.9 81.5;" xml:space="preserve">
<style type="text/css">
  .st0{fill:#FFFFFF;}
</style>
<g>
  <path class="st0 hover" d="M14,51.4c-0.1,0.6-0.3,1.1-0.6,1.4s-0.6,0.7-1.1,0.9c-0.4,0.2-0.8,0.4-1.3,0.5c-0.5,0.1-0.9,0.1-1.3,0.1
    c-0.5,0-1-0.1-1.5-0.2c-0.5-0.1-0.9-0.3-1.3-0.5s-0.7-0.5-0.9-0.8c-0.2-0.3-0.3-0.7-0.3-1.1c0-0.8,0-1.5,0.1-2.2
    c0.1-0.7,0.2-1.4,0.4-2c0.5-2.3,1-4.4,1.4-6.4s0.9-3.8,1.5-5.5c0.6-1.7,0.9-3.4,1.1-5.1s0.4-3.3,0.6-5s0.3-3.4,0.2-5.2
    c0-1.8-0.1-3.7-0.1-5.8c0-0.2,0-0.4,0-0.7s0-0.5-0.1-0.8s-0.2-0.5-0.3-0.6s-0.3-0.3-0.6-0.3c-0.4,0-1,0.2-1.6,0.5
    C7.7,13,7,13.4,6.3,14c-0.7,0.5-1.4,1.2-2.1,1.9c-0.7,0.7-1.4,1.5-1.9,2.4c-0.1,0.3-0.3,0.5-0.5,0.6s-0.5,0.2-0.8,0.2
    c-0.1,0-0.2-0.1-0.3-0.2c-0.1-0.2-0.2-0.4-0.3-0.6c-0.1-0.2-0.2-0.5-0.2-0.7S0,17,0,16.7c0-0.1,0-0.2,0.1-0.3
    c0.7-2.3,1.5-4.2,2.4-5.8c0.9-1.6,1.8-2.8,2.8-3.7c1-0.9,2-1.6,3-2c1-0.4,2-0.6,2.9-0.6c1.2,0,2.2,0.2,3,0.7
    c0.8,0.5,1.4,1.1,1.9,1.9s0.8,1.8,1,3c0.2,1.2,0.3,2.5,0.3,3.9c0,1.1-0.1,2.4-0.3,3.8s-0.4,3-0.7,4.7c-0.2,1.6-0.5,3.2-0.9,4.8
    c-0.4,1.6-0.7,3.1-1.1,4.5c0.6-2.6,1.4-5.1,2.2-7.5c0.9-2.4,1.8-4.6,2.8-6.7c1-2.1,2.1-4,3.2-5.7s2.3-3.1,3.5-4.4
    c1.2-1.2,2.4-2.1,3.7-2.8c1.2-0.7,2.5-1,3.7-1c0.9,0,1.7,0.2,2.5,0.6c0.8,0.4,1.4,1,2,1.8c0.5,0.8,1,1.9,1.3,3.1
    c0.3,1.2,0.5,2.7,0.5,4.5c0,0.2,0,0.4,0,0.7s-0.1,0.7-0.1,1.1c0,0.4-0.1,0.9-0.2,1.4c-0.1,0.5-0.1,1-0.2,1.5
    c-0.2,1.2-0.3,2.4-0.5,3.8l0.6,0c0.8-2.9,1.7-5.5,2.8-7.8c1.1-2.3,2.4-4.3,3.7-5.9c1.4-1.6,2.9-2.8,4.5-3.7c1.6-0.9,3.3-1.3,5-1.3
    c1.2,0,2.2,0.4,3.2,1.1c0.9,0.7,1.7,1.7,2.3,2.9c0.6,1.2,1.1,2.6,1.4,4.2c0.3,1.6,0.5,3.3,0.5,5.1c0,1.7-0.2,3.4-0.5,5.3
    c-0.3,1.8-0.7,3.7-1,5.5c-0.3,1.8-0.6,3.6-1,5.4c-0.3,1.8-0.6,3.4-0.9,5c-0.3,1.6-0.5,3-0.8,4.3c-0.2,1.3-0.3,2.3-0.3,3
    c0,0.9,0.2,1.5,0.6,1.9c0.4,0.4,1,0.6,1.8,0.6c0.4,0,0.9-0.1,1.4-0.4s1-0.6,1.5-1s1-0.9,1.5-1.4s1-1,1.4-1.6c1-1.2,2.1-2.7,3.1-4.3
    c0,0,0.1,0.2,0.3,0.6c0.1,0.3,0.4,0.9,0.7,1.7s0.8,2,1.3,3.5c-1,1.7-2,3.2-3,4.4s-2.1,2.2-3.2,2.9s-2.2,1.3-3.3,1.6
    s-2.2,0.5-3.3,0.5c-1.1,0-2.1-0.2-3.1-0.6c-1-0.4-1.9-0.9-2.7-1.7c-0.8-0.7-1.4-1.6-1.9-2.7C51.2,48.2,51,47,51,45.6
    c0-0.2,0-0.3,0-0.5c0-0.2,0-0.4,0-0.5c0.1-1.3,0.3-2.7,0.5-4.2s0.5-3,0.8-4.6c0.3-1.6,0.6-3.2,0.9-4.9s0.6-3.3,0.9-4.9
    s0.6-3.3,0.9-4.8c0.3-1.6,0.4-3,0.4-4.1c0-0.9,0-1.7-0.1-2.4s-0.2-1.3-0.4-1.8c-0.2-0.5-0.4-0.9-0.8-1.2s-0.8-0.4-1.3-0.4
    c-1.1,0-2.2,0.4-3.1,1.1c-1,0.7-1.9,1.7-2.8,3c-0.9,1.3-1.7,2.8-2.5,4.5c-0.8,1.7-1.5,3.6-2.2,5.6c-0.7,2-1.3,4.1-1.7,6.3
    c-0.5,2.2-1,4.5-1.6,6.8c-0.6,2.4-1,4.6-1.3,6.7c-0.3,2.1-0.6,4.1-1,6.1c-0.1,0.5-0.3,1-0.6,1.4c-0.3,0.4-0.6,0.7-1,0.9
    S34.4,54,34,54.1s-0.8,0.2-1.2,0.2c-0.4,0-0.8-0.1-1.2-0.2c-0.4-0.2-0.8-0.4-1.1-0.7s-0.5-0.8-0.7-1.3c-0.2-0.5-0.3-1.2-0.3-1.9
    c-0.4-0.5-0.4-1.4-0.2-2.6s0.5-2.7,0.9-4.4c0.3-1.7,0.7-3.6,1.2-5.7s0.9-4.2,1.2-6.3c0.4-2.1,0.8-4.2,1.2-6.3
    c0.4-2.1,0.6-4,0.6-5.8c0-1.2,0-2.3-0.1-3.3s-0.2-1.8-0.4-2.4c-0.2-0.7-0.5-1.2-1-1.5s-1-0.5-1.7-0.5c-0.6,0-1.2,0.4-1.9,1.1
    c-0.7,0.7-1.5,1.8-2.4,3.1c-0.8,1.3-1.7,2.8-2.6,4.6s-1.8,3.7-2.7,5.7s-1.7,4.2-2.5,6.4c-0.8,2.2-1.5,4.5-2.1,6.8s-1.1,4.5-1.6,6.6
    C14.9,47.6,14.4,49.6,14,51.4z"/>
  <path class="st0 hover" d="M86,31.7c0.6,1.1,1,2.3,1.3,3.6s0.4,2.7,0.4,4.3c0,1.2-0.1,2.3-0.4,3.5s-0.6,2.3-1.1,3.4s-1.1,2.1-1.8,3.1
    S82.9,51.3,82,52c-0.9,0.7-1.9,1.3-2.9,1.7s-2.2,0.6-3.4,0.6c-1.7,0-3.2-0.4-4.4-1.1c-1.2-0.8-2.2-1.7-3-2.9
    c-0.8-1.2-1.4-2.6-1.7-4.1c-0.4-1.5-0.5-3.1-0.5-4.6c0-2.6,0.3-4.8,1-6.7s1.6-3.5,2.8-4.9s2.7-2.5,4.4-3.3c1.7-0.8,3.7-1.2,5.9-1.2
    c1.9,0,3.6,0.3,5.2,0.9s3.1,1.3,4.6,2.3s2.7,2.2,4,3.6s2.4,2.9,3.4,4.2l-0.6,4.1c-0.5-0.7-1.2-1.5-2.1-2.3s-1.9-1.7-2.9-2.7
    s-2-1.8-3-2.5s-1.8-1.3-2.5-1.7L86,31.7z M76.9,48.6c0.7,0,1.3-0.3,1.9-1c0.6-0.7,1.2-1.5,1.6-2.5s0.8-2.3,1.1-3.7
    c0.3-1.5,0.4-2.7,0.4-3.9c0-0.9-0.1-1.7-0.2-2.5c-0.1-0.8-0.3-1.4-0.6-2c-0.3-0.6-0.6-1-1.1-1.3c-0.4-0.3-0.9-0.5-1.6-0.5
    c-0.8,0-1.6,0.3-2.3,1c-0.7,0.7-1.4,1.6-1.9,2.6c-0.5,1.1-1,2.2-1.3,3.5c-0.3,1.3-0.5,2.7-0.5,4.4c0,0.8,0.1,1.6,0.2,2.3
    c0.2,0.7,0.4,1.4,0.7,1.9c0.3,0.5,0.8,1,1.3,1.3C75.5,48.5,76.1,48.6,76.9,48.6z"/>
  <path class="st0 hover" d="M117.6,47.7c-1.9,1.1-3.5,2.1-5,2.9s-2.8,1.5-3.9,2.1s-2.2,1-3.1,1.2s-1.7,0.4-2.4,0.4c-1.5,0-2.8-0.4-3.9-1.3
    s-2.1-2.2-2.8-3.9s-1.3-3.7-1.7-6.1c-0.4-2.4-0.6-5.1-0.6-8.1c0-1.2,0-2.4,0.1-3.8c0.1-1.3,0.2-2.6,0.4-4c-0.6-0.1-1-0.2-1.4-0.2
    c-0.3-0.1-0.7-0.2-1-0.2c-0.4-0.1-0.8-0.2-1.4-0.2s-1.4-0.2-2.4-0.3c-0.5-0.1-0.8-0.2-1.1-0.4c-0.3-0.2-0.4-0.4-0.6-0.7
    c-0.1-0.2-0.2-0.5-0.2-0.8c0-0.3,0-0.5,0-0.7c0-0.3,0.2-0.5,0.6-0.7s0.9-0.3,1.5-0.4c0.6-0.1,1.3-0.1,2-0.1s1.4,0,2.1,0
    s1.2,0,1.8,0c0.5,0,0.9,0,1.1,0c0.5-2.6,1.2-5.2,2-7.6c0.8-2.5,1.7-4.7,2.7-6.6c1-1.9,2.1-3.5,3.3-4.6c1.2-1.2,2.4-1.7,3.7-1.7
    c0.8,0,1.6,0.2,2.3,0.7c0.7,0.5,1.3,1.1,1.8,1.9c0.5,0.8,0.9,1.7,1.1,2.7s0.4,2.1,0.4,3.3c0,0.9-0.1,1.9-0.4,3
    c-0.3,1-0.6,2.1-1.1,3.2c-0.5,1.1-1,2.2-1.7,3.3c-0.6,1.1-1.3,2.2-2,3.3c0.2-0.1,0.5-0.1,0.9,0c0.4,0,0.9,0.1,1.4,0.1s1.1,0,1.7,0
    s1.2,0,1.8,0.1s1.1,0,1.6,0.1s0.9,0,1.3,0.1c0.4,0,0.7,0.2,0.8,0.7s0.3,0.9,0.3,1.6c0,0.7-0.2,1.3-0.6,1.8
    c-0.4,0.5-0.8,0.7-1.3,0.7h-11.3c-0.6,0.8-1.1,1.5-1.7,2.3c-0.6,0.8-1.1,1.4-1.6,2c-0.1,1.2-0.1,2.4-0.2,3.6c0,0.5,0,1-0.1,1.6
    s0,1.1-0.1,1.6s0,1,0,1.5s0,0.9,0,1.3c0,1.1,0.1,1.9,0.3,2.7s0.5,1.3,0.9,1.8c0.4,0.5,0.8,0.8,1.4,1s1.1,0.3,1.8,0.3
    c0.4,0,0.9-0.1,1.5-0.3c0.6-0.2,1.3-0.5,2-0.8s1.5-0.7,2.3-1.2s1.6-1,2.4-1.5s1.5-1.1,2.3-1.8c0.7-0.6,1.4-1.2,2-1.9V47.7z
     M108.2,10.6c0-0.2,0-0.5,0-0.7s-0.1-0.5-0.2-0.7c-0.1-0.2-0.2-0.4-0.5-0.6c-0.2-0.2-0.5-0.2-0.9-0.2c-0.5,0-1,0.4-1.5,1.3
    s-1,2-1.5,3.4c-0.5,1.4-0.9,2.9-1.4,4.6c-0.4,1.7-0.8,3.3-1.2,4.9c0.3,0,0.6,0.1,0.9,0.1c0.3,0,0.6,0,0.9,0.1
    c0.6-1,1.2-2.1,1.8-3.2c0.6-1.1,1.2-2.3,1.7-3.4c0.5-1.1,0.9-2.1,1.3-3.1C108,12,108.2,11.2,108.2,10.6z"/>
  <path class="st0 hover" d="M133.1,48c-0.7,0.6-1.6,1.3-2.6,2.1s-2.2,1.4-3.4,2s-2.4,1.1-3.7,1.5s-2.5,0.6-3.6,0.6c-1,0-1.9-0.1-2.6-0.4
    s-1.3-0.7-1.7-1.2s-0.7-1.1-0.9-1.9s-0.3-1.5-0.3-2.4c0-1.2,0.1-2.7,0.4-4.3c0.6-3.4,0.9-5.3,1.1-5.7c0.3-0.8,0.8-2.7,1.6-5.5
    c0.7-2.3,1.2-3.9,1.4-4.6c0.1-0.5,0.4-0.9,0.8-1.3c0.4-0.4,0.9-0.6,1.4-0.9c0.5-0.2,1-0.4,1.6-0.5s1-0.2,1.5-0.2
    c0.8,0,1.4,0.2,1.6,0.5c0.3,0.3,0.4,0.7,0.4,1.2c0,0.4-0.1,1-0.3,1.8c-0.2,0.8-0.4,1.7-0.7,2.7c-0.3,1-0.6,2.3-1.1,3.9
    c-0.5,1.6-0.8,2.9-1,4c-0.2,1.1-0.4,2.2-0.7,3.3s-0.4,2.1-0.4,3c0,0.9,0.1,1.6,0.3,2.1c0.2,0.5,0.6,0.8,1.2,0.8
    c0.7,0,1.5-0.2,2.3-0.7s1.7-1.1,2.6-1.8s1.7-1.4,2.6-2.2s1.6-1.4,2.2-1.9V48z M120,17.3c0-0.5,0.1-1,0.3-1.5c0.2-0.6,0.5-1.1,1-1.6
    s1-0.9,1.8-1.3c0.7-0.3,1.6-0.5,2.7-0.5c0.7,0,1.3,0.1,1.9,0.2c0.6,0.2,1.1,0.4,1.6,0.7s0.8,0.8,1.1,1.3s0.4,1.2,0.4,1.9
    c0,0.7-0.1,1.3-0.3,2s-0.6,1.2-1,1.7s-1.1,0.9-1.8,1.2c-0.7,0.3-1.6,0.5-2.6,0.5c-1.7,0-3-0.4-3.8-1.2S120,18.6,120,17.3z"/>
  <path class="st0 hover" d="M129.3,55.3c0-0.1,0-0.7,0.1-1.8s0.2-2.5,0.3-4.4c0.2-1.8,0.4-3.9,0.6-6.3s0.5-4.9,0.9-7.5
    c0.4-2.6,0.8-5.3,1.4-8.1c0.5-2.8,1.2-5.5,1.9-8.1c0.7-2.6,1.6-5.1,2.5-7.4c0.9-2.3,2-4.4,3.2-6.1c1.2-1.7,2.5-3.1,3.9-4.1
    s3-1.5,4.7-1.5c0.7,0,1.4,0.1,2.1,0.3c0.7,0.2,1.4,0.6,2,1.1c0.6,0.5,1.1,1.2,1.5,2c0.4,0.8,0.6,1.9,0.6,3.1c0,1.2-0.2,2.5-0.6,4
    c-0.4,1.5-0.9,3.1-1.6,4.8c-0.7,1.7-1.5,3.5-2.4,5.3c-0.9,1.8-1.9,3.7-3,5.5c-1.1,1.8-2.2,3.6-3.4,5.4c-1.2,1.8-2.4,3.4-3.7,5
    l-0.1,0.5c0.4-0.2,0.7-0.3,0.9-0.3c0.2-0.1,0.4-0.1,0.6-0.1c0.3,0,0.5,0,0.7,0.1c0.2,0,0.3,0.1,0.5,0.1c0.1,0.1,0.3,0.1,0.4,0.1
    c0.1,0,0.3,0.1,0.5,0.1c1.9,0,3.6-0.2,5.1-0.7c1.5-0.5,2.7-1,3.8-1.5c1.2-0.6,2.2-1.4,3.1-2.3l-0.6,7.1c-1.3,0.7-2.6,1.3-4,1.7
    s-2.7,0.7-3.9,0.9c-1.4,0.2-2.8,0.4-4.2,0.4c0.8,1.3,1.4,2.6,2,4c0.5,1.2,1,2.5,1.4,4c0.4,1.5,0.6,3,0.6,4.5c0,0.2,0,0.5-0.1,1.1
    c-0.1,0.6-0.1,1.3-0.3,2.1c-0.1,0.8-0.3,1.7-0.5,2.7c-0.2,1-0.5,2-0.9,3c-0.4,1-0.8,2-1.3,2.9c-0.5,0.9-1.1,1.8-1.8,2.5
    c-0.7,0.7-1.5,1.3-2.4,1.8s-1.9,0.7-3,0.7c-1.1,0-2-0.2-2.8-0.7c-0.8-0.5-1.5-1.1-2-2c-0.6-0.8-1-1.8-1.4-2.9
    c-0.4-1.1-0.7-2.3-0.9-3.5c-0.2-1.2-0.4-2.5-0.5-3.8C129.4,57.8,129.3,56.5,129.3,55.3z M137.1,39.9c-0.1,0-0.2,0.2-0.3,0.7
    c-0.1,0.4-0.2,1-0.2,1.7s-0.1,1.6-0.2,2.9c-0.1,1.2-0.2,2.3-0.2,3.1c-0.1,0.8-0.1,1.6-0.2,2.3s-0.1,1.3-0.1,1.7
    c0,2.9,0.1,5.2,0.2,6.9s0.2,3,0.4,3.9s0.4,1.5,0.6,1.7s0.4,0.4,0.6,0.4c0.7,0,1.2-0.3,1.6-0.9c0.4-0.6,0.7-1.4,0.9-2.3
    c0.2-0.9,0.3-1.9,0.4-3c0.1-1.1,0.1-2.2,0.1-3.2c0-0.7,0-1.5-0.1-2.5s-0.1-2.1-0.2-3.2c-0.1-1.2-0.2-2.5-0.5-3.9
    c-0.2-1.5-0.6-2.6-1-3.3c-0.4-0.7-0.8-1.4-1.1-1.9C137.6,40.2,137.3,39.9,137.1,39.9z M144.5,9.3c-1.2,2.6-2.1,5.1-2.8,7.4
    c-0.7,2.1-1.2,4-1.5,5.7c-0.3,1.7-0.6,3.1-0.7,4.4c-0.1,1.3-0.3,2.4-0.4,3.5c1.3-2.2,2.5-4.4,3.9-6.5c1.3-2.1,2.5-4.1,3.5-6
    c1-1.9,1.9-3.7,2.6-5.4c0.7-1.7,1.1-3,1.1-3.7c0-1-0.1-1.8-0.4-2.3c-0.3-0.5-0.8-0.7-1.4-0.7c-1.1,0-1.8,0.2-2.2,0.7
    C145.7,6.8,145.2,7.7,144.5,9.3z"/>
</g>
</svg>
