<svg width="110" height="25" viewBox="0 0 110 25" fill="none" xmlns="http://www.w3.org/2000/svg">
<path class="hover" d="M8.19672 7.00755C11.082 7.00755 13.4426 9.35422 13.4426 12.2224C13.4426 15.0905 11.082 17.4372 8.19672 17.4372C5.31148 17.4372 2.95082 15.0905 2.95082 12.2224C2.95082 9.35422 5.31148 7.00755 8.19672 7.00755ZM8.19672 4.07422C3.67213 4.07422 1.787e-08 7.72459 3.98884e-08 12.2224C6.19068e-08 16.7201 3.67213 20.3705 8.19672 20.3705C12.7213 20.3705 16.3934 16.7201 16.3934 12.2224C16.3934 7.72459 12.7213 4.07422 8.19672 4.07422Z" fill="white"/>
<path class="hover" d="M30.4754 15.0253C29.541 16.4757 27.9181 17.4372 26.0656 17.4372C23.1804 17.4372 20.8197 15.0905 20.8197 12.2224C20.8197 9.35422 23.1804 7.00755 26.0656 7.00755C27.9181 7.00755 29.541 7.96903 30.4754 9.4194L32.9673 7.83866C31.5082 5.57348 28.9673 4.07422 26.0656 4.07422C21.541 4.07422 17.8689 7.72459 17.8689 12.2224C17.8689 16.7201 21.541 20.3705 26.0656 20.3705C28.9673 20.3705 31.5082 18.8713 32.9673 16.6224L30.4754 15.0253Z" fill="white"/>
<path class="hover" d="M37.3934 7.00741L42.6393 7.00741L42.6393 4.07407L37.3934 4.07407L37.3934 -1.44454e-08L34.4426 0L34.4426 4.07407L34.4426 12.2222C34.4426 16.72 38.1148 20.3704 42.6393 20.3704L42.6393 17.437C39.7541 17.437 37.3934 15.0904 37.3934 12.2222L37.3934 7.00741Z" fill="white"/>
<path class="hover" d="M52.3115 7.00755C55.1967 7.00755 57.5574 9.35422 57.5574 12.2224C57.5574 15.0905 55.1967 17.4372 52.3115 17.4372C49.4262 17.4372 47.0656 15.0905 47.0656 12.2224C47.0656 9.35422 49.4098 7.00755 52.3115 7.00755ZM52.3115 4.07422C47.7869 4.07422 44.1147 7.72459 44.1147 12.2224C44.1147 16.7201 47.7869 20.3705 52.3115 20.3705C56.8361 20.3705 60.5082 16.7201 60.5082 12.2224C60.5082 7.72459 56.8361 4.07422 52.3115 4.07422Z" fill="white"/>
<path class="hover" d="M70.1639 4.07422C65.6393 4.07422 61.9672 7.72459 61.9672 12.2224L61.9672 24.4446L64.918 24.4446L64.918 18.4801C66.3442 19.6535 68.1639 20.3705 70.1639 20.3705C74.6885 20.3705 78.3606 16.7201 78.3606 12.2224C78.3606 7.72459 74.6885 4.07422 70.1639 4.07422ZM70.1639 17.4372C67.2786 17.4372 64.918 15.0905 64.918 12.2224C64.918 9.35422 67.2786 7.00755 70.1639 7.00755C73.0491 7.00755 75.4098 9.35422 75.4098 12.2224C75.4098 15.0905 73.0655 17.4372 70.1639 17.4372Z" fill="white"/>
<path class="hover" d="M93.2788 4.07422L93.2788 12.2224C93.2788 15.0905 90.9182 17.4372 88.0329 17.4372C85.1477 17.4372 82.787 15.0905 82.787 12.2224L82.787 4.07422L79.8362 4.07422L79.8362 12.2224C79.8362 16.7201 83.5083 20.3705 88.0329 20.3705C92.5575 20.3705 96.2296 16.7201 96.2296 12.2224L96.2296 4.07422L93.2788 4.07422Z" fill="white"/>
<path class="hover" d="M105.902 4.07422C101.377 4.07422 97.7048 7.72459 97.7048 12.2224L100.656 12.2224C100.656 9.35422 103.016 7.00755 105.902 7.00755L110 7.00755L110 4.07422L105.902 4.07422Z" fill="white"/>
<path class="hover" d="M107.049 12.2222C107.049 15.0903 104.688 17.437 101.803 17.437L97.7048 17.437L97.7048 20.3703L101.803 20.3703C106.328 20.3703 110 16.7199 110 12.2222L107.049 12.2222Z" fill="white"/>
</g>
</svg>
