<?xml version="1.0" encoding="utf-8"?>
<!-- Generator: Adobe Illustrator 18.0.0, SVG Export Plug-In . SVG Version: 6.00 Build 0)  -->
<!DOCTYPE svg PUBLIC "-//W3C//DTD SVG 1.1//EN" "http://www.w3.org/Graphics/SVG/1.1/DTD/svg11.dtd">
<svg version="1.1" id="Layer_1" xmlns="http://www.w3.org/2000/svg" xmlns:xlink="http://www.w3.org/1999/xlink" x="0px" y="0px"
   width="302.2px" height="80.3px" viewBox="0 0 302.2 80.3" style="enable-background:new 0 0 302.2 80.3;" xml:space="preserve">
<g>
  <path class="hover" style="fill:#E3E7EE;" d="M4,50V10h18.7c8.7,0,13.4,5.9,13.4,12.9c0,7-4.8,12.8-13.4,12.8H12.5V50H4z M27.4,22.9
    c0-3.4-2.6-5.4-5.9-5.4h-9v10.7h9C24.8,28.2,27.4,26.2,27.4,22.9z"/>
  <path class="hover" style="fill:#E3E7EE;" d="M40.5,50V10h8.6v32.5H66V50H40.5z"/>
  <path class="hover" style="fill:#E3E7EE;" d="M98.8,50l-2.5-6.8H79.1L76.6,50H67l15.4-40h10.7l15.4,40H98.8z M87.7,18.5l-6.2,17.2H94L87.7,18.5z"
    />
  <path class="hover" style="fill:#E3E7EE;" d="M107.6,30c0-12.4,9.3-20.7,21.4-20.7c8.8,0,13.9,4.7,16.7,9.8l-7.3,3.6c-1.7-3.2-5.3-5.8-9.4-5.8
    c-7.3,0-12.6,5.6-12.6,13.1c0,7.6,5.3,13.1,12.6,13.1c4.1,0,7.7-2.6,9.4-5.8l7.3,3.5c-2.8,5-7.9,9.8-16.7,9.8
    C116.9,50.7,107.6,42.3,107.6,30z"/>
  <path class="hover" style="fill:#E3E7EE;" d="M150.2,50V10h28.3v7.5h-19.8v8.4h19.4v7.5h-19.4v9.1h19.8V50H150.2z"/>
  <path class="hover" style="fill:#E3E7EE;" d="M219.4,50V21.2L208.1,50h-3.7l-11.3-28.9V50h-8.5V10h11.9l9.7,25l9.7-25h12v40H219.4z"/>
  <path class="hover" style="fill:#E3E7EE;" d="M262.9,50l-2.5-6.8h-17.2l-2.5,6.8h-9.7l15.4-40h10.7l15.4,40H262.9z M251.8,18.5l-6.2,17.2h12.5
    L251.8,18.5z"/>
  <path class="hover" style="fill:#E3E7EE;" d="M281.1,50V17.5h-11.7V10h31.9v7.5h-11.6V50H281.1z"/>
  <path class="hover" style="fill:#666D7F;" d="M4.4,75.8V61.5h5.8c2.9,0,4.5,2,4.5,4.3c0,2.3-1.6,4.3-4.5,4.3h-4v5.7H4.4z M12.8,65.8
    c0-1.6-1.2-2.7-2.9-2.7H6.1v5.5h3.8C11.6,68.5,12.8,67.4,12.8,65.8z"/>
  <path class="hover" style="fill:#666D7F;" d="M25.1,75.8l-3.6-5.7h-2.9v5.7h-1.8V61.5h5.8c2.6,0,4.5,1.7,4.5,4.3c0,2.6-1.8,4-3.7,4.2l3.9,5.8
    H25.1z M25.2,65.8c0-1.6-1.2-2.7-2.9-2.7h-3.8v5.5h3.8C24,68.5,25.2,67.4,25.2,65.8z"/>
  <path class="hover" style="fill:#666D7F;" d="M29.6,75.8V61.5H39v1.6h-7.6v4.6h7.5v1.6h-7.5v4.9H39v1.6H29.6z"/>
  <path class="hover" style="fill:#666D7F;" d="M45.2,75.8V63.1h-4.5v-1.6h10.9v1.6H47v12.7H45.2z"/>
  <path class="hover" style="fill:#666D7F;" d="M57.3,75.8V63.1h-4.5v-1.6h10.9v1.6H59v12.7H57.3z"/>
  <path class="hover" style="fill:#666D7F;" d="M69.9,75.8v-6.1l-5.7-8.3h2.1l4.5,6.7l4.5-6.7h2.1l-5.6,8.3v6.1H69.9z"/>
  <path class="hover" style="fill:#666D7F;" d="M94.5,75.8l-8.4-11.4v11.4h-1.8V61.5h1.8l8.3,11.2V61.5h1.8v14.3H94.5z"/>
  <path class="hover" style="fill:#666D7F;" d="M99.3,75.8V61.5h1.8v14.3H99.3z"/>
  <path class="hover" style="fill:#666D7F;" d="M103.7,68.7c0-4.4,3.2-7.4,7.4-7.4c2.5,0,4.3,1.2,5.4,2.8l-1.5,0.8c-0.8-1.2-2.3-2.1-4-2.1
    c-3.1,0-5.5,2.4-5.5,5.8c0,3.4,2.4,5.8,5.5,5.8c1.6,0,3.1-0.9,4-2.1l1.5,0.8c-1.2,1.7-2.9,2.9-5.5,2.9
    C106.9,76.1,103.7,73.1,103.7,68.7z"/>
  <path class="hover" style="fill:#666D7F;" d="M118.6,75.8V61.5h9.4v1.6h-7.6v4.6h7.5v1.6h-7.5v4.9h7.6v1.6H118.6z"/>
  <path class="hover" style="fill:#666D7F;" d="M136,75.8V61.5h5.8c2.9,0,4.5,2,4.5,4.3c0,2.3-1.6,4.3-4.5,4.3h-4v5.7H136z M144.4,65.8
    c0-1.6-1.2-2.7-2.9-2.7h-3.8v5.5h3.8C143.2,68.5,144.4,67.4,144.4,65.8z"/>
  <path class="hover" style="fill:#666D7F;" d="M148.1,75.8V61.5h1.8v12.7h6.7v1.6H148.1z"/>
  <path class="hover" style="fill:#666D7F;" d="M169,75.8l-1.3-3.2h-7.1l-1.3,3.2h-2l5.8-14.3h2.2l5.8,14.3H169z M164.1,63.3l-3,7.7h6.1L164.1,63.3
    z"/>
  <path class="hover" style="fill:#666D7F;" d="M171.3,68.7c0-4.4,3.2-7.4,7.4-7.4c2.5,0,4.3,1.2,5.4,2.8l-1.5,0.8c-0.8-1.2-2.3-2.1-4-2.1
    c-3.1,0-5.5,2.4-5.5,5.8c0,3.4,2.4,5.8,5.5,5.8c1.6,0,3.1-0.9,4-2.1l1.5,0.8c-1.2,1.7-2.9,2.9-5.5,2.9
    C174.6,76.1,171.3,73.1,171.3,68.7z"/>
  <path class="hover" style="fill:#666D7F;" d="M186.2,75.8V61.5h9.4v1.6H188v4.6h7.5v1.6H188v4.9h7.6v1.6H186.2z"/>
  <path class="hover" style="fill:#666D7F;" d="M208.4,75.8v-6.6H200v6.6h-1.8V61.5h1.8v6.2h8.4v-6.2h1.8v14.3H208.4z"/>
  <path class="hover" style="fill:#666D7F;" d="M212.7,68.7c0-4.2,2.9-7.4,7.1-7.4s7.1,3.2,7.1,7.4c0,4.2-2.9,7.4-7.1,7.4S212.7,72.9,212.7,68.7z
     M225.1,68.7c0-3.4-2.1-5.8-5.3-5.8c-3.2,0-5.3,2.5-5.3,5.8c0,3.3,2,5.8,5.3,5.8C223.1,74.5,225.1,72,225.1,68.7z"/>
  <path class="hover" style="fill:#666D7F;" d="M229.3,75.8V61.5h1.8v12.7h6.7v1.6H229.3z"/>
  <path class="hover" style="fill:#666D7F;" d="M239.9,75.8V61.5h4.9c4.5,0,7.4,3.1,7.4,7.2c0,4.1-2.9,7.2-7.4,7.2H239.9z M250.3,68.7
    c0-3.1-2-5.6-5.5-5.6h-3.1v11.2h3.1C248.3,74.2,250.3,71.7,250.3,68.7z"/>
  <path class="hover" style="fill:#666D7F;" d="M254.8,75.8V61.5h9.4v1.6h-7.6v4.6h7.5v1.6h-7.5v4.9h7.6v1.6H254.8z"/>
  <path class="hover" style="fill:#666D7F;" d="M275.1,75.8l-3.6-5.7h-2.9v5.7h-1.8V61.5h5.8c2.6,0,4.5,1.7,4.5,4.3c0,2.6-1.8,4-3.7,4.2l3.9,5.8
    H275.1z M275.2,65.8c0-1.6-1.2-2.7-2.9-2.7h-3.8v5.5h3.8C274,68.5,275.2,67.4,275.2,65.8z"/>
  <path class="hover" style="fill:#666D7F;" d="M278.8,73.8l1.1-1.4c0.9,1.1,2.5,2.1,4.5,2.1c2.6,0,3.4-1.4,3.4-2.5c0-3.7-8.5-1.6-8.5-6.8
    c0-2.4,2.1-4,4.9-4c2.2,0,3.9,0.8,5.1,2l-1.1,1.3c-1.1-1.2-2.6-1.7-4.1-1.7c-1.7,0-2.9,0.9-2.9,2.3c0,3.2,8.5,1.4,8.5,6.7
    c0,2.1-1.4,4.2-5.3,4.2C281.8,76.1,280,75.1,278.8,73.8z"/>
  <path class="hover" style="fill:#666D7F;" d="M292.7,62v4.2h-0.6V62h-1.3v-0.6h3.3V62H292.7z M298.8,66.2v-3.9l-1.6,3.9H297l-1.6-3.9v3.9h-0.6
    v-4.7h0.9l1.4,3.4l1.4-3.4h0.9v4.7H298.8z"/>
</g>
</svg>
