<svg viewBox="0 0 157 30" fill="none" xmlns="http://www.w3.org/2000/svg">
  <g class="pigeon hover">
    <path d="M33.414 27.7118C33.4319 27.7207 33.4492 27.7291 33.4671 27.7376C33.4682 27.7386 33.4692 27.7391 33.4708 27.7397C32.9466 27.5218 32.7913 27.4065 33.414 27.7118Z" fill="#F2663B"/>
    <path d="M23.5715 26.9462C23.4036 26.8183 23.3057 26.721 23.3057 26.721C23.3057 26.721 23.4178 26.822 23.5715 26.9462Z" fill="#F2663B"/>
    <path d="M35.1606 27.6784C35.8895 28.0184 36.5211 27.8484 37.0553 27.8484C37.5895 27.8484 37.8085 28.0674 37.6143 28.0916C37.4195 28.1158 36.9579 28.3342 36.9579 28.3342C36.4548 28.4706 35.8337 28.4216 35.2338 28.2979C35.2753 28.4484 35.1553 28.6484 34.9359 28.6911C34.0285 28.8669 32.9217 28.0037 32.9217 28.0037C32.9217 28.0037 32.338 27.8842 31.8848 27.8558C31.4317 27.8274 31.1201 28.309 30.8938 28.3937C30.7106 28.4627 30.3417 28.42 30.2075 28.4011C30.179 28.3974 30.1548 28.3727 30.1564 28.3437C30.1869 27.8205 31.5474 27.7 31.6301 27.2327C31.6559 27.0853 31.4638 26.9058 31.168 26.7169C31.3917 26.5079 31.4617 26.2237 31.4701 25.9732C32.5527 26.9369 34.6069 27.42 35.1606 27.6784Z" fill="#D75E45"/>
    <path d="M23.8489 25.2717C23.8037 25.3985 23.7816 25.5254 23.7868 25.6464C23.8153 26.298 24.6932 25.958 25.0042 26.1849C25.3158 26.4112 26.1368 26.3264 26.4484 26.3264C26.76 26.3264 26.8447 26.6943 26.6184 26.8643C26.3921 27.0343 25.1458 26.8643 25.4858 26.9491C25.8253 27.0343 26.0805 27.1759 26.5616 27.1759C27.0432 27.1759 27.1847 27.5154 27.0716 27.7985C26.9579 28.0817 25.4005 27.6854 24.6363 27.487C24.1879 27.3712 23.4037 26.8201 23.5716 26.948C23.6621 27.0212 23.7668 27.1022 23.8716 27.1759C24.1547 27.3738 24.3816 27.657 23.9284 27.9401C23.4753 28.2233 22.9658 27.4306 22.6258 27.1191C22.2863 26.8075 22.3426 26.3827 22.0311 26.3827C21.72 26.3827 21.2953 26.6375 20.8137 26.7227C20.3326 26.8075 19.9358 26.4112 19.9358 26.4112C20.219 25.7033 21.1816 25.8733 21.72 25.7033C21.8932 25.6485 22.019 25.5554 22.1142 25.4464C22.7605 25.6238 23.4132 25.4512 23.8489 25.2717Z" fill="#D75E45"/>
    <path d="M17.3875 13.2454C17.5007 13.2454 17.9538 13.1322 18.3217 13.1322C18.6901 13.1322 19.3043 13.5001 19.3128 13.7833C19.327 14.2364 19.2059 14.5607 19.3128 14.8875C19.3643 15.0443 19.5959 15.9922 19.6243 16.3033C19.6528 16.6148 20.4175 17.3227 20.6722 17.3227C20.927 17.3227 21.3517 17.8891 21.6912 18.3706C22.0312 18.8517 23.277 19.3612 23.447 19.588C23.617 19.8143 24.3249 19.9559 24.6928 20.0359C25.0612 20.1164 25.4006 20.4659 25.5991 20.3522C25.797 20.2391 26.1654 20.2959 26.618 20.4659C27.0712 20.6359 28.5717 19.588 28.5717 19.588C28.2891 20.3522 26.5333 21.0038 25.7122 21.1169C24.8912 21.2301 23.8149 20.9469 22.9654 20.9469C22.1159 20.9469 21.0543 20.3627 20.927 20.0127C20.7001 19.3896 19.6428 19.4769 19.2843 19.3048C18.5201 18.9364 18.237 18.257 18.3501 17.9175C18.4633 17.5775 18.067 16.9164 17.1043 16.3875C16.7417 16.1885 16.9343 15.3691 17.0196 15.1422C17.1043 14.9159 16.7643 14.4912 16.7643 14.038C16.7643 13.5854 16.2265 13.2738 16.2265 13.2738L15.9438 13.3028C17.1575 12.6349 18.2938 12.2828 18.2938 12.2828C17.9259 12.4822 17.2743 13.2454 17.3875 13.2454Z" fill="#423C3B"/>
    <path d="M29.8178 6.22039C30.4125 5.76566 29.9878 4.77776 30.8372 2.82408C31.6867 0.870404 32.9888 0.0777741 34.4899 0.0209321C35.9904 -0.0359099 36.953 0.728825 37.1799 1.01198C37.4062 1.29514 37.8025 2.62566 37.8309 2.82408C37.8504 2.95882 37.8572 3.01461 37.9041 3.03671C37.7214 3.07566 37.503 3.15724 37.2856 3.22777C36.893 3.35514 37.063 3.70514 37.1799 3.8525C37.2962 3.99987 37.4983 3.9604 37.4983 3.9604C37.6151 3.85408 38.082 3.7904 38.2099 3.81145C38.2541 3.81882 38.3135 3.81303 38.3725 3.80198C38.5162 3.94198 38.8793 4.31355 38.992 4.6004C39.1335 4.96092 39.2467 5.40092 39.1335 5.45724C39.0204 5.51408 38.4541 5.31566 38.2556 5.06092C38.0572 4.80619 37.6893 4.77776 37.0962 4.63619C36.503 4.49461 35.8772 4.80619 35.7641 5.00408C35.6509 5.2025 36.2735 6.44829 36.2735 6.44829C36.2735 6.44829 37.0662 8.91197 37.0946 9.56302C37.123 10.2141 37.1525 12.3978 37.1525 12.3978C37.122 13.4599 36.9235 14.3825 36.6225 15.1862C36.1499 15.3809 35.6462 15.5499 35.3393 15.5378C34.6314 15.5093 33.4704 14.603 32.2809 13.0178C31.092 11.432 30.0157 10.3278 29.4778 10.2994C28.9399 10.2709 28.742 9.7046 28.742 9.50618C28.742 9.30828 28.2888 9.50618 27.9488 9.50618C27.6093 9.50618 26.1551 9.11407 26.1178 8.6167C27.3315 7.92144 29.3662 6.56565 29.8178 6.22039Z" fill="#423C3B"/>
    <g opacity="0.509995">
    <g opacity="0.509995">
    <g opacity="0.509995">
    <path opacity="0.509995" d="M38.2098 3.81144C38.0824 3.78986 37.615 3.85407 37.4982 3.95986C37.4982 3.95986 37.2966 3.99934 37.1798 3.85249C37.0629 3.70513 36.8929 3.3546 37.2861 3.22723C37.5029 3.15723 37.7219 3.07565 37.904 3.03618C37.9261 3.04671 37.9555 3.05039 38.0008 3.05039C38.1424 3.05039 38.3687 3.39039 38.3687 3.50355C38.3687 3.61671 38.3124 3.7446 38.3124 3.7446C38.3124 3.7446 38.3355 3.76618 38.3724 3.80197C38.3134 3.81249 38.254 3.81881 38.2098 3.81144Z" fill="#B3B6B9"/>
    </g>
    </g>
    </g>
    <path d="M20.6721 22.1084C21.6916 20.8057 21.0968 21.2873 21.0968 21.2873C21.0968 21.2873 18.9732 21.1305 18.9732 20.8478C18.9732 20.8026 18.9032 20.7294 18.7853 20.6394C18.9047 20.5973 18.9732 20.5652 18.9732 20.5652C18.9732 20.5652 18.4068 19.8005 18.1521 19.6452C17.8974 19.4894 17.1611 18.8147 17.1611 18.6636C17.1611 18.5126 17.0758 18.2152 16.9063 18.1015C16.7363 17.9884 16.7221 17.7905 16.7221 17.5779C16.7221 17.3657 16.5521 17.2384 16.5379 16.9831C16.5237 16.7284 16.6795 16.1905 16.5379 16.0205C16.3963 15.851 16.3258 15.0152 16.4532 14.6047C16.5805 14.1942 16.5163 13.5015 16.1558 13.4442C16.0384 13.4252 15.9216 13.401 15.81 13.3794C15.8547 13.3542 15.8995 13.3273 15.9442 13.3031L16.2263 13.2742C16.2263 13.2742 16.7647 13.5858 16.7647 14.0384C16.7647 14.4915 17.1042 14.9163 17.0195 15.1431C16.9342 15.3694 16.7416 16.1889 17.1042 16.3879C18.0674 16.9168 18.4637 17.5778 18.35 17.9178C18.2368 18.2573 18.52 18.9373 19.2847 19.3052C19.6426 19.4773 20.7005 19.39 20.9268 20.0131C21.0542 20.3631 22.1163 20.9473 22.9658 20.9473C23.8153 20.9473 24.891 21.2305 25.7121 21.1173C26.5331 21.0042 28.2889 20.3531 28.5721 19.5884C28.5721 19.5884 27.071 20.6363 26.6184 20.4663C26.1652 20.2963 25.7974 20.2394 25.5989 20.3531C25.4005 20.4663 25.061 20.1168 24.6926 20.0363C24.3247 19.9563 23.6168 19.8147 23.4468 19.5884C23.2768 19.3615 22.031 18.8521 21.6916 18.371C21.3516 17.8894 20.9268 17.3231 20.6721 17.3231C20.4174 17.3231 19.6526 16.6152 19.6247 16.3036C19.5963 15.9926 19.4547 14.9731 19.3132 14.8879C19.1716 14.8031 19.1432 14.0105 19.3132 13.7836C19.4826 13.5573 18.69 13.1326 18.3221 13.1326C17.9537 13.1326 17.5011 13.2458 17.3874 13.2458C17.2742 13.2458 17.9263 12.4826 18.2937 12.2831L19.9642 11.3768C22.5974 9.56471 24.6926 9.16839 25.2874 9.02682C25.4305 8.99261 25.7331 8.83839 26.1179 8.61839C26.1552 9.11576 27.6095 9.50839 27.9489 9.50839C28.2889 9.50839 28.7421 9.30997 28.7421 9.50839C28.7421 9.70629 28.94 10.2726 29.4779 10.301C30.0158 10.3294 31.0921 11.4337 32.281 13.0194C33.4705 14.6047 34.6315 15.511 35.3394 15.5394C35.6463 15.5515 36.15 15.3826 36.6226 15.1879C35.4005 18.4457 32.451 19.72 31.8084 20.1484C31.0063 20.6831 30.5695 21.4605 30.1079 22.2621C29.6463 23.0636 30.5205 23.2094 30.8121 24.9099C30.8821 25.3178 31.1284 25.6694 31.47 25.9736C31.4616 26.2241 31.3916 26.5089 31.1679 26.7173C30.4984 26.2889 29.2958 25.8094 28.8837 25.5347C28.2889 25.1384 28.0342 24.9684 27.9774 24.572C27.9205 24.1752 27.071 23.6942 27.071 23.6942C26.7316 24.0905 26.2216 24.062 25.3726 24.1189C24.681 24.1647 24.0458 24.7178 23.8489 25.2726C23.4132 25.4526 22.7605 25.6252 22.1142 25.4473C22.3147 25.2173 22.3789 24.9147 22.4558 24.7415C22.5689 24.4868 22.711 24.232 22.371 23.892C22.031 23.5526 21.6063 23.4957 20.1342 23.411C19.3458 23.3652 19.0526 23.1578 18.8547 22.9747C19.55 22.8768 20.2579 22.6373 20.6721 22.1084Z" fill="#B3B6B9"/>
    <path d="M13.1686 18.286C12.7439 17.6628 12.2623 16.8702 12.5455 15.7944C12.5655 15.7197 12.5797 15.6486 12.5913 15.5807C12.9308 15.4039 13.3692 15.1049 14.1381 14.5307C14.2307 14.6918 14.3823 14.8786 14.3297 15.0155C14.2586 15.1997 13.3665 15.2423 13.3665 15.6386C13.3665 16.0349 13.2113 16.5007 13.466 16.7139C13.7207 16.927 14.386 17.6491 14.5702 17.9744C14.6571 18.1286 14.6297 18.546 14.7102 19.0081C14.075 18.8565 13.3971 18.6207 13.1686 18.286Z" fill="#B3B6B9"/>
    <path d="M13.3668 15.635C13.3668 15.2387 14.2589 15.196 14.3294 15.0118C14.382 14.875 14.2305 14.6882 14.1383 14.5276C14.3241 14.3892 14.5268 14.2366 14.7541 14.0634C15.092 13.8071 15.4526 13.5792 15.8099 13.3761C15.9215 13.3976 16.0383 13.4218 16.1557 13.4408C16.5162 13.4982 16.5804 14.1908 16.4531 14.6013C16.3257 15.0118 16.3968 15.8476 16.5378 16.0171C16.6794 16.1871 16.5241 16.725 16.5378 16.9797C16.552 17.235 16.722 17.3623 16.722 17.5744C16.722 17.7871 16.7362 17.985 16.9062 18.0981C17.0762 18.2118 17.161 18.5092 17.161 18.6602C17.161 18.8113 17.8973 19.486 18.152 19.6418C18.4068 19.7971 18.9731 20.5618 18.9731 20.5618C18.9731 20.5618 18.8078 20.6408 18.5252 20.7155C18.4957 20.7229 18.4657 20.7308 18.4336 20.7386C18.4131 20.7434 18.392 20.7476 18.3704 20.7523C18.3341 20.7608 18.2957 20.7681 18.2568 20.7755C18.2357 20.7792 18.2157 20.7834 18.1947 20.7871C18.1436 20.7955 18.0904 20.8034 18.0352 20.8108C18.0231 20.8123 18.012 20.8139 17.9999 20.8155C17.9299 20.8239 17.8568 20.8308 17.7804 20.836C17.7704 20.8365 17.7599 20.8365 17.7499 20.8371C17.6852 20.8408 17.6178 20.8434 17.5489 20.8434C17.5283 20.8439 17.5073 20.8434 17.4857 20.8434C17.4231 20.8429 17.3589 20.8408 17.2936 20.8371C17.272 20.836 17.2504 20.835 17.2289 20.8334C17.1473 20.8276 17.0647 20.8197 16.9794 20.8081C16.9741 20.8071 16.9694 20.8071 16.9641 20.806C16.8731 20.7939 16.7799 20.7771 16.6852 20.7571C16.6631 20.7523 16.6404 20.7465 16.6178 20.7413C16.5468 20.725 16.4741 20.7065 16.401 20.686C16.3699 20.6771 16.3383 20.6676 16.3068 20.6576C16.2373 20.636 16.1673 20.6118 16.0962 20.5855C16.0662 20.5744 16.0362 20.5639 16.0057 20.5523C15.9057 20.5129 15.8052 20.4697 15.7026 20.4202C15.6257 20.3829 15.5557 20.3423 15.4899 20.2992C15.4857 20.2965 15.481 20.2939 15.4773 20.2913C15.4152 20.2497 15.3589 20.2055 15.3062 20.1597C15.2999 20.1544 15.2931 20.1492 15.2868 20.1434C15.2373 20.0992 15.1926 20.0529 15.151 20.005C15.1436 19.9971 15.1362 19.9886 15.1294 19.9808C15.0904 19.9344 15.0552 19.8871 15.0231 19.8381C15.0152 19.8271 15.0078 19.8155 15.0004 19.8044C14.9715 19.7581 14.9447 19.7108 14.9199 19.6629C14.9126 19.6476 14.9047 19.6323 14.8973 19.6171C14.8762 19.5723 14.8568 19.5276 14.8394 19.4823C14.8315 19.4618 14.8241 19.4413 14.8168 19.4208C14.8031 19.3808 14.7894 19.3408 14.7778 19.3002C14.7699 19.2723 14.7626 19.2444 14.7557 19.2165C14.751 19.1981 14.7468 19.1792 14.7426 19.1608C14.622 18.6387 14.6668 18.1423 14.5699 17.9708C14.3862 17.6455 13.721 16.9234 13.4657 16.7102C13.211 16.4971 13.3668 16.0313 13.3668 15.635Z" fill="#423C3B"/>
    <path d="M17.2742 22.445C17.0758 22.4165 16.9342 22.105 16.5947 22.105C16.2547 22.105 15.8015 22.445 15.2073 22.6202C14.6126 22.795 14.3858 22.5013 14.2442 22.275C14.1031 22.0486 14.7542 21.7655 14.7542 21.7655C14.0463 21.7655 9.71419 22.0486 9.45945 21.7934C9.20419 21.5386 9.51577 21.2555 9.51577 21.2555C9.51577 21.2555 7.98683 21.3408 7.30735 21.5108C6.62788 21.6802 5.60841 21.7371 3.65473 22.2465C1.70105 22.7565 1.2479 22.615 0.936319 22.5581C0.624741 22.5013 0.00210793 22.0486 0.00210793 22.0486C-0.0547341 21.4823 1.04948 20.8876 1.92737 20.5197C2.72947 20.1834 2.89263 20.1776 2.91526 20.1792C2.91579 20.1797 2.91842 20.1797 2.91842 20.1797C2.91842 20.1797 2.91579 20.1797 2.91526 20.1792C2.87789 20.176 1.66789 20.0608 1.36105 19.6981C1.04947 19.3302 2.55052 18.8208 3.20157 18.5376C3.85262 18.2544 5.83472 17.7729 6.93946 17.2913C8.04367 16.8102 11.7526 15.9044 12.2342 15.7344C12.3468 15.6944 12.4621 15.6444 12.591 15.5771C12.5794 15.6455 12.5652 15.716 12.5458 15.7908C12.2626 16.8671 12.7437 17.6597 13.1684 18.2829C13.3968 18.6176 14.0747 18.8534 14.7105 19.005C14.8005 19.5208 15.0258 20.0929 15.7026 20.4202C17.1131 21.1029 18.3342 20.7955 18.7852 20.6365C18.9031 20.726 18.9731 20.7992 18.9731 20.8444C18.9731 21.1276 21.0968 21.2839 21.0968 21.2839C21.0968 21.2839 21.6915 20.8029 20.6721 22.105C20.2579 22.6339 19.55 22.8734 18.8547 22.9713C18.6831 22.8123 18.5831 22.6723 18.2936 22.6734C17.6705 22.675 17.4721 22.4734 17.2742 22.445Z" fill="#707070"/>
    <path d="M35.2826 2.8944C35.0562 2.82335 34.7294 2.45072 35.042 2.12967C35.321 1.84283 35.8468 1.98493 35.8652 2.44125C35.8841 2.90072 35.5089 2.96493 35.2826 2.8944Z" fill="#D75E45"/>
  </g>

  <g class="shuffle">
    <path class="hover" d="M57.8645 11.0857C57.8645 12.7226 57.2803 14.012 56.1113 14.9531C55.0534 15.822 53.7182 16.2568 52.1045 16.2568C51.2697 16.2568 50.4692 16.141 49.704 15.9104C48.7576 15.6362 48.0761 15.232 47.6587 14.6983C47.4224 14.3957 47.3045 14.0926 47.3045 13.7889C47.3045 13.2989 47.464 12.9162 47.7845 12.642C48.104 12.3684 48.5008 12.2305 48.9734 12.2305C49.224 12.2305 49.7529 12.3505 50.5597 12.5899C51.4224 12.8436 52.0971 12.971 52.5845 12.971C53.0571 12.971 53.4571 12.8294 53.7845 12.5468C54.1108 12.2647 54.275 11.8847 54.275 11.4062C54.275 10.7836 54.045 10.3347 53.5861 10.0594C53.1824 9.81309 52.5429 9.55257 51.6661 9.27678C50.3303 8.85731 49.3561 8.37889 48.7445 7.8431C47.8955 7.11942 47.4713 6.13468 47.4713 4.88889C47.4713 3.36784 48.0134 2.15837 49.0992 1.26048C50.114 0.420482 51.3666 0.000483478 52.8555 0.000483478C54.1076 0.000483478 55.0992 0.225219 55.8297 0.674692C56.5597 1.12469 56.925 1.65416 56.925 2.26364C56.925 3.26469 56.4103 3.76521 55.3808 3.76521C55.0745 3.76521 54.6471 3.67469 54.0976 3.49311C53.5476 3.31153 53.0987 3.221 52.7513 3.221C52.3055 3.221 51.9303 3.32258 51.6245 3.52521C51.2761 3.75732 51.1024 4.09732 51.1024 4.54626C51.1024 4.80731 51.165 5.03205 51.2903 5.21995C51.4571 5.46626 51.8397 5.70521 52.4382 5.93679C52.8834 6.08205 53.3287 6.22679 53.774 6.37152C55.0682 6.83521 56.0276 7.37836 56.6539 8.00099C57.4603 8.79783 57.8645 9.82573 57.8645 11.0857Z" fill="#373535"/>

    <path class="hover" d="M67.2971 9.64099V13.6889C67.2971 15.401 66.7198 16.2568 65.565 16.2568C64.4103 16.2568 63.8329 15.402 63.8329 13.692V2.56521C63.8329 0.855218 64.4103 0.000483478 65.565 0.000483478C66.7198 0.000483478 67.2971 0.856797 67.2971 2.56837V6.31152H73.6834V2.56837C73.6834 0.856797 74.2603 0.000483478 75.4155 0.000483478C76.5703 0.000483478 77.1482 0.855218 77.1482 2.56521V13.692C77.1482 15.402 76.5703 16.2568 75.4155 16.2568C74.2603 16.2568 73.6834 15.401 73.6834 13.6889V9.64099H67.2971Z" fill="#373535"/>

    <path class="hover" d="M84.0344 8.9763V2.56473C84.0344 0.855263 84.6117 1.27127e-06 85.7665 1.27127e-06C86.9212 1.27127e-06 87.4986 0.854736 87.4986 2.56368V8.55998C87.4986 11.37 88.5212 12.7747 90.5665 12.7747C92.6117 12.7747 93.6344 11.37 93.6344 8.55998V2.56368C93.6344 0.854736 94.2117 1.27127e-06 95.3665 1.27127e-06C96.5217 1.27127e-06 97.0986 0.855263 97.0986 2.56473V8.9763C97.0986 11.2073 96.5491 12.9605 95.4501 14.2358C94.3091 15.5831 92.6817 16.2568 90.5665 16.2568C88.4517 16.2568 86.8238 15.5831 85.6833 14.2358C84.5839 12.9605 84.0344 11.2073 84.0344 8.9763Z" fill="#373535"/>

    <path class="hover" d="M110.289 0.19631C111.93 0.19631 112.751 0.762098 112.751 1.8942C112.751 3.01157 111.93 3.56946 110.289 3.56946H107.45V6.39893H109.892C111.533 6.39893 112.355 6.95366 112.355 8.06366C112.355 9.17366 111.533 9.72839 109.892 9.72839H107.45V13.6889C107.45 15.401 106.873 16.2568 105.718 16.2568C104.563 16.2568 103.986 15.4021 103.986 13.6926V2.73946C103.986 1.79736 104.159 1.13841 104.508 0.761571C104.855 0.38473 105.481 0.19631 106.386 0.19631H110.289Z" fill="#373535"/>

    <path class="hover" d="M124.918 0.19631C126.56 0.19631 127.381 0.762098 127.381 1.8942C127.381 3.01157 126.56 3.56946 124.918 3.56946H122.08V6.39893H124.522C126.163 6.39893 126.985 6.95366 126.985 8.06366C126.985 9.17366 126.163 9.72839 124.522 9.72839H122.08V13.6889C122.08 15.401 121.503 16.2568 120.348 16.2568C119.193 16.2568 118.616 15.4021 118.616 13.6926V2.73946C118.616 1.79736 118.789 1.13841 119.138 0.761571C119.485 0.38473 120.111 0.19631 121.016 0.19631H124.918Z" fill="#373535"/>

    <path class="hover" d="M133.245 2.56895C133.245 0.857375 133.823 0.00106164 134.978 0.00106164C136.132 0.00106164 136.71 0.858428 136.71 2.57316V12.7537H139.653C141.294 12.7537 142.115 13.3084 142.115 14.4184C142.115 15.5284 141.294 16.0831 139.653 16.0831H135.603C134.727 16.0831 134.114 15.9273 133.767 15.6152C133.419 15.3037 133.245 14.6979 133.245 13.7979V2.56895Z" fill="#373535"/>

    <path class="hover" d="M153.593 0.196309C155.234 0.196309 156.056 0.762097 156.056 1.8942C156.056 3.01157 155.234 3.56946 153.593 3.56946H150.754V6.39893H153.196C154.838 6.39893 155.659 6.95366 155.659 8.06366C155.659 9.17366 154.838 9.72839 153.196 9.72839H150.754V12.7531H153.698C155.339 12.7531 156.16 13.3084 156.16 14.4179C156.16 15.5279 155.339 16.0831 153.698 16.0831H149.649C148.772 16.0831 148.16 15.9273 147.812 15.6147C147.464 15.3031 147.29 14.6973 147.29 13.7979V2.74262C147.29 1.79946 147.464 1.13946 147.812 0.762097C148.16 0.385256 148.786 0.196309 149.691 0.196309H153.593Z" fill="#373535"/>
  </g>

  <g class="nyc">
    <path class="hover" d="M54.6032 29.0135C54.3853 29.6493 52.2953 28.9683 52.4037 28.1277C52.3168 27.7646 52.2295 26.5388 52.1426 25.2672C52.1211 25.0178 52.1426 24.8588 51.8816 25.2672C50.9021 26.902 50.009 28.5367 49.8784 29.0135C49.6605 29.6946 47.0263 28.7862 47.4184 27.8783C48.3326 25.8577 50.51 22.7246 51.5332 21.4078C52.0121 20.6362 54.2111 21.5667 54.059 22.0435C54.1021 22.3614 54.1458 23.1104 54.1895 23.9962C54.2111 24.3593 54.2332 24.382 54.4505 23.9962C55.06 22.9514 55.6263 21.9751 56.0395 21.3625C56.5411 20.5451 59.1537 21.6346 58.7395 22.0888C57.3247 23.8146 54.8642 28.1735 54.6032 29.0135Z" fill="#F2663B"/>

    <path class="hover" d="M68.2557 21.2489C68.6257 20.931 70.8031 21.2489 70.6941 22.1116C69.4746 23.2016 64.9246 28.1736 63.9452 29.7173C63.2699 29.5131 62.1599 28.1736 62.5078 27.6058C62.7694 27.1515 63.2915 26.6526 63.8362 26.0621C63.6399 24.7 63.4441 22.7021 63.7488 21.771C63.9452 21.1126 66.4051 20.8405 66.2525 21.4758C66.1436 21.8621 65.9478 22.77 65.8825 23.61C65.8825 23.6326 65.8388 23.9279 66.0351 23.701C66.8625 22.7247 67.7336 21.7258 68.2557 21.2489Z" fill="#F2663B"/>

    <path class="hover" d="M76.7045 26.9705C76.7045 27.1521 76.8134 27.22 76.8787 27.2431C77.314 27.4015 79.1434 26.7205 79.8834 25.4036C80.4055 25.0631 81.255 27.2884 80.9934 27.6742C79.8613 29.3089 77.9234 29.7173 77.0966 29.7173C76.2477 29.7173 73.9398 28.5368 73.9398 26.9252C73.9398 23.9284 76.9008 20.9768 79.2955 20.9768C81.6471 20.9768 82.8661 22.7931 82.8661 23.5647C82.8661 24.1326 82.104 25.1768 81.4729 25.1768C80.7103 25.1768 79.3608 24.2915 79.3608 24.1326V24.1094C79.6877 23.7921 80.6671 23.0884 80.6671 22.7479C80.6671 22.7479 80.6671 22.6342 80.6019 22.6342C78.9471 22.6342 76.7045 25.8805 76.7045 26.9705Z" fill="#F2663B"/>
  </g>
</svg>
