<svg width="400" height="30" viewBox="0 0 156.711 30" version="2.0" xmlns="http://www.w3.org/2000/svg" xmlns:xlink="http://www.w3.org/1999/xlink" xmlns:figma="http://www.figma.com/figma/ns">
  <g id="Canvas" transform="matrix(0.394737 0 0 0.394737 -43.8158 772.895)" figma:type="canvas">
    <g id="logo4" style="mix-blend-mode:normal;" figma:type="group">
      <g class="pigeon hover">
        <g style="mix-blend-mode:normal;" figma:type="group">
          <g id="path1446" style="mix-blend-mode:normal;" figma:type="vector">
            <use xlink:href="#path0_fill" transform="matrix(1.33333 0 0 -1.33333 200.366 -1886.13)" fill="#F2663B" style="mix-blend-mode:normal;"></use>
          </g>
        </g>

        <g style="mix-blend-mode:normal;" figma:type="group">
          <g style="mix-blend-mode:normal;" figma:type="group">
            <g style="mix-blend-mode:normal;" opacity="0.460007" figma:type="group">
              <g style="mix-blend-mode:normal;" opacity="0.460007" figma:type="group">
                <g id="path1456" style="mix-blend-mode:normal;" opacity="0.460007" figma:type="vector">
                  <use xlink:href="#path1_fill" transform="matrix(1.33333 0 0 -1.33333 119.383 -1906.69)" fill="#F2663B" style="mix-blend-mode:normal;"></use>
                </g>
              </g>
            </g>
          </g>
        </g>

        <g style="mix-blend-mode:normal;" figma:type="group">
          <g id="path1466" style="mix-blend-mode:normal;" figma:type="vector">
            <use xlink:href="#path2_fill" transform="matrix(1.33333 0 0 -1.33333 195.62 -1887.54)" fill="#F2663B" style="mix-blend-mode:normal;"></use>
          </g>
        </g>
        <g style="mix-blend-mode:normal;" figma:type="group">
          <g id="path1470" style="mix-blend-mode:normal;" figma:type="vector">
            <use xlink:href="#path3_fill" transform="matrix(1.33333 0 0 -1.33333 171.039 -1889.55)" fill="#F2663B" style="mix-blend-mode:normal;"></use>
          </g>
        </g>
        <g style="mix-blend-mode:normal;" figma:type="group">
          <g id="path1474" style="mix-blend-mode:normal;" figma:type="vector">
            <use xlink:href="#path4_fill" transform="matrix(1.33333 0 0 -1.33333 188.394 -1885.07)" fill="#D75E45" style="mix-blend-mode:normal;"></use>
          </g>
        </g>
        <g style="mix-blend-mode:normal;" figma:type="group">
          <g id="path1478" style="mix-blend-mode:normal;" figma:type="vector">
            <use xlink:href="#path5_fill" transform="matrix(1.33333 0 0 -1.33333 162.502 -1886.88)" fill="#D75E45" style="mix-blend-mode:normal;"></use>
          </g>
        </g>
        <g style="mix-blend-mode:normal;" figma:type="group">
          <g id="path1482" style="mix-blend-mode:normal;" figma:type="vector">
            <use xlink:href="#path6_fill" transform="matrix(1.33333 0 0 -1.33333 152.389 -1904.25)" fill="#423C3B" style="mix-blend-mode:normal;"></use>
          </g>
        </g>
        <g style="mix-blend-mode:normal;" figma:type="group">
          <g id="path1486" style="mix-blend-mode:normal;" figma:type="vector">
            <use xlink:href="#path7_fill" transform="matrix(1.33333 0 0 -1.33333 178.163 -1918.45)" fill="#423C3B" style="mix-blend-mode:normal;"></use>
          </g>
        </g>
        <g style="mix-blend-mode:normal;" figma:type="group">
          <g style="mix-blend-mode:normal;" figma:type="group">
            <g style="mix-blend-mode:normal;" opacity="0.509995" figma:type="group">
              <g style="mix-blend-mode:normal;" opacity="0.509995" figma:type="group">
                <g id="path1496" style="mix-blend-mode:normal;" opacity="0.509995" figma:type="vector">
                  <use xlink:href="#path8_fill" transform="matrix(1.33333 0 0 -1.33333 205.835 -1947.77)" fill="#B3B6B9" style="mix-blend-mode:normal;"></use>
                </g>
              </g>
            </g>
          </g>
        </g>
        <g style="mix-blend-mode:normal;" figma:type="group">
          <g id="path1506" style="mix-blend-mode:normal;" figma:type="vector">
            <use xlink:href="#path9_fill" transform="matrix(1.33333 0 0 -1.33333 152.05 -1890.13)" fill="#B3B6B9" style="mix-blend-mode:normal;"></use>
          </g>
        </g>
        <g style="mix-blend-mode:normal;" figma:type="group">
          <g id="path1510" style="mix-blend-mode:normal;" figma:type="vector">
            <use xlink:href="#path10_fill" transform="matrix(1.33333 0 0 -1.33333 143.565 -1909.66)" fill="#B3B6B9" style="mix-blend-mode:normal;"></use>
          </g>
        </g>
        <g style="mix-blend-mode:normal;" figma:type="group">
          <g id="path1514" style="mix-blend-mode:normal;" figma:type="vector">
            <use xlink:href="#path11_fill" transform="matrix(1.33333 0 0 -1.33333 145.741 -1905.01)" fill="#423C3B" style="mix-blend-mode:normal;"></use>
          </g>
        </g>
        <g style="mix-blend-mode:normal;" figma:type="group">
          <g id="path1518" style="mix-blend-mode:normal;" figma:type="vector">
            <use xlink:href="#path12_fill" transform="matrix(1.33333 0 0 -1.33333 111.998 -1899.62)" fill="#707070" style="mix-blend-mode:normal;"></use>
          </g>
        </g>
        <g style="mix-blend-mode:normal;" figma:type="group">
          <g id="path1522" style="mix-blend-mode:normal;" figma:type="vector">
            <use xlink:href="#path13_fill" transform="matrix(1.33333 0 0 -1.33333 200.445 -1950.42)" fill="#D75E45" style="mix-blend-mode:normal;"></use>
          </g>
        </g>
      </g>

      <g class="shuffle">
        <g style="mix-blend-mode:normal;" figma:type="group">
          <g class="hover" id="path1526" style="mix-blend-mode:normal;" figma:type="vector">
            <use xlink:href="#path14_fill" transform="matrix(1.33333 0 0 -1.33333 231.836 -1916.63)" fill="#373535" style="mix-blend-mode:normal;"></use>
          </g>
        </g>
        <g style="mix-blend-mode:normal;" figma:type="group">
          <g class="hover" id="path1530" style="mix-blend-mode:normal;" figma:type="vector">
            <use xlink:href="#path15_fill" transform="matrix(1.33333 0 0 -1.33333 273.708 -1916.63)" fill="#373535" style="mix-blend-mode:normal;"></use>
          </g>
        </g>
        <g style="mix-blend-mode:normal;" figma:type="group">
          <g class="hover" id="path1534" style="mix-blend-mode:normal;" figma:type="vector">
            <use xlink:href="#path16_fill" transform="matrix(1.33333 0 0 -1.33333 324.885 -1916.63)" fill="#373535" style="mix-blend-mode:normal;"></use>
          </g>
        </g>
        <g style="mix-blend-mode:normal;" figma:type="group">
          <g class="hover" id="path1538" style="mix-blend-mode:normal;" figma:type="vector">
            <use xlink:href="#path17_fill" transform="matrix(1.33333 0 0 -1.33333 375.428 -1916.63)" fill="#373535" style="mix-blend-mode:normal;"></use>
          </g>
        </g>
        <g style="mix-blend-mode:normal;" figma:type="group">
          <g class="hover" id="path1542" style="mix-blend-mode:normal;" figma:type="vector">
            <use xlink:href="#path18_fill" transform="matrix(1.33333 0 0 -1.33333 412.491 -1916.63)" fill="#373535" style="mix-blend-mode:normal;"></use>
          </g>
        </g>
        <g style="mix-blend-mode:normal;" figma:type="group">
          <g class="hover" id="path1546" style="mix-blend-mode:normal;" figma:type="vector">
            <use xlink:href="#path19_fill" transform="matrix(1.33333 0 0 -1.33333 449.553 -1917.07)" fill="#373535" style="mix-blend-mode:normal;"></use>
          </g>
        </g>
        <g style="mix-blend-mode:normal;" figma:type="group">
          <g class="hover" id="path1550" style="mix-blend-mode:normal;" figma:type="vector">
            <use xlink:href="#path20_fill" transform="matrix(1.33333 0 0 -1.33333 485.133 -1917.07)" fill="#373535" style="mix-blend-mode:normal;"></use>
          </g>
        </g>
      </g>

      <g class="nyc">
        <g style="mix-blend-mode:normal;" figma:type="group">
          <g class="hover" id="path1554" style="mix-blend-mode:normal;" figma:type="vector">
            <use xlink:href="#path21_fill" transform="matrix(1.33333 0 0 -1.33333 232.024 -1883.68)" fill="#F2663B" style="mix-blend-mode:normal;"></use>
          </g>
        </g>
        <g style="mix-blend-mode:normal;" figma:type="group">
          <g class="hover" id="path1558" style="mix-blend-mode:normal;" figma:type="vector">
            <use xlink:href="#path22_fill" transform="matrix(1.33333 0 0 -1.33333 270.184 -1882.53)" fill="#F2663B" style="mix-blend-mode:normal;"></use>
          </g>
        </g>
        <g style="mix-blend-mode:normal;" figma:type="group">
          <g class="hover" id="path1562" style="mix-blend-mode:normal;" figma:type="vector">
            <use xlink:href="#path23_fill" transform="matrix(1.33333 0 0 -1.33333 299.312 -1882.53)" fill="#F2663B" style="mix-blend-mode:normal;"></use>
          </g>
        </g>
      </g>
    </g>
  </g>

  <defs>
    <g class="pigeon-defs">
      <path id="path0_fill" d="M 0.546 0.14C 0.617 0.105 0.653 0.056 0.668 0C 0.443 0.046 0.22 0.099 0 0.155C 0.268 0.16 0.365 0.23 0.546 0.14Z"></path>
      <path id="path1_fill" d="M 0 0.001C 0.004 0.001 0.007 0 0.007 0C 0.007 0 0.001 0.001 0 0.001Z"></path>
      <path id="path2_fill" d="M 0.770038 0.053C 0.804038 0.036 0.837038 0.02 0.871038 0.004C 0.873038 0.002 0.875038 0.001 0.878038 0C -0.117962 0.414 -0.412962 0.633 0.770038 0.053Z"></path>
      <path id="path3_fill" d="M 0.505 0C 0.186 0.243 0 0.428 0 0.428C 0 0.428 0.213 0.236 0.505 0Z"></path>
      <path id="path4_fill" d="M 9.50814 1.96888C 10.8931 1.32288 12.0931 1.64588 13.1081 1.64588C 14.1231 1.64588 14.5391 1.22988 14.1701 1.18388C 13.8001 1.13788 12.9231 0.722875 12.9231 0.722875C 11.9671 0.463875 10.7871 0.556875 9.64714 0.791875C 9.72614 0.505875 9.49814 0.125875 9.08114 0.0448752C 7.35714 -0.289125 5.25414 1.35088 5.25414 1.35088C 5.25414 1.35088 4.14514 1.57788 3.28414 1.63188C 2.42314 1.68588 1.83114 0.770875 1.40114 0.609875C 1.05314 0.478875 0.352139 0.559875 0.097139 0.595875C 0.043139 0.602875 -0.00286105 0.649875 0.000138954 0.704875C 0.058139 1.69888 2.64314 1.92788 2.80014 2.81588C 2.84914 3.09588 2.48414 3.43688 1.92214 3.79588C 2.34714 4.19288 2.48014 4.73288 2.49614 5.20888C 4.55314 3.37788 8.45614 2.45988 9.50814 1.96888Z"></path>
      <path id="path5_fill" d="M 7.435 5.18415C 7.349 4.94315 7.307 4.70215 7.317 4.47215C 7.371 3.23415 9.039 3.88015 9.63 3.44915C 10.222 3.01915 11.782 3.18015 12.374 3.18015C 12.966 3.18015 13.127 2.48115 12.697 2.15815C 12.267 1.83515 9.899 2.15815 10.545 1.99715C 11.19 1.83515 11.675 1.56615 12.589 1.56615C 13.504 1.56615 13.773 0.921148 13.558 0.383148C 13.342 -0.154852 10.383 0.598148 8.931 0.975148C 8.079 1.19515 6.589 2.24215 6.908 1.99915C 7.08 1.86015 7.279 1.70615 7.478 1.56615C 8.016 1.19015 8.447 0.652148 7.586 0.114148C 6.725 -0.423852 5.757 1.08215 5.111 1.67415C 4.466 2.26615 4.573 3.07315 3.981 3.07315C 3.39 3.07315 2.583 2.58915 1.668 2.42715C 0.754 2.26615 0 3.01915 0 3.01915C 0.538 4.36415 2.367 4.04115 3.39 4.36415C 3.719 4.46815 3.958 4.64515 4.139 4.85215C 5.367 4.51515 6.607 4.84315 7.435 5.18415Z"></path>
      <path id="path6_fill" d="M 2.743 15.0067C 2.958 15.0067 3.819 15.2217 4.518 15.2217C 5.218 15.2217 6.385 14.5227 6.401 13.9847C 6.428 13.1237 6.198 12.5077 6.401 11.8867C 6.499 11.5887 6.939 9.78773 6.993 9.19673C 7.047 8.60473 8.5 7.25973 8.984 7.25973C 9.468 7.25973 10.275 6.18373 10.92 5.26873C 11.566 4.35473 13.933 3.38673 14.256 2.95573C 14.579 2.52573 15.924 2.25673 16.623 2.10473C 17.323 1.95173 17.968 1.28773 18.345 1.50373C 18.721 1.71873 19.421 1.61073 20.281 1.28773C 21.142 0.964727 23.993 2.95573 23.993 2.95573C 23.456 1.50373 20.12 0.265727 18.56 0.0507269C 17 -0.164273 14.955 0.373727 13.341 0.373727C 11.727 0.373727 9.71 1.48373 9.468 2.14873C 9.037 3.33273 7.028 3.16673 6.347 3.49373C 4.895 4.19373 4.357 5.48473 4.572 6.12973C 4.787 6.77573 4.034 8.03173 2.205 9.03673C 1.516 9.41473 1.882 10.9717 2.044 11.4027C 2.205 11.8327 1.559 12.6397 1.559 13.5007C 1.559 14.3607 0.537 14.9527 0.537 14.9527L 0 14.8977C 2.306 16.1667 4.465 16.8357 4.465 16.8357C 3.766 16.4567 2.528 15.0067 2.743 15.0067Z"></path>
      <path id="path7_fill" d="M 7.03 17.7042C 8.16 18.5682 7.353 20.4452 8.967 24.1572C 10.581 27.8692 13.055 29.3752 15.907 29.4832C 18.758 29.5912 20.587 28.1382 21.018 27.6002C 21.448 27.0622 22.201 24.5342 22.255 24.1572C 22.292 23.9012 22.305 23.7952 22.394 23.7532C 22.047 23.6792 21.632 23.5242 21.219 23.3902C 20.473 23.1482 20.796 22.4832 21.018 22.2032C 21.239 21.9232 21.623 21.9982 21.623 21.9982C 21.845 22.2002 22.732 22.3212 22.975 22.2812C 23.059 22.2672 23.172 22.2782 23.284 22.2992C 23.557 22.0332 24.247 21.3272 24.461 20.7822C 24.73 20.0972 24.945 19.2612 24.73 19.1542C 24.515 19.0462 23.439 19.4232 23.062 19.9072C 22.685 20.3912 21.986 20.4452 20.859 20.7142C 19.732 20.9832 18.543 20.3912 18.328 20.0152C 18.113 19.6382 19.296 17.2712 19.296 17.2712C 19.296 17.2712 20.802 12.5902 20.856 11.3532C 20.91 10.1162 20.966 5.96716 20.966 5.96716C 20.908 3.94916 20.531 2.19616 19.959 0.669165C 19.061 0.299165 18.104 -0.0218354 17.521 0.00116461C 16.176 0.0551646 13.97 1.77716 11.71 4.78916C 9.451 7.80216 7.406 9.90016 6.384 9.95416C 5.362 10.0082 4.986 11.0842 4.986 11.4612C 4.986 11.8372 4.125 11.4612 3.479 11.4612C 2.834 11.4612 0.071 12.2062 0 13.1512C 2.306 14.4722 6.172 17.0482 7.03 17.7042Z"></path>
      <path id="path8_fill" d="M 2.22076 0.291169C 1.97876 0.332169 1.09076 0.210169 0.868758 0.00916915C 0.868758 0.00916915 0.485758 -0.0658309 0.263758 0.213169C 0.0417578 0.493169 -0.281242 1.15917 0.465758 1.40117C 0.877758 1.53417 1.29376 1.68917 1.63976 1.76417C 1.68176 1.74417 1.73776 1.73717 1.82376 1.73717C 2.09276 1.73717 2.52276 1.09117 2.52276 0.876169C 2.52276 0.661169 2.41576 0.418169 2.41576 0.418169C 2.41576 0.418169 2.45976 0.377169 2.52976 0.309169C 2.41776 0.289169 2.30476 0.277169 2.22076 0.291169Z"></path>
      <path id="path9_fill" d="M 9.238 8.757C 11.175 11.232 10.045 10.317 10.045 10.317C 10.045 10.317 6.01 10.615 6.01 11.152C 6.01 11.238 5.877 11.377 5.653 11.548C 5.88 11.628 6.01 11.689 6.01 11.689C 6.01 11.689 4.934 13.142 4.45 13.437C 3.966 13.733 2.567 15.015 2.567 15.302C 2.567 15.589 2.405 16.154 2.083 16.37C 1.76 16.585 1.733 16.961 1.733 17.365C 1.733 17.768 1.41 18.01 1.383 18.495C 1.356 18.979 1.652 20.001 1.383 20.324C 1.114 20.646 0.98 22.234 1.222 23.014C 1.464 23.794 1.342 25.11 0.657 25.219C 0.434 25.255 0.212 25.301 0 25.342C 0.085 25.39 0.17 25.441 0.255 25.487L 0.791 25.542C 0.791 25.542 1.814 24.95 1.814 24.09C 1.814 23.229 2.459 22.422 2.298 21.991C 2.136 21.561 1.77 20.004 2.459 19.626C 4.289 18.621 5.042 17.365 4.826 16.719C 4.611 16.074 5.149 14.782 6.602 14.083C 7.282 13.756 9.292 13.922 9.722 12.738C 9.964 12.073 11.982 10.963 13.596 10.963C 15.21 10.963 17.254 10.425 18.814 10.64C 20.374 10.855 23.71 12.092 24.248 13.545C 24.248 13.545 21.396 11.554 20.536 11.877C 19.675 12.2 18.976 12.308 18.599 12.092C 18.222 11.877 17.577 12.541 16.877 12.694C 16.178 12.846 14.833 13.115 14.51 13.545C 14.187 13.976 11.82 14.944 11.175 15.858C 10.529 16.773 9.722 17.849 9.238 17.849C 8.754 17.849 7.301 19.194 7.248 19.786C 7.194 20.377 6.925 22.314 6.656 22.476C 6.387 22.637 6.333 24.143 6.656 24.574C 6.978 25.004 5.472 25.811 4.773 25.811C 4.073 25.811 3.213 25.596 2.997 25.596C 2.782 25.596 4.021 27.046 4.719 27.425L 7.893 29.147C 12.896 32.59 16.877 33.343 18.007 33.612C 18.279 33.677 18.854 33.97 19.585 34.388C 19.656 33.443 22.419 32.697 23.064 32.697C 23.71 32.697 24.571 33.074 24.571 32.697C 24.571 32.321 24.947 31.245 25.969 31.191C 26.991 31.137 29.036 29.039 31.295 26.026C 33.555 23.014 35.761 21.292 37.106 21.238C 37.689 21.215 38.646 21.536 39.544 21.906C 37.222 15.716 31.618 13.295 30.397 12.481C 28.873 11.465 28.043 9.988 27.166 8.465C 26.289 6.942 27.95 6.665 28.504 3.434C 28.637 2.659 29.105 1.991 29.754 1.413C 29.738 0.937 29.605 0.396 29.18 0C 27.908 0.814 25.623 1.725 24.84 2.247C 23.71 3 23.226 3.323 23.118 4.076C 23.01 4.83 21.396 5.744 21.396 5.744C 20.751 4.991 19.782 5.045 18.169 4.937C 16.855 4.85 15.648 3.799 15.274 2.745C 14.446 2.403 13.206 2.075 11.978 2.413C 12.359 2.85 12.481 3.425 12.627 3.754C 12.842 4.238 13.112 4.722 12.466 5.368C 11.82 6.013 11.013 6.121 8.216 6.282C 6.718 6.369 6.161 6.763 5.785 7.111C 7.106 7.297 8.451 7.752 9.238 8.757Z"></path>
      <path id="path10_fill" d="M 1.34517 1.372C 0.538172 2.556 -0.376828 4.062 0.161172 6.106C 0.199172 6.248 0.226172 6.383 0.248172 6.512C 0.893172 6.848 1.72617 7.416 3.18717 8.507C 3.36317 8.201 3.65117 7.846 3.55117 7.586C 3.41617 7.236 1.72117 7.155 1.72117 6.402C 1.72117 5.649 1.42617 4.764 1.91017 4.359C 2.39417 3.954 3.65817 2.582 4.00817 1.964C 4.17317 1.671 4.12117 0.878 4.27417 0C 3.06717 0.288 1.77917 0.736 1.34517 1.372Z"></path>
      <path id="path11_fill" d="M 0.0896005 9.89644C 0.0896005 10.6494 1.7846 10.7304 1.9186 11.0804C 2.0186 11.3404 1.7306 11.6954 1.5556 12.0004C 1.9086 12.2634 2.2936 12.5534 2.7256 12.8824C 3.3676 13.3694 4.0526 13.8024 4.7316 14.1884C 4.9436 14.1474 5.1656 14.1014 5.3886 14.0654C 6.0736 13.9564 6.1956 12.6404 5.9536 11.8604C 5.7116 11.0804 5.8466 9.49244 6.1146 9.17044C 6.3836 8.84744 6.0886 7.82544 6.1146 7.34144C 6.1416 6.85644 6.4646 6.61444 6.4646 6.21144C 6.4646 5.80744 6.4916 5.43144 6.8146 5.21644C 7.1376 5.00044 7.2986 4.43544 7.2986 4.14844C 7.2986 3.86144 8.6976 2.57944 9.1816 2.28344C 9.6656 1.98844 10.7416 0.535444 10.7416 0.535444C 10.7416 0.535444 10.4276 0.385444 9.8906 0.243444C 9.8346 0.229444 9.7776 0.214444 9.7166 0.199444C 9.6776 0.190444 9.6376 0.182444 9.5966 0.173444C 9.5276 0.157444 9.4546 0.143444 9.3806 0.129444C 9.3406 0.122444 9.3026 0.114444 9.2626 0.107444C 9.1656 0.0914444 9.0646 0.0764444 8.9596 0.0624444C 8.9366 0.0594444 8.9156 0.0564444 8.8926 0.0534444C 8.7596 0.0374444 8.6206 0.0244444 8.4756 0.0144444C 8.4566 0.0134444 8.4366 0.0134444 8.4176 0.0124444C 8.2946 0.00544444 8.1666 0.000444444 8.0356 0.000444444C 7.9966 -0.000555556 7.9566 0.000444444 7.9156 0.000444444C 7.7966 0.00144444 7.6746 0.00544444 7.5506 0.0124444C 7.5096 0.0144444 7.4686 0.0164444 7.4276 0.0194444C 7.2726 0.0304444 7.1156 0.0454444 6.9536 0.0674444C 6.9436 0.0694444 6.9346 0.0694444 6.9246 0.0714444C 6.7516 0.0944444 6.5746 0.126444 6.3946 0.164444C 6.3526 0.173444 6.3096 0.184444 6.2666 0.194444C 6.1316 0.225444 5.9936 0.260444 5.8546 0.299444C 5.7956 0.316444 5.7356 0.334444 5.6756 0.353444C 5.5436 0.394444 5.4106 0.440444 5.2756 0.490444C 5.2186 0.511444 5.1616 0.531444 5.1036 0.553444C 4.9136 0.628444 4.7226 0.710444 4.5276 0.804444C 4.3816 0.875444 4.2486 0.952444 4.1236 1.03444C 4.1156 1.03944 4.1066 1.04444 4.0996 1.04944C 3.9816 1.12844 3.8746 1.21244 3.7746 1.29944C 3.7626 1.30944 3.7496 1.31944 3.7376 1.33044C 3.6436 1.41444 3.5586 1.50244 3.4796 1.59344C 3.4656 1.60844 3.4516 1.62444 3.4386 1.63944C 3.3646 1.72744 3.2976 1.81744 3.2366 1.91044C 3.2216 1.93144 3.2076 1.95344 3.1936 1.97444C 3.1386 2.06244 3.0876 2.15244 3.0406 2.24344C 3.0266 2.27244 3.0116 2.30144 2.9976 2.33044C 2.9576 2.41544 2.9206 2.50044 2.8876 2.58644C 2.8726 2.62544 2.8586 2.66444 2.8446 2.70344C 2.8186 2.77944 2.7926 2.85544 2.7706 2.93244C 2.7556 2.98544 2.7416 3.03844 2.7286 3.09144C 2.7196 3.12644 2.7116 3.16244 2.7036 3.19744C 2.4746 4.18944 2.5596 5.13244 2.3756 5.45844C 2.0266 6.07644 0.762601 7.44844 0.277601 7.85344C -0.206399 8.25844 0.0896005 9.14344 0.0896005 9.89644Z"></path>
      <path id="path12_fill" d="M 32.821 1C 32.444 1.054 32.175 1.646 31.53 1.646C 30.884 1.646 30.023 1 28.894 0.667C 27.764 0.335 27.333 0.893 27.064 1.323C 26.796 1.753 28.033 2.291 28.033 2.291C 26.688 2.291 18.457 1.753 17.973 2.238C 17.488 2.722 18.08 3.26 18.08 3.26C 18.08 3.26 15.175 3.098 13.884 2.775C 12.593 2.453 10.656 2.345 6.94401 1.377C 3.23201 0.408 2.37101 0.677 1.77901 0.785C 1.18701 0.893 0.00400509 1.753 0.00400509 1.753C -0.103995 2.829 1.99401 3.959 3.66201 4.658C 5.18601 5.297 5.49601 5.308 5.53901 5.305C 5.54001 5.304 5.54501 5.304 5.54501 5.304C 5.54501 5.304 5.54001 5.304 5.53901 5.305C 5.46801 5.311 3.169 5.53 2.586 6.219C 1.994 6.918 4.846 7.886 6.083 8.424C 7.32 8.962 11.086 9.877 13.185 10.792C 15.283 11.706 22.33 13.427 23.245 13.75C 23.459 13.826 23.678 13.921 23.923 14.049C 23.901 13.919 23.874 13.785 23.837 13.643C 23.299 11.598 24.213 10.092 25.02 8.908C 25.454 8.272 26.742 7.824 27.95 7.536C 28.121 6.556 28.549 5.469 29.835 4.847C 32.515 3.55 34.835 4.134 35.692 4.436C 35.916 4.266 36.049 4.127 36.049 4.041C 36.049 3.503 40.084 3.206 40.084 3.206C 40.084 3.206 41.214 4.12 39.277 1.646C 38.49 0.641 37.145 0.186 35.824 0C 35.498 0.302 35.308 0.568 34.758 0.566C 33.574 0.563 33.197 0.946 32.821 1Z"></path>
      <path id="path13_fill" d="M 0.701579 0.0460119C 0.271579 0.181012 -0.349421 0.889012 0.244579 1.49901C 0.774579 2.04401 1.77358 1.77401 1.80858 0.907012C 1.84458 0.0340119 1.13158 -0.0879881 0.701579 0.0460119Z"></path>
    </g>

    <g class="shuffle-defs">
      <path id="path14_fill" d="M 20.064 9.825C 20.064 6.715 18.954 4.265 16.733 2.477C 14.723 0.826 12.186 0 9.12 0C 7.534 0 6.013 0.22 4.559 0.658C 2.761 1.179 1.466 1.947 0.673 2.961C 0.224 3.536 0 4.112 0 4.689C 0 5.62 0.303 6.347 0.912 6.868C 1.519 7.388 2.273 7.65 3.171 7.65C 3.647 7.65 4.652 7.422 6.185 6.967C 7.824 6.485 9.106 6.243 10.032 6.243C 10.93 6.243 11.69 6.512 12.312 7.049C 12.932 7.585 13.244 8.307 13.244 9.216C 13.244 10.399 12.807 11.252 11.935 11.775C 11.168 12.243 9.953 12.738 8.287 13.262C 5.749 14.059 3.898 14.968 2.736 15.986C 1.123 17.361 0.317 19.232 0.317 21.599C 0.317 24.489 1.347 26.787 3.41 28.493C 5.338 30.089 7.718 30.887 10.547 30.887C 12.926 30.887 14.81 30.46 16.198 29.606C 17.585 28.751 18.279 27.745 18.279 26.587C 18.279 24.685 17.301 23.734 15.345 23.734C 14.763 23.734 13.951 23.906 12.907 24.251C 11.862 24.596 11.009 24.768 10.349 24.768C 9.502 24.768 8.789 24.575 8.208 24.19C 7.546 23.749 7.216 23.103 7.216 22.25C 7.216 21.754 7.335 21.327 7.573 20.97C 7.89 20.502 8.617 20.048 9.754 19.608C 10.6 19.332 11.446 19.057 12.292 18.782C 14.751 17.901 16.574 16.869 17.764 15.686C 19.296 14.172 20.064 12.219 20.064 9.825Z"></path>
      <path id="path15_fill" d="M 6.582 12.57L 6.582 4.879C 6.582 1.626 5.485 0 3.291 0C 1.097 0 0 1.624 0 4.873L 0 26.014C 0 29.263 1.097 30.887 3.291 30.887C 5.485 30.887 6.582 29.26 6.582 26.008L 6.582 18.896L 18.716 18.896L 18.716 26.008C 18.716 29.26 19.812 30.887 22.007 30.887C 24.201 30.887 25.299 29.263 25.299 26.014L 25.299 4.873C 25.299 1.624 24.201 0 22.007 0C 19.812 0 18.716 1.626 18.716 4.879L 18.716 12.57L 6.582 12.57Z"></path>
      <path id="path16_fill" d="M 0 13.833L 0 26.015C 0 29.263 1.097 30.888 3.291 30.888C 5.485 30.888 6.582 29.264 6.582 26.017L 6.582 14.624C 6.582 9.285 8.525 6.616 12.411 6.616C 16.297 6.616 18.24 9.285 18.24 14.624L 18.24 26.017C 18.24 29.264 19.337 30.888 21.531 30.888C 23.726 30.888 24.822 29.263 24.822 26.015L 24.822 13.833C 24.822 9.594 23.778 6.263 21.69 3.84C 19.522 1.28 16.43 0 12.411 0C 8.393 0 5.3 1.28 3.133 3.84C 1.044 6.263 0 9.594 0 13.833Z"></path>
      <path id="path17_fill" d="M 11.976 30.515C 15.094 30.515 16.655 29.44 16.655 27.289C 16.655 25.166 15.094 24.106 11.976 24.106L 6.582 24.106L 6.582 18.73L 11.222 18.73C 14.341 18.73 15.901 17.676 15.901 15.567C 15.901 13.458 14.341 12.404 11.222 12.404L 6.582 12.404L 6.582 4.879C 6.582 1.626 5.486 0 3.291 0C 1.097 0 0 1.624 0 4.872L 0 25.683C 0 27.473 0.33 28.725 0.992 29.441C 1.652 30.157 2.842 30.515 4.561 30.515L 11.976 30.515Z"></path>
      <path id="path18_fill" d="M 11.975 30.515C 15.094 30.515 16.654 29.44 16.654 27.289C 16.654 25.166 15.094 24.106 11.975 24.106L 6.582 24.106L 6.582 18.73L 11.222 18.73C 14.34 18.73 15.901 17.676 15.901 15.567C 15.901 13.458 14.34 12.404 11.222 12.404L 6.582 12.404L 6.582 4.879C 6.582 1.626 5.485 0 3.291 0C 1.096 0 0 1.624 0 4.872L 0 25.683C 0 27.473 0.33 28.725 0.992 29.441C 1.652 30.157 2.841 30.515 4.56 30.515L 11.975 30.515Z"></path>
      <path id="path19_fill" d="M 0 25.677C 0 28.929 1.097 30.556 3.291 30.556C 5.485 30.556 6.582 28.927 6.582 25.669L 6.582 6.326L 12.174 6.326C 15.292 6.326 16.853 5.272 16.853 3.163C 16.853 1.054 15.292 0 12.174 0L 4.48 0C 2.815 0 1.651 0.296 0.991 0.889C 0.33 1.481 0 2.632 0 4.342L 0 25.677Z"></path>
      <path id="path20_fill" d="M 11.976 30.185C 15.094 30.185 16.655 29.11 16.655 26.959C 16.655 24.836 15.094 23.776 11.976 23.776L 6.582 23.776L 6.582 18.4L 11.222 18.4C 14.341 18.4 15.901 17.346 15.901 15.237C 15.901 13.128 14.341 12.074 11.222 12.074L 6.582 12.074L 6.582 6.327L 12.174 6.327C 15.292 6.327 16.853 5.272 16.853 3.164C 16.853 1.055 15.292 0 12.174 0L 4.481 0C 2.816 0 1.652 0.296 0.992 0.89C 0.33 1.482 0 2.633 0 4.342L 0 25.347C 0 27.139 0.33 28.393 0.992 29.11C 1.652 29.826 2.842 30.185 4.561 30.185L 11.976 30.185Z"></path>
    </g>

    <g class="nyc-defs">
      <path id="path21_fill" d="M 13.7265 0.474692C 13.3125 -0.733308 9.34149 0.560692 9.54749 2.15769C 9.38249 2.84769 9.21649 5.17669 9.05149 7.59269C 9.01049 8.06669 9.05148 8.36869 8.55548 7.59269C 6.69448 4.48669 4.99749 1.38069 4.74949 0.474692C 4.33549 -0.819308 -0.669515 0.906692 0.0754849 2.63169C 1.81248 6.47069 5.94949 12.4237 7.89349 14.9257C 8.80349 16.3917 12.9815 14.6237 12.6925 13.7177C 12.7745 13.1137 12.8575 11.6907 12.9405 10.0077C 12.9815 9.31769 13.0235 9.27469 13.4365 10.0077C 14.5945 11.9927 15.6705 13.8477 16.4555 15.0117C 17.4085 16.5647 22.3725 14.4947 21.5855 13.6317C 18.8975 10.3527 14.2225 2.07069 13.7265 0.474692Z"></path>
      <path id="path22_fill" d="M 11.0463 16.09C 11.7493 16.694 15.8863 16.09 15.6793 14.451C 13.3623 12.38 4.71725 2.933 2.85625 0C 1.57325 0.388 -0.535748 2.933 0.125252 4.012C 0.622252 4.875 1.61425 5.823 2.64925 6.945C 2.27625 9.533 1.90425 13.329 2.48325 15.098C 2.85625 16.349 7.53025 16.866 7.24025 15.659C 7.03325 14.925 6.66125 13.2 6.53725 11.604C 6.53725 11.561 6.45425 11 6.82725 11.431C 8.39925 13.286 10.0543 15.184 11.0463 16.09Z"></path>
      <path id="path23_fill" d="M 5.253 5.219C 5.253 4.874 5.46 4.745 5.584 4.701C 6.411 4.4 9.887 5.694 11.293 8.196C 12.285 8.843 13.899 4.615 13.402 3.882C 11.251 0.776 7.569 0 5.998 0C 4.385 0 0 2.243 0 5.305C 0 10.999 5.626 16.607 10.176 16.607C 14.644 16.607 16.96 13.156 16.96 11.69C 16.96 10.611 15.512 8.627 14.313 8.627C 12.864 8.627 10.3 10.309 10.3 10.611L 10.3 10.655C 10.921 11.258 12.782 12.595 12.782 13.242C 12.782 13.242 12.782 13.458 12.658 13.458C 9.514 13.458 5.253 7.29 5.253 5.219Z"></path>
    </g>
  </defs>
</svg>
