<?xml version="1.0" encoding="utf-8"?>
<!-- Generator: Adobe Illustrator 18.0.0, SVG Export Plug-In . SVG Version: 6.00 Build 0)  -->
<!DOCTYPE svg PUBLIC "-//W3C//DTD SVG 1.1//EN" "http://www.w3.org/Graphics/SVG/1.1/DTD/svg11.dtd">
<svg version="1.1" id="Layer_1" xmlns="http://www.w3.org/2000/svg" xmlns:xlink="http://www.w3.org/1999/xlink" x="0px" y="0px"
   width="255.1px" height="118.1px" viewBox="0 0 255.1 118.1" style="enable-background:new 0 0 255.1 118.1;" xml:space="preserve"
  >
<g>
  <path class="hover" style="fill:#E8E8E8;" d="M25.2,15.2h-7.3v-1.7c0-1.7-0.4-3.1-1.2-4.4s-2.1-1.8-4-1.8c-1,0-1.8,0.2-2.5,0.6
    C9.5,8.3,9,8.8,8.7,9.4c-0.4,0.6-0.6,1.3-0.8,2.1S7.7,13.1,7.7,14c0,1,0,1.9,0.1,2.6c0.1,0.7,0.3,1.3,0.5,1.8
    c0.3,0.5,0.7,0.9,1.3,1.3c0.6,0.4,1.3,0.8,2.3,1.2l5.6,2.2c1.6,0.6,3,1.4,4,2.2c1,0.8,1.8,1.8,2.3,3c0.6,1.1,0.9,2.4,1.1,3.9
    c0.2,1.5,0.3,3.1,0.3,5c0,2.2-0.2,4.2-0.6,6c-0.4,1.8-1.1,3.4-2.1,4.8c-1,1.3-2.3,2.4-3.9,3.1c-1.6,0.8-3.6,1.2-6,1.2
    c-1.8,0-3.4-0.3-5-0.9c-1.5-0.6-2.9-1.5-4-2.6c-1.1-1.1-2-2.4-2.6-3.9c-0.6-1.5-1-3.1-1-4.8v-2.7h7.3v2.3c0,1.3,0.4,2.6,1.2,3.6
    c0.8,1.1,2.1,1.6,4,1.6c1.2,0,2.2-0.2,2.9-0.5c0.7-0.4,1.2-0.9,1.6-1.5s0.6-1.5,0.7-2.4c0.1-1,0.1-2,0.1-3.2c0-1.3,0-2.4-0.1-3.3
    c-0.1-0.9-0.3-1.6-0.6-2.1c-0.3-0.5-0.7-1-1.3-1.3c-0.6-0.3-1.3-0.7-2.2-1.1l-5.3-2.2c-3.2-1.3-5.3-3-6.4-5.1
    c-1.1-2.1-1.6-4.8-1.6-8c0-1.9,0.3-3.7,0.8-5.5c0.5-1.7,1.3-3.2,2.3-4.5c1-1.2,2.3-2.2,3.9-3C9,0.4,10.8,0,13,0c1.8,0,3.5,0.3,5,1
    c1.5,0.7,2.8,1.6,3.9,2.7c1.1,1.1,1.9,2.3,2.5,3.7c0.6,1.4,0.9,2.8,0.9,4.2V15.2z"/>
  <path class="hover" style="fill:#E8E8E8;" d="M47.4,39.6c0,1.7-0.3,3.3-0.9,4.8c-0.6,1.5-1.4,2.8-2.5,4s-2.4,2.1-3.9,2.7c-1.5,0.7-3.3,1-5.3,1
    c-2.4,0-4.3-0.5-5.9-1.5c-1.6-1-2.8-2.1-3.7-3.1l5.8-4.6c0.5,0.5,1.1,1,1.8,1.3c0.7,0.4,1.4,0.5,2.2,0.5c0.4,0,0.9-0.1,1.5-0.3
    c0.6-0.2,1.1-0.5,1.6-0.9c0.5-0.5,0.9-1.1,1.3-1.9c0.4-0.8,0.5-1.8,0.5-3.1V0.4h7.3V39.6z"/>
  <path class="hover" style="fill:#E8E8E8;" d="M84.4,51.7h-6.9l-5.6-33.3h-0.1l-5.5,33.3h-6.9L51.6,0.4h7.8L63.1,33h0.1L69,0.4h5.6l6,33.3h0.1
    l3.5-33.3H92L84.4,51.7z"/>
  <path class="hover" style="fill:#E8E8E8;" d="M1.7,66.4H9v51.3H1.7V66.4z"/>
  <path class="hover" style="fill:#E8E8E8;" d="M15.5,66.4h7.1l11.1,30.9h0.1V66.4h7.3v51.3h-6.9L23,86.9h-0.1v30.8h-7.3V66.4z"/>
  <path class="hover" style="fill:#E8E8E8;" d="M47.4,66.4h10.9c4.2,0,7.4,1.2,9.6,3.5c2.2,2.3,3.3,5.6,3.3,9.8v24c0,4.8-1.2,8.3-3.5,10.6
    c-2.3,2.3-5.7,3.4-10,3.4H47.4V66.4z M54.7,110.8h3.4c2.1,0,3.5-0.5,4.4-1.5c0.9-1,1.3-2.7,1.3-4.9V79.7c0-2-0.4-3.6-1.2-4.7
    c-0.8-1.1-2.3-1.7-4.5-1.7h-3.4V110.8z"/>
  <path class="hover" style="fill:#E8E8E8;" d="M101.4,106.2c0,1.7-0.3,3.2-0.9,4.7c-0.6,1.4-1.5,2.7-2.6,3.8s-2.3,1.9-3.8,2.6
    c-1.4,0.6-3,0.9-4.6,0.9c-1.6,0-3.2-0.3-4.6-0.9c-1.4-0.6-2.7-1.5-3.8-2.6c-1.1-1.1-1.9-2.3-2.6-3.8c-0.6-1.4-0.9-3-0.9-4.7V66.4
    H85v39c0,1.8,0.4,3.2,1.3,4c0.9,0.9,1.9,1.3,3.2,1.3s2.4-0.4,3.2-1.3c0.9-0.9,1.3-2.2,1.3-4v-39h7.3V106.2z"/>
  <path class="hover" style="fill:#E8E8E8;" d="M131.8,81.2h-7.3v-1.7c0-1.7-0.4-3.1-1.2-4.4s-2.1-1.8-4-1.8c-1,0-1.8,0.2-2.5,0.6
    c-0.6,0.4-1.2,0.9-1.5,1.5c-0.4,0.6-0.6,1.3-0.8,2.1s-0.2,1.6-0.2,2.5c0,1,0,1.9,0.1,2.6c0.1,0.7,0.3,1.3,0.5,1.8
    c0.3,0.5,0.7,0.9,1.3,1.3c0.6,0.4,1.3,0.8,2.3,1.2l5.6,2.2c1.6,0.6,3,1.4,4,2.2c1,0.8,1.8,1.8,2.3,3c0.6,1.1,0.9,2.4,1.1,3.9
    c0.2,1.5,0.3,3.1,0.3,5c0,2.2-0.2,4.2-0.6,6c-0.4,1.8-1.1,3.4-2.1,4.8c-1,1.3-2.3,2.4-3.9,3.1c-1.6,0.8-3.6,1.2-6,1.2
    c-1.8,0-3.4-0.3-5-0.9c-1.5-0.6-2.9-1.5-4-2.6c-1.1-1.1-2-2.4-2.6-3.9c-0.6-1.5-1-3.1-1-4.8v-2.7h7.3v2.3c0,1.3,0.4,2.6,1.2,3.6
    s2.1,1.6,4,1.6c1.2,0,2.2-0.2,2.9-0.5c0.7-0.4,1.2-0.9,1.6-1.5c0.4-0.6,0.6-1.5,0.7-2.4c0.1-1,0.1-2,0.1-3.2c0-1.3,0-2.4-0.1-3.3
    c-0.1-0.9-0.3-1.6-0.6-2.1c-0.3-0.5-0.7-1-1.3-1.3c-0.6-0.3-1.3-0.7-2.2-1.1l-5.3-2.2c-3.2-1.3-5.3-3-6.4-5.1
    c-1.1-2.1-1.6-4.8-1.6-8c0-1.9,0.3-3.7,0.8-5.5c0.5-1.7,1.3-3.2,2.3-4.5c1-1.2,2.3-2.2,3.9-3c1.6-0.7,3.4-1.1,5.5-1.1
    c1.8,0,3.5,0.3,5,1c1.5,0.7,2.8,1.6,3.9,2.7c1.1,1.1,1.9,2.3,2.5,3.7c0.6,1.4,0.9,2.8,0.9,4.2V81.2z"/>
  <path class="hover" style="fill:#E8E8E8;" d="M141.7,73.3h-8.5v-6.9h24.3v6.9H149v44.4h-7.3V73.3z"/>
  <path class="hover" style="fill:#E8E8E8;" d="M160.4,66.4h11.8c8.6,0,13,5,13,15c0,3-0.5,5.5-1.4,7.7c-0.9,2.1-2.6,3.9-4.9,5.1l7.9,23.4H179
    l-6.8-21.9h-4.4v21.9h-7.3V66.4z M167.8,89.3h4.2c1.3,0,2.3-0.2,3.1-0.5c0.8-0.4,1.4-0.9,1.8-1.5c0.4-0.7,0.7-1.5,0.8-2.5
    c0.1-1,0.2-2.1,0.2-3.4s-0.1-2.4-0.2-3.4c-0.1-1-0.4-1.8-0.9-2.5c-0.5-0.7-1.1-1.2-1.9-1.5c-0.8-0.3-1.9-0.5-3.2-0.5h-3.8V89.3z"/>
  <path class="hover" style="fill:#E8E8E8;" d="M190.9,66.4h7.3v51.3h-7.3V66.4z"/>
  <path class="hover" style="fill:#E8E8E8;" d="M205.1,66.4h21.9v6.9h-14.5v15h12.7v6.9h-12.7v15h14.5v7.3h-21.9V66.4z"/>
  <path class="hover" style="fill:#E8E8E8;" d="M255.1,81.2h-7.3v-1.7c0-1.7-0.4-3.1-1.2-4.4s-2.1-1.8-4-1.8c-1,0-1.8,0.2-2.5,0.6
    c-0.6,0.4-1.2,0.9-1.5,1.5c-0.4,0.6-0.6,1.3-0.8,2.1c-0.1,0.8-0.2,1.6-0.2,2.5c0,1,0,1.9,0.1,2.6c0.1,0.7,0.3,1.3,0.5,1.8
    s0.7,0.9,1.3,1.3c0.6,0.4,1.3,0.8,2.3,1.2l5.6,2.2c1.6,0.6,3,1.4,4,2.2c1,0.8,1.8,1.8,2.3,3s0.9,2.4,1.1,3.9c0.2,1.5,0.3,3.1,0.3,5
    c0,2.2-0.2,4.2-0.6,6c-0.4,1.8-1.1,3.4-2.1,4.8c-1,1.3-2.3,2.4-3.9,3.1c-1.6,0.8-3.6,1.2-6,1.2c-1.8,0-3.4-0.3-5-0.9
    c-1.5-0.6-2.9-1.5-4-2.6c-1.1-1.1-2-2.4-2.6-3.9c-0.6-1.5-1-3.1-1-4.8v-2.7h7.3v2.3c0,1.3,0.4,2.6,1.2,3.6s2.1,1.6,4,1.6
    c1.2,0,2.2-0.2,2.9-0.5c0.7-0.4,1.2-0.9,1.6-1.5c0.4-0.6,0.6-1.5,0.7-2.4c0.1-1,0.1-2,0.1-3.2c0-1.3,0-2.4-0.1-3.3
    c-0.1-0.9-0.3-1.6-0.6-2.1c-0.3-0.5-0.7-1-1.3-1.3c-0.6-0.3-1.3-0.7-2.2-1.1l-5.3-2.2c-3.2-1.3-5.3-3-6.4-5.1
    c-1.1-2.1-1.6-4.8-1.6-8c0-1.9,0.3-3.7,0.8-5.5c0.5-1.7,1.3-3.2,2.3-4.5c1-1.2,2.3-2.2,3.9-3c1.6-0.7,3.4-1.1,5.5-1.1
    c1.8,0,3.5,0.3,5,1c1.5,0.7,2.8,1.6,3.9,2.7c1.1,1.1,1.9,2.3,2.5,3.7c0.6,1.4,0.9,2.8,0.9,4.2V81.2z"/>
</g>
</svg>
