<svg width="110" height="37" viewBox="0 0 110 37" fill="none" xmlns="http://www.w3.org/2000/svg" style="padding-top: 2%">
<path class="hover" d="M15.1724 7.56079H7.58621V15.1215H0V22.6821H7.58621V30.2428H15.1724V22.6821H22.7586V15.1215H15.1724V7.56079Z" fill="black"/>
<path class="hover" d="M30.3449 0H22.7586H15.1725V7.56066H22.7586V15.1214H30.3449V7.56066V0Z" fill="#747E8D"/>
<path class="hover" d="M47.4139 9.45083V7.56066C47.4139 6.51675 46.5647 5.6705 45.5173 5.6705C44.4698 5.6705 43.6206 6.51675 43.6206 7.56066C43.6206 7.56066 43.6206 8.24013 43.6206 8.97828C43.6206 13.2312 53.1035 10.8684 53.1035 20.7918C53.1035 21.8991 53.1035 22.682 53.1035 22.682C53.1035 26.8576 49.7069 30.2427 45.5173 30.2427C41.3276 30.2427 37.931 26.8576 37.931 22.682V20.7918H43.6206V22.682C43.6206 23.7258 44.4698 24.5721 45.5173 24.5721C46.5647 24.5721 47.4139 23.7258 47.4139 22.682C47.4139 22.682 47.4139 21.8991 47.4139 20.7918C47.4139 15.3576 37.931 18.4292 37.931 8.97828C37.931 8.24013 37.931 7.56066 37.931 7.56066C37.931 3.38503 41.3276 0 45.5173 0C49.7069 0 53.1035 3.38503 53.1035 7.56066V9.45083H47.4139Z" fill="black"/>
<path class="hover" fill-rule="evenodd" clip-rule="evenodd" d="M72.0689 22.682V7.56066C72.0689 3.38503 68.6724 0 64.4828 0C60.293 0 56.8965 3.38503 56.8965 7.56066V22.682V36.8583H62.5862V30.0045C63.1923 30.1599 63.828 30.2427 64.4828 30.2427C68.6724 30.2427 72.0689 26.8576 72.0689 22.682ZM66.3793 8.50575V21.7369C66.3793 22.7808 65.5301 23.6271 64.4828 23.6271C63.4353 23.6271 62.5862 22.7808 62.5862 21.7369V8.50575C62.5862 7.46183 63.4353 6.61559 64.4828 6.61559C65.5301 6.61559 66.3793 7.46183 66.3793 8.50575Z" fill="black"/>
<path class="hover" fill-rule="evenodd" clip-rule="evenodd" d="M83.4483 24.5721C84.4957 24.5721 85.3449 23.7258 85.3449 22.682V20.7918H91.0345V22.682C91.0345 26.8576 87.638 30.2427 83.4483 30.2427C79.2586 30.2427 75.8621 26.8576 75.8621 22.682V7.56066C75.8621 3.38503 79.2586 0 83.4483 0C87.638 0 91.0345 3.38503 91.0345 7.56066V12.2861V17.0115H85.3449H81.5518V20.7918V22.682C81.5518 23.7258 82.4009 24.5721 83.4483 24.5721ZM81.5518 7.56066C81.5518 6.51675 82.4009 5.6705 83.4483 5.6705C84.4957 5.6705 85.3449 6.51675 85.3449 7.56066V12.2861H81.5518V7.56066Z" fill="black"/>
<path class="hover" d="M102.414 5.6705C101.366 5.6705 100.517 6.51675 100.517 7.56066V22.682C100.517 23.7258 101.366 24.5721 102.414 24.5721C103.461 24.5721 104.31 23.7258 104.31 22.682V20.7918H110V22.682C110 26.8576 106.603 30.2427 102.414 30.2427C98.224 30.2427 94.8275 26.8576 94.8275 22.682V7.56066C94.8275 3.38503 98.224 0 102.414 0C106.603 0 110 3.38503 110 7.56066V9.45083H104.31V7.56066C104.31 6.51675 103.461 5.6705 102.414 5.6705Z" fill="black"/>
</svg>
