<?xml version="1.0" encoding="utf-8"?>
<!-- Generator: Adobe Illustrator 18.0.0, SVG Export Plug-In . SVG Version: 6.00 Build 0)  -->
<!DOCTYPE svg PUBLIC "-//W3C//DTD SVG 1.1//EN" "http://www.w3.org/Graphics/SVG/1.1/DTD/svg11.dtd">
<svg version="1.1" id="Layer_1" xmlns="http://www.w3.org/2000/svg" xmlns:xlink="http://www.w3.org/1999/xlink" x="0px" y="0px"
	 width="218.9px" height="52.6px" viewBox="13.6 10.7 218.9 52.6" style="enable-background:new 13.6 10.7 218.9 52.6;"
	 xml:space="preserve">
<style type="text/css">
	.st0{fill:#FFFFFF;}
</style>
<g>
	<g>
		<g>
			<path class="hover st0" d="M115,12.3v6.2h-1.7v-6.2h-2.4v-1.6h6.5v1.6H115z"/>
			<path class="hover st0" d="M125.8,18.5v-3.1h-3.2v3.1h-1.7v-7.8h1.7v3.1h3.2v-3.1h1.7v7.8H125.8z"/>
			<path class="hover st0" d="M131.7,18.5v-7.8h5.9v1.5h-4.2v1.6h3.7v1.5h-3.7V17h4.3v1.5H131.7z"/>
		</g>
		<g>
			<path class="hover st0" d="M13.6,40.7l2.6-3.1c1.7,1.3,3.5,2,5.5,2c1.3,0,1.9-0.4,1.9-1.2v0c0-0.7-0.6-1.1-2.8-1.6
				c-3.6-0.8-6.4-1.8-6.4-5.3v0c0-3.1,2.5-5.4,6.5-5.4c2.9,0,5.1,0.8,6.9,2.2l-2.3,3.3c-1.5-1.1-3.2-1.7-4.7-1.7
				c-1.1,0-1.7,0.5-1.7,1.1v0c0,0.8,0.6,1.1,2.9,1.6c3.9,0.8,6.3,2.1,6.3,5.3v0c0,3.4-2.7,5.5-6.8,5.5
				C18.6,43.5,15.7,42.6,13.6,40.7z"/>
			<path class="hover st0" d="M35.5,26.3h4.7v6.9l5.8-6.9h5.6l-6.4,7.3l6.6,9.6h-5.6L41.9,37l-1.7,1.9v4.4h-4.7V26.3z"/>
			<path class="hover st0" d="M57.9,26.3h13.6v4h-8.9v2.6h8.1v3.7h-8.1v2.7h9.1v4H57.9V26.3z"/>
			<path class="hover st0" d="M82.9,30.4h-5.1v-4.1h14.8v4.1h-5.1v12.8h-4.7L82.9,30.4L82.9,30.4z"/>
			<path class="hover st0" d="M98.2,34.8L98.2,34.8c0-5,3.8-8.8,8.9-8.8c3.4,0,5.7,1.4,7.2,3.5l-3.5,2.7c-1-1.2-2.1-2-3.7-2
				c-2.4,0-4,2-4,4.5v0c0,2.5,1.7,4.5,4,4.5c1.8,0,2.8-0.8,3.8-2.1l3.5,2.5c-1.6,2.2-3.7,3.8-7.5,3.8
				C102.1,43.6,98.2,39.9,98.2,34.8z"/>
			<path class="hover st0" d="M121.3,26.3h4.7v6.3h6v-6.3h4.7v16.9h-4.7v-6.4h-6v6.4h-4.7V26.3z"/>
			<path class="hover st0" d="M144.4,26.3h8.7c2.1,0,3.6,0.5,4.6,1.5c0.7,0.7,1.1,1.6,1.1,2.7v0c0,2-1.1,3.1-2.6,3.8
				c2.1,0.7,3.4,1.8,3.4,4.1v0c0,2.9-2.4,4.7-6.4,4.7h-8.7V26.3z M151.9,33.1c1.4,0,2.2-0.5,2.2-1.5v0c0-0.9-0.7-1.4-2.1-1.4h-3v3
				H151.9z M152.6,39.5c1.4,0,2.2-0.6,2.2-1.5v0c0-0.9-0.7-1.5-2.3-1.5H149v3.1L152.6,39.5L152.6,39.5z"/>
			<path class="hover st0" d="M165.9,34.8L165.9,34.8c0-4.9,3.9-8.8,9.1-8.8c5.2,0,9.1,3.9,9.1,8.7v0c0,4.8-3.9,8.8-9.1,8.8
				C169.8,43.6,165.9,39.7,165.9,34.8z M179.3,34.8L179.3,34.8c0-2.5-1.8-4.6-4.3-4.6c-2.6,0-4.3,2.1-4.3,4.5v0
				c0,2.4,1.8,4.6,4.3,4.6C177.6,39.3,179.3,37.3,179.3,34.8z"/>
			<path class="hover st0" d="M190.8,34.8L190.8,34.8c0-4.9,3.9-8.8,9.1-8.8c5.2,0,9.1,3.9,9.1,8.7v0c0,4.8-3.9,8.8-9.1,8.8
				C194.7,43.6,190.8,39.7,190.8,34.8z M204.2,34.8L204.2,34.8c0-2.5-1.8-4.6-4.3-4.6c-2.6,0-4.3,2.1-4.3,4.5v0
				c0,2.4,1.8,4.6,4.3,4.6C202.5,39.3,204.2,37.3,204.2,34.8z"/>
			<path class="hover st0" d="M216.2,26.3h4.7v6.9l5.8-6.9h5.5l-6.4,7.3l6.6,9.6h-5.6l-4.2-6.3l-1.7,1.9v4.4h-4.7L216.2,26.3L216.2,26.3z"
				/>
		</g>
		<g>
			<path class="hover st0" d="M79.2,59.5h-2v3.6h-2.6V51.2h4.9c2.8,0,4.6,1.7,4.6,4.1v0C84,58.1,81.8,59.5,79.2,59.5z M81.3,55.4
				c0-1.2-0.8-1.8-2.1-1.8h-2v3.6h2.1C80.6,57.2,81.3,56.4,81.3,55.4L81.3,55.4z"/>
			<path class="hover st0" d="M96.5,63.1L94,59.3h-2.1v3.8h-2.6V51.2h5.4c2.8,0,4.5,1.5,4.5,3.9v0c0,1.9-1,3.1-2.5,3.7l2.9,4.2L96.5,63.1
				L96.5,63.1z M96.6,55.3c0-1.1-0.8-1.7-2.1-1.7h-2.6V57h2.7C95.9,57,96.6,56.3,96.6,55.3L96.6,55.3L96.6,55.3z"/>
			<path class="hover st0" d="M110.8,63.3c-3.7,0-6.3-2.7-6.3-6.1v0c0-3.4,2.7-6.1,6.3-6.1c3.7,0,6.3,2.7,6.3,6.1v0
				C117.1,60.5,114.4,63.3,110.8,63.3z M114.4,57.2c0-2-1.5-3.7-3.6-3.7c-2.1,0-3.6,1.7-3.6,3.7v0c0,2,1.5,3.7,3.6,3.7
				C112.9,60.9,114.4,59.2,114.4,57.2L114.4,57.2z"/>
			<path class="hover st0" d="M125,63.3c-1.8,0-3.1-0.8-3.9-1.8l1.6-1.8c0.7,0.7,1.3,1.2,2.2,1.2c1,0,1.6-0.6,1.6-2v-7.7h2.7V59
				C129.2,61.9,127.5,63.3,125,63.3z"/>
			<path class="hover st0" d="M135.3,63.1V51.2h9v2.3h-6.4V56h5.6v2.3h-5.6v2.5h6.5v2.3H135.3z"/>
			<path class="hover st0" d="M155.6,63.3c-3.5,0-6.1-2.7-6.1-6.1v0c0-3.4,2.5-6.1,6.2-6.1c2.2,0,3.6,0.7,4.7,1.8l-1.7,1.9
				c-0.9-0.8-1.9-1.3-3-1.3c-2,0-3.4,1.7-3.4,3.7v0c0,2,1.4,3.7,3.4,3.7c1.4,0,2.2-0.5,3.1-1.4l1.7,1.7
				C159.3,62.5,157.9,63.3,155.6,63.3z"/>
			<path class="hover st0" d="M171.4,53.6v9.5h-2.6v-9.5h-3.6v-2.4h9.9v2.4H171.4z"/>
		</g>
	</g>
</g>
</svg>
