<?xml version="1.0" encoding="utf-8"?>
<!-- Generator: Adobe Illustrator 18.0.0, SVG Export Plug-In . SVG Version: 6.00 Build 0)  -->
<!DOCTYPE svg PUBLIC "-//W3C//DTD SVG 1.1//EN" "http://www.w3.org/Graphics/SVG/1.1/DTD/svg11.dtd">
<svg version="1.1" id="Layer_1" xmlns="http://www.w3.org/2000/svg" xmlns:xlink="http://www.w3.org/1999/xlink" x="0px" y="0px"
	 width="392.3px" height="97.5px" viewBox="0 0 392.3 97.5" style="enable-background:new 0 0 392.3 97.5;" xml:space="preserve">
<g>
	<path class="hover" d="M29.9,8.2c-0.6,0.4-1,1-1.4,1.8c-0.1,0.2-0.2,0.5-0.2,0.9c-0.1,0.4-0.1,0.9-0.2,1.5C28.1,13,28,13.6,28,14.3
		c0,0.6,0,1.3,0,1.9c0,1.2-0.1,2.5-0.1,3.9s-0.1,3.1-0.1,4.9c0,0.5-0.1,1.2-0.1,2c0,0.8-0.2,1.6-0.4,2.5c-0.2,0.9-0.6,1.8-1,2.7
		c-0.5,0.9-1.2,1.7-2,2.4c-0.9,0.7-2,1.3-3.4,1.7c-1.4,0.4-3,0.6-5,0.6c-2,0-3.6-0.2-5-0.6c-1.4-0.4-2.5-1-3.3-1.7
		c-0.9-0.7-1.5-1.5-2-2.3c-0.5-0.8-0.8-1.7-1.1-2.5c-0.2-0.8-0.4-1.5-0.4-2.2c0-0.7-0.1-1.2-0.1-1.5c0-0.8,0-1.8,0-3s0-2.6,0-4.1
		v-5.4c0-0.5,0-1,0-1.5c0-0.5,0-0.9-0.1-1.4c0-0.4-0.1-0.8-0.2-1.1C3.6,9.4,3.5,9.1,3.3,8.9c-0.4-0.5-0.9-0.8-1.4-1
		C1.3,7.7,0.7,7.6,0,7.5V7.1h12.2v0.4c-0.4,0.1-0.8,0.1-1.2,0.2C10.5,7.8,10.1,8,9.8,8.2c-0.4,0.2-0.7,0.6-0.9,1s-0.4,0.9-0.4,1.6
		c0,0.7,0,1.3-0.1,1.9c0,0.5,0,1.1,0,1.6c0,0.5,0,1.1,0,1.6c0,0.5,0,1.2,0,1.9c0,0.9,0,1.8,0,2.5c0,0.7,0,1.4,0,2.1
		c0,0.6,0,1.2,0,1.8c0,0.6,0,1.2,0,1.9c0,1.4,0.2,2.8,0.7,3.9c0.4,1.2,1,2.2,1.7,3c0.7,0.8,1.6,1.5,2.7,1.9s2.3,0.7,3.6,0.7
		c1.6,0,2.9-0.2,3.9-0.5c1.1-0.4,2-0.8,2.7-1.5c0.7-0.6,1.3-1.4,1.7-2.2c0.4-0.8,0.7-1.7,0.9-2.6s0.3-1.9,0.4-2.8
		c0.1-1,0.1-1.9,0.1-2.8c0-0.7,0-1.4,0-2c0-0.6,0-1.2,0-1.7c0-0.5,0-1.1,0-1.6c0-0.5,0-1.1,0-1.7c0-0.5,0-1.1,0-1.7
		c0-0.6,0-1.1-0.1-1.6c0-0.5-0.1-1-0.1-1.5c-0.1-0.5-0.1-0.8-0.2-1.1c-0.3-0.8-0.7-1.4-1.4-1.9c-0.7-0.5-1.7-0.8-3-1V7.1h10.1v0.4
		C31.3,7.6,30.5,7.9,29.9,8.2z"/>
	<path class="hover" d="M97.6,8.2c-0.6,0.4-1.1,1-1.4,1.8c-0.2,0.4-0.3,1.2-0.4,2.3c-0.1,1.1-0.1,2.3-0.2,3.5c-0.1,1.2-0.1,2.6-0.1,4.2
		c0,1.6-0.1,3.3-0.1,5.1c0,0.8,0,1.6,0,2.6c0,1,0,1.9,0,2.9c0,1,0,2,0,3c0,1,0,1.9,0,2.7c0,0.1,0,0.2-0.1,0.3
		c-0.1,0.1-0.2,0.1-0.3,0.1c-0.2,0-0.5-0.1-0.7-0.4c-2.3-2.7-4.4-5.1-6.3-7.4c-1.9-2.2-3.7-4.4-5.5-6.4c-1.7-2-3.4-4-5.1-6
		c-1.7-1.9-3.4-3.9-5.3-6v17.3c0,1.4,0,2.6,0.1,3.8c0.1,1.1,0.2,2,0.5,2.5c0.3,0.6,0.8,1.1,1.4,1.4s1.5,0.5,2.6,0.7v0.4H66.8v-0.4
		c0.7-0.1,1.3-0.3,2-0.5c0.7-0.3,1.2-0.7,1.6-1.3c0.4-0.6,0.6-1.4,0.7-2.5c0.1-1.1,0.2-2.5,0.2-4c0.1-1.2,0.1-2.6,0.1-4.2
		s0-3.3,0-5.1c0-0.8,0-1.4,0-2c0-0.5,0-1,0-1.5c0-0.5,0-1,0-1.5c0-0.5,0-1.2,0-2c-0.1-0.8-0.3-1.4-0.6-1.9c-0.3-0.5-0.7-0.9-1.1-1.2
		c-0.4-0.3-0.9-0.5-1.3-0.6c-0.5-0.1-0.9-0.2-1.4-0.3V7.1h8.3l19.4,22.7V15.8c0-1.1,0-2.1,0-3.1c0-1-0.2-1.8-0.4-2.4
		c-0.3-0.8-0.8-1.4-1.5-1.9c-0.7-0.5-1.7-0.8-3-1V7.1h10.2v0.4C99,7.6,98.2,7.9,97.6,8.2z"/>
	<path class="hover" d="M135.9,36.5v-0.4c0.7-0.1,1.3-0.3,1.9-0.5c0.6-0.2,1.1-0.6,1.5-1.1c0.1-0.2,0.2-0.4,0.3-0.7c0.1-0.3,0.1-0.7,0.2-1.1
		s0.1-0.8,0.1-1.3c0-0.5,0-0.9,0-1.3c0-0.4,0-0.9,0-1.6c0-0.7,0-1.4,0-2.1c0-0.8,0-1.6,0-2.4c0-0.8,0-1.6,0-2.4v-8c0-0.5,0-1,0-1.5
		c0-0.5,0-0.9-0.1-1.4c0-0.4-0.1-0.8-0.2-1.1c-0.1-0.3-0.2-0.6-0.4-0.8c-0.4-0.5-0.9-0.8-1.4-1c-0.6-0.2-1.2-0.3-1.9-0.4V7.1h12.2
		v0.4c-0.6,0.1-1.2,0.2-1.8,0.5c-0.7,0.2-1.2,0.7-1.5,1.3c-0.2,0.5-0.4,1.1-0.4,1.8c0,0.7,0,1.4-0.1,2c0,0.7,0,1.4,0,2
		c0,0.7,0,1.3,0,2c0,0.7,0,1.4,0,2.1c0,0.7,0,1.5,0,2.3v9.2c0,0.8,0,1.6,0,2.3c0,0.7,0.1,1.3,0.4,1.6c0.3,0.5,0.8,0.8,1.6,1.1
		c0.7,0.2,1.4,0.4,1.9,0.5v0.4H135.9z"/>
	<path class="hover" d="M213.7,27.6c-0.8,1.9-1.9,3.5-3.3,4.8c-1.4,1.4-3,2.4-4.9,3.2c-1.9,0.7-3.9,1.1-6,1.1c-2.1,0-4-0.4-5.9-1.1
		c-1.9-0.7-3.5-1.7-4.9-3.1c-1.4-1.3-2.5-2.9-3.3-4.7s-1.2-3.9-1.2-6.1c0-2.3,0.4-4.5,1.3-6.3c0.8-1.9,2-3.5,3.4-4.7
		c1.4-1.3,3.1-2.3,5-3c1.9-0.7,3.9-1,6.1-1c2.3,0,4.4,0.4,6.2,1.2c1.8,0.8,3.4,1.9,4.7,3.3c1.3,1.4,2.3,3,2.9,4.8
		c0.7,1.8,1,3.7,1,5.6C214.9,23.8,214.5,25.8,213.7,27.6z M209.2,16.6c-0.4-1.7-1.1-3.2-1.9-4.6c-0.9-1.4-1.9-2.5-3.2-3.4
		s-2.8-1.3-4.5-1.3c-1.8,0-3.3,0.4-4.6,1.3c-1.3,0.9-2.4,2-3.2,3.3c-0.8,1.4-1.4,2.9-1.8,4.6c-0.4,1.7-0.6,3.5-0.6,5.3
		c0,1.9,0.2,3.6,0.7,5.4s1.1,3.2,1.9,4.5c0.9,1.3,1.9,2.4,3.2,3.2s2.8,1.2,4.5,1.2s3.2-0.4,4.5-1.3s2.3-2,3.2-3.4
		c0.8-1.4,1.5-2.9,1.9-4.6c0.4-1.7,0.6-3.4,0.6-5.2C209.9,20,209.6,18.3,209.2,16.6z"/>
	<path class="hover" d="M281,8.2c-0.6,0.4-1.1,1-1.4,1.8c-0.2,0.4-0.3,1.2-0.4,2.3c-0.1,1.1-0.1,2.3-0.2,3.5C279,17,279,18.4,279,20
		c0,1.6-0.1,3.3-0.1,5.1c0,0.8,0,1.6,0,2.6c0,1,0,1.9,0,2.9c0,1,0,2,0,3c0,1,0,1.9,0,2.7c0,0.1,0,0.2-0.1,0.3
		c-0.1,0.1-0.2,0.1-0.3,0.1c-0.2,0-0.5-0.1-0.7-0.4c-2.3-2.7-4.4-5.1-6.3-7.4c-1.9-2.2-3.7-4.4-5.5-6.4c-1.7-2-3.4-4-5.1-6
		c-1.7-1.9-3.4-3.9-5.3-6v17.3c0,1.4,0,2.6,0.1,3.8c0.1,1.1,0.2,2,0.5,2.5c0.3,0.6,0.8,1.1,1.4,1.4c0.6,0.3,1.5,0.5,2.6,0.7v0.4
		h-10.1v-0.4c0.7-0.1,1.3-0.3,2-0.5c0.7-0.3,1.2-0.7,1.6-1.3c0.4-0.6,0.6-1.4,0.7-2.5c0.1-1.1,0.2-2.5,0.2-4
		c0.1-1.2,0.1-2.6,0.1-4.2s0-3.3,0-5.1c0-0.8,0-1.4,0-2c0-0.5,0-1,0-1.5c0-0.5,0-1,0-1.5c0-0.5,0-1.2,0-2c-0.1-0.8-0.3-1.4-0.6-1.9
		c-0.3-0.5-0.7-0.9-1.1-1.2c-0.4-0.3-0.9-0.5-1.3-0.6s-0.9-0.2-1.4-0.3V7.1h8.3l19.4,22.7V15.8c0-1.1,0-2.1,0-3.1
		c0-1-0.2-1.8-0.4-2.4c-0.3-0.8-0.8-1.4-1.5-1.9c-0.7-0.5-1.7-0.8-3-1V7.1h10.1v0.4C282.5,7.6,281.7,7.9,281,8.2z"/>
</g>

<g class="hover">
	<path d="M333.1,42.3c-2-0.4-4.1-0.8-6.1-1.2c-3.8-0.9-7.4-2.2-10.7-4.4c-8.2-5.4-9.4-14.6-6.1-22.2c2.8-6.4,8.1-10,14.4-12.1
				c8.6-2.9,17.4-3.3,26.1-0.8c6,1.7,10.8,5.1,13.1,11.2c1.4,3.8,1.6,7.6-1.2,11c-2.9,3.6-3.8-1.3-2.7-4.2c1.1-2.8,1.4-2.8,1.7-3.6
				c0.3-0.8,0.7-2,0.7-2.6c0-0.6-0.1-1.1-0.2-1.5c-0.7-3.4-2.9-5.7-5.8-7.3c-6.4-3.5-13.3-4.2-20.3-2.2c-6.1,1.8-10,6-11.8,12
				c-1.1,3.5-1.2,7.2-0.8,10.8c0.3,3,1,5.9,2.5,8.6c2.9,5.3,7.5,7.8,13.4,8.2c1,0.1,2.1,0.1,3.2,0.1c0.1,0,0.1,0.1,0.5,0.4
				c-1,0-1.7,0-2.4,0c-5.8-0.1-11.3,1.1-16.3,4.3c-6.4,4.2-9.9,10.2-10.9,17.7c-1.1,7.8,0.3,15,5.3,21.2c4.5,5.6,10.6,8.6,17.5,10
				c7.9,1.6,15.7,1.5,23.4-0.8c10.9-3.3,18.5-11.4,18.8-23.4c0.1-4.6-0.6-9-3.2-13c-2.6-3.9-6.4-6-10.9-6.3
				c-3.2-0.2-6.5,0.3-9.7,0.4c-0.3,0-0.6,0-0.8,0.1c0-0.1,0-0.3,0-0.4c2.3-0.3,4.7-0.7,7-0.7c4.2-0.1,8.3-0.3,12.4-1.5
				c3.2-1,6.2-2.4,8.3-5.1c0.9-1.1,1.5-2.5,1.9-3.8c0.4-1.4,0.7-2.4,0.5-4c-0.7-4.2-4.7-10.6-2.9-11.7c1.5-0.9,6.8,4.2,5.6,11.2
				c-1.2,6.7-5.3,10.7-11.4,13c-2.3,0.9-4.8,1.3-7.1,2c1.8,0.3,3.7,0.5,5.6,0.9c4.5,0.9,8.8,2.4,12.4,5.2c5.8,4.5,7.7,11,5.4,18
				c-2.3,7.1-7.4,11.7-13.8,15c-7.1,3.7-14.8,5.3-22.7,6c-8.6,0.7-17.1,0.5-25.6-0.8c-8-1.2-15.7-3.4-22.3-8.3
				c-10.6-7.8-12.4-22.1-5.4-31.6c3.4-4.6,8-7.6,13.2-9.8C320.6,44.1,326.7,42.9,333.1,42.3z"/>
	<path d="M354,52.9c-3.3,0.6-6.5,1.6-8.9,4c-1,1-1.8,2.3-2.3,3.5c-0.6,1.3-1,2.3-1,3.9c0.1,4.3,3.4,11.1,1.4,11.9
			c-1.6,0.7-6.2-5-4.1-11.8c2-6.5,6.6-10,12.9-11.5c2.4-0.6,5-0.7,7.3-1.1"/>
</g>

<g>
	<path class="hover" d="M29.8,63.3c-1.1-1.4-2.2-2.6-3.2-3.6c-1-1-2-1.7-2.9-2.2c-0.5-0.2-1.3-0.4-2.5-0.6c-1.2-0.1-2.6-0.2-4.2-0.2
		c-0.3,0-0.6,0-0.9,0s-0.7,0-1,0c-0.3,0-0.6,0-0.9,0c-0.3,0-0.5,0-0.6,0c0,0.2-0.1,0.3-0.1,0.5c0,0.2-0.1,0.4-0.1,0.6
		c0,0.2-0.1,0.5-0.1,0.8c0,0.3-0.1,0.8-0.1,1.2c0,1,0,2-0.1,3.1c0,1.1,0,2.2,0,3.2c0,1,0,1.9,0,2.6c0,0.7,0,1.1,0,1.3
		c0.1,0,0.3,0,0.7,0c0.4,0,0.9,0,1.5,0c0.5,0,1.1-0.1,1.7-0.1c0.6,0,1-0.1,1.4-0.2c1-0.2,1.8-0.5,2.3-0.9c0.6-0.4,1-0.8,1.4-1.3
		c0.3-0.5,0.6-1,0.7-1.6c0.1-0.6,0.3-1.2,0.4-1.9h0.5v13.2h-0.5c-0.2-0.9-0.5-1.8-0.9-2.8c-0.4-1-0.9-1.7-1.5-2.2
		c-0.5-0.5-1.1-0.8-1.7-1c-0.6-0.2-1.3-0.4-2.1-0.4c-0.4,0-0.8,0-1.1-0.1c-0.3,0-0.6,0-0.9,0c-0.3,0-0.6,0-0.9,0c-0.3,0-0.7,0-1.1,0
		c0,0.9,0,1.7,0,2.6c0,0.8,0,1.7,0,2.5c0,0.8,0,1.5,0,2.1c0,0.6,0,1.2,0,1.7c0,0.9,0.1,1.7,0.1,2.5c0.1,0.8,0.2,1.4,0.5,1.7
		s0.7,0.7,1.2,0.9c0.6,0.2,1.4,0.3,2.6,0.4v0.4H4.3v-0.4C5,85.2,5.6,85,6.2,84.7c0.6-0.2,1.1-0.6,1.5-1C7.8,83.5,7.9,83.3,8,83
		c0.1-0.3,0.2-0.7,0.2-1.1c0.1-0.4,0.1-0.8,0.1-1.3c0-0.5,0-0.9,0-1.3c0-0.4,0-0.9,0-1.6c0-0.7,0-1.4,0-2.1c0-0.8,0-1.6,0-2.4
		c0-0.8,0-1.6,0-2.4v-8c0-0.5,0-1,0-1.5c0-0.5,0-1-0.1-1.5c0-0.5-0.1-0.9-0.2-1.2C8,58.2,7.9,58,7.7,57.8c-0.4-0.4-0.8-0.7-1.3-0.8
		c-0.5-0.1-1.1-0.2-1.8-0.3v-0.4h22.8l2.8,6.9L29.8,63.3z"/>
</g>
<g>
	<path class="hover" d="M155.4,63.3c-1.1-1.4-2.2-2.6-3.2-3.6c-1-1-2-1.7-2.9-2.2c-0.5-0.2-1.3-0.4-2.5-0.6c-1.2-0.1-2.6-0.2-4.2-0.2
		c-0.3,0-0.6,0-0.9,0s-0.7,0-1,0c-0.3,0-0.6,0-0.9,0c-0.3,0-0.5,0-0.6,0c0,0.2-0.1,0.3-0.1,0.5c0,0.2-0.1,0.4-0.1,0.6
		c0,0.2-0.1,0.5-0.1,0.8c0,0.3-0.1,0.8-0.1,1.2c0,1,0,2-0.1,3.1c0,1.1,0,2.2,0,3.2c0,1,0,1.9,0,2.6c0,0.7,0,1.1,0,1.3
		c0.1,0,0.3,0,0.7,0c0.4,0,0.9,0,1.5,0s1.1-0.1,1.7-0.1c0.6,0,1-0.1,1.4-0.2c1-0.2,1.8-0.5,2.3-0.9c0.6-0.4,1-0.8,1.3-1.3
		c0.3-0.5,0.6-1,0.7-1.6c0.1-0.6,0.3-1.2,0.4-1.9h0.5v13.2h-0.5c-0.2-0.9-0.5-1.8-0.9-2.8c-0.4-1-0.9-1.7-1.5-2.2
		c-0.5-0.5-1.1-0.8-1.7-1c-0.6-0.2-1.3-0.4-2.1-0.4c-0.4,0-0.8,0-1.1-0.1c-0.3,0-0.6,0-0.9,0c-0.3,0-0.6,0-0.9,0c-0.3,0-0.7,0-1.1,0
		c0,0.9,0,1.7,0,2.6c0,0.8,0,1.7,0,2.5c0,0.8,0,1.5,0,2.1c0,0.6,0,1.2,0,1.7c0,0.9,0.1,1.7,0.1,2.5c0.1,0.8,0.2,1.4,0.5,1.7
		c0.2,0.4,0.7,0.7,1.2,0.9c0.6,0.2,1.4,0.3,2.6,0.4v0.4h-13.1v-0.4c0.7-0.1,1.3-0.3,1.9-0.5c0.6-0.2,1.1-0.6,1.5-1
		c0.1-0.2,0.2-0.4,0.3-0.7c0.1-0.3,0.2-0.7,0.2-1.1s0.1-0.8,0.1-1.3c0-0.5,0-0.9,0-1.3c0-0.4,0-0.9,0-1.6c0-0.7,0-1.4,0-2.1
		c0-0.8,0-1.6,0-2.4c0-0.8,0-1.6,0-2.4v-8c0-0.5,0-1,0-1.5c0-0.5,0-1-0.1-1.5s-0.1-0.9-0.2-1.2c-0.1-0.4-0.2-0.6-0.4-0.8
		c-0.4-0.4-0.8-0.7-1.3-0.8c-0.5-0.1-1.1-0.2-1.8-0.3v-0.4H153l2.8,6.9L155.4,63.3z"/>
</g>
<g>
	<path class="hover" d="M76.4,85.7v-0.4c0.7-0.1,1.3-0.3,1.9-0.5c0.6-0.2,1.1-0.6,1.5-1.1c0.1-0.2,0.2-0.4,0.3-0.7c0.1-0.3,0.1-0.7,0.2-1.1
		s0.1-0.8,0.1-1.3c0-0.5,0-0.9,0-1.3c0-0.4,0-0.9,0-1.6c0-0.7,0-1.4,0-2.1c0-0.8,0-1.6,0-2.4c0-0.8,0-1.6,0-2.4v-8c0-0.5,0-1,0-1.5
		s0-0.9-0.1-1.4c0-0.4-0.1-0.8-0.2-1.1c-0.1-0.3-0.2-0.6-0.4-0.8c-0.4-0.5-0.9-0.8-1.4-1c-0.6-0.2-1.2-0.3-1.9-0.4v-0.4h12.2v0.4
		c-0.6,0.1-1.2,0.2-1.8,0.5c-0.7,0.2-1.2,0.7-1.5,1.3c-0.2,0.5-0.4,1.1-0.4,1.8c0,0.7,0,1.4-0.1,2c0,0.7,0,1.4,0,2c0,0.7,0,1.3,0,2
		c0,0.7,0,1.4,0,2.1c0,0.7,0,1.5,0,2.3v9.2c0,0.8,0,1.6,0,2.3c0,0.7,0.1,1.3,0.4,1.6c0.3,0.5,0.8,0.8,1.6,1.1
		c0.7,0.2,1.4,0.4,1.9,0.5v0.4H76.4z"/>
</g>
<g>
	<path class="hover" d="M214.2,63.9c-0.2-0.5-0.5-1-0.8-1.5c-0.3-0.5-0.6-1-0.9-1.5c-0.3-0.5-0.6-0.9-0.9-1.3c-0.3-0.4-0.6-0.7-0.8-0.9
		c-0.6-0.5-1.2-0.9-1.9-1.1c-0.7-0.2-1.5-0.3-2.6-0.3c-0.5,0-1,0-1.4,0s-0.8,0-1.1,0c-0.4,0-0.8,0-1.2,0c-0.4,0-0.9,0-1.5,0
		c0,0.7,0,1.6,0,2.8c0,1.2,0,2.4,0,3.7c0,1.3,0,2.6,0,3.8c0,1.2,0,2.3,0,3.1v9.1c0,0.8,0,1.5,0.1,2.3c0,0.7,0.2,1.2,0.4,1.5
		c0.4,0.6,1,1,1.7,1.2c0.8,0.2,1.4,0.4,2,0.5v0.4h-13.3v-0.4c0.7-0.1,1.4-0.2,2-0.4c0.7-0.2,1.3-0.6,1.9-1.4
		c0.1-0.1,0.2-0.4,0.3-0.7s0.1-0.7,0.2-1.1s0.1-0.8,0.1-1.3c0-0.5,0-0.9,0-1.4c0-0.4,0-0.9,0-1.5c0-0.6,0-1.3,0-2.1
		c0-0.8,0-1.6,0-2.4s0-1.6,0-2.3V57.3c-0.6,0-1.1,0-1.5,0c-0.4,0-0.8,0-1.2,0c-0.4,0-0.7,0-1.1,0s-0.9,0-1.4,0c-1,0-1.9,0.1-2.6,0.4
		s-1.3,0.6-1.9,1.1c-0.2,0.2-0.5,0.5-0.8,0.9c-0.3,0.4-0.6,0.8-0.9,1.2s-0.6,0.9-0.9,1.5c-0.3,0.5-0.5,1-0.7,1.5l-0.4-0.1l1.2-7.8
		c0.6,0.1,1.2,0.2,1.7,0.3s1.3,0.1,2.3,0.2c1,0,2,0,2.8,0.1c0.8,0,1.6,0,2.4,0c0.8,0,1.5,0,2.3,0c0.8,0,1.7,0,2.7,0c1,0,1.9,0,2.7,0
		c0.8,0,1.6,0,2.4,0c0.8,0,1.6,0,2.4,0c0.8,0,1.7,0,2.8,0c0.9,0,1.6-0.1,2.2-0.2s1.2-0.3,1.8-0.5l1.3,8L214.2,63.9z"/>
</g>
<g>
	<path class="hover" d="M271.7,85.7v-0.4c1-0.1,1.9-0.3,2.5-0.6c0.7-0.3,1.1-0.6,1.4-1c0.1-0.1,0.1-0.2,0.1-0.5c0-0.2,0.1-0.5,0.1-0.9
		c0-0.3,0-0.7,0.1-1s0-0.7,0-1c0-0.9,0-1.8,0-2.8c0-1,0-1.9,0-2.7c0-0.9,0-1.6,0-2.3c0-0.7,0-1.2,0-1.4h-16.2v8.8c0,0.8,0,1.6,0,2.3
		s0.1,1.3,0.4,1.6c0.3,0.5,0.8,0.8,1.4,1.1c0.6,0.2,1.2,0.4,1.8,0.5v0.4h-12.1v-0.4c0.7-0.1,1.3-0.3,2-0.6c0.6-0.3,1.1-0.6,1.4-1
		c0.1-0.1,0.2-0.4,0.3-0.7s0.1-0.7,0.2-1.1c0-0.4,0.1-0.9,0.1-1.3c0-0.5,0-0.9,0-1.4c0-0.4,0-0.9,0-1.6c0-0.7,0-1.4,0-2.1
		c0-0.8,0-1.6,0-2.4c0-0.8,0-1.6,0-2.4v-8c0-0.5,0-1,0-1.5s0-0.9-0.1-1.4c0-0.4-0.1-0.8-0.2-1.1c-0.1-0.3-0.2-0.6-0.4-0.8
		c-0.4-0.5-0.9-0.8-1.4-1c-0.6-0.2-1.2-0.3-1.9-0.4v-0.4h12.2v0.4c-0.4,0.1-0.8,0.1-1.2,0.2s-0.8,0.3-1.2,0.5
		c-0.4,0.2-0.7,0.6-0.9,1s-0.4,0.9-0.4,1.6c0,1,0,2-0.1,3.1c0,1.1,0,2.2,0,3.2c0,1,0,1.9,0,2.6c0,0.7,0,1.2,0,1.5H276
		c0-0.9,0-1.7,0-2.4c0-0.7,0-1.4,0-2.1c0-0.7,0-1.4,0-2.1c0-0.7,0-1.5,0-2.4c0-0.5-0.1-1.1-0.1-1.6c0-0.6-0.2-1-0.4-1.4
		c-0.5-0.7-1.1-1.2-1.7-1.4c-0.6-0.2-1.3-0.3-1.9-0.3v-0.4h12.3v0.4c-0.7,0.1-1.3,0.3-1.9,0.6s-1.1,0.7-1.4,1.2
		c-0.1,0.2-0.2,0.5-0.2,0.8c-0.1,0.3-0.1,0.7-0.1,1.1c0,0.4,0,0.9,0,1.3c0,0.4,0,0.9,0,1.3v7c0,1,0,1.9,0,2.7c0,0.8,0,1.6,0,2.4
		c0,0.8,0,1.6,0,2.4s0,1.7,0,2.7c0,0.8,0,1.5,0.1,2.2c0,0.7,0.1,1.1,0.3,1.4c0.4,0.5,0.8,0.9,1.4,1.1c0.6,0.2,1.3,0.4,2,0.5v0.4
		H271.7z"/>
</g>
</svg>
