<?xml version="1.0" encoding="utf-8"?>
<!-- Generator: Adobe Illustrator 18.0.0, SVG Export Plug-In . SVG Version: 6.00 Build 0)  -->
<!DOCTYPE svg PUBLIC "-//W3C//DTD SVG 1.1//EN" "http://www.w3.org/Graphics/SVG/1.1/DTD/svg11.dtd">
<svg version="1.1" id="Layer_1" xmlns="http://www.w3.org/2000/svg" xmlns:xlink="http://www.w3.org/1999/xlink" x="0px" y="0px"
	 width="429.9px" height="63.6px" viewBox="0 0 429.9 63.6" style="enable-background:new 0 0 429.9 63.6;" xml:space="preserve">
<style type="text/css">
	.stq {fill:#90B360;}
	.st1 {fill:#FFFFFF;}
	.st2 {fill:#B3B4B7;}
</style>
<g>
	<path class="stq hover" d="M0.7,20.6h4.4c0.6,0,1.2,0.4,1.4,0.9l9.3,21.9c0.2,0.5,0.4,0.9,0.4,0.9c0,0,0.2-0.4,0.5-0.9L36.5,0.9
		C36.7,0.4,37.4,0,37.9,0h4.3c0.6,0,0.8,0.4,0.6,0.9L19.6,50.1c-0.2,0.5-0.9,0.9-1.4,0.9h-3.9c-0.6,0-1.2-0.4-1.4-0.9L0.1,21.5
		C-0.1,21,0.1,20.6,0.7,20.6z"/>
	<path class="stq hover" d="M62.6,34.1c0,0.4,0,1-0.1,1.5c0,0.6-0.5,1-1.1,1H41.3c-0.6,0-1,0.4-0.9,1c0.7,6,5.2,9,10.4,9
		c3.8,0,6.9-1.9,8.2-2.9c0.4-0.3,1-0.2,1.3,0.2l1.4,2.5c0.3,0.5,0.2,1.2-0.3,1.5c-1.6,1.2-5.5,3.7-11,3.7c-9.5,0-16.1-6.9-16.1-15.9
		c0-9.7,6.5-15.9,15.2-15.9C58.1,19.9,62.6,26.3,62.6,34.1z M56.6,31.3c-0.5-4.5-3.6-6.7-7.2-6.7c-4.1,0-7.6,2.4-8.7,6.8
		c-0.1,0.5,0.2,1,0.8,1h14.2C56.2,32.3,56.7,31.8,56.6,31.3z"/>
	<path class="stq hover" d="M68.3,20.6h3.6c0.6,0,1,0.4,1,1v4.3c0,0.5,0,0.9,0,1.3c0,0.6-0.1,1,0,1c0,0,0.2-0.4,0.4-0.9c1.6-4,4.9-7,9.3-7
		c0.3,0,0.5,0,0.8,0c0.4,0,0.7,0.5,0.7,1.1v3.8c0,0.6-0.4,0.9-0.8,0.9c-0.3,0-0.5,0-0.8,0c-3.7,0-7.1,2.6-8.5,7.1
		c-0.5,1.7-0.7,3.6-0.7,5.5V50c0,0.6-0.4,1-1,1h-3.8c-0.6,0-1-0.4-1-1V21.6C67.3,21.1,67.7,20.6,68.3,20.6z"/>
	<path class="stq hover" d="M89.5,8.6h3.9c0.6,0,1,0.4,1,1v3.9c0,0.6-0.4,1-1,1h-3.9c-0.6,0-1-0.4-1-1V9.6C88.5,9.1,89,8.6,89.5,8.6z
		 M89.6,20.6h3.8c0.6,0,1,0.4,1,1V50c0,0.6-0.4,1-1,1h-3.8c-0.6,0-1-0.4-1-1V21.6C88.6,21.1,89,20.6,89.6,20.6z"/>
	<path class="stq hover" d="M101.8,25.7H100c-0.6,0-1-0.4-1-1V22c0-0.6,0.4-1,1-1h1.8c0.6,0,1-0.3,1-0.7v-0.7c0-10,7.6-11.3,11.4-11.3
		c0.5,0,0.9,0,1.2,0.1c0.6,0,1,0.6,1,1.1v3c0,0.6-0.3,0.9-0.7,0.9c-0.2,0-0.5,0-0.8,0c-2.2,0-6.4,0.7-6.4,6.4c0,0,0,0.3,0,0.7
		c0,0.4,0.4,0.7,1,0.7h5.2c0.6,0,1,0.4,1,1v2.7c0,0.6-0.4,1-1,1h-5.2c-0.6,0-1,0.4-1,1V50c0,0.6-0.4,1-1,1h-3.8c-0.6,0-1-0.4-1-1
		V26.7C102.8,26.2,102.3,25.7,101.8,25.7z"/>
	<path class="stq hover" d="M121.1,57.8c0.7,0.3,1.6,0.7,2.7,0.7c2.3,0,4.3-1.7,5.5-4.4l1.1-2.6c0.2-0.5,0.2-1.3,0-1.8l-11.9-28.2
		c-0.2-0.5,0.1-0.9,0.6-0.9h4.5c0.6,0,1.2,0.4,1.4,0.9l7.3,18.9c0.3,0.9,0.7,1.9,0.9,2.7c0.2,0.5,0.3,1,0.3,1c0,0,0.2-0.4,0.3-1
		c0.2-0.7,0.5-1.8,0.8-2.6l7-19c0.2-0.5,0.8-0.9,1.3-0.9h4.3c0.6,0,0.8,0.4,0.6,0.9L134,56.4c-1.9,4.7-5.6,7.1-9.8,7.1
		c-2.2,0-4-0.8-5-1.3c-0.5-0.3-0.7-0.9-0.4-1.4l1.2-2.6C120.1,57.7,120.6,57.6,121.1,57.8z"/>
</g>
<g>
	<path class="st1 hover" d="M156.5,8.6h3.9c0.6,0,1,0.4,1,1V50c0,0.6-0.4,1-1,1h-3.9c-0.6,0-1-0.4-1-1V9.6C155.5,9.1,155.9,8.6,156.5,8.6z
		"/>
	<path class="st1 hover" d="M171.6,20.6h3.6c0.6,0,1,0.4,1,1v3c0,0.4,0,0.9,0,1.2c0,0.6-0.1,1,0,1s0.2-0.4,0.5-0.9c1.5-2.6,5-6.1,10.9-6.1
		c7.1,0,10.4,3.9,10.4,11.6V50c0,0.6-0.4,1-1,1h-3.8c-0.6,0-1-0.4-1-1V32.9c0-4.3-0.9-7.6-5.8-7.6c-4.6,0-8.3,3.1-9.6,7.4
		c-0.4,1.2-0.5,2.6-0.5,4.1V50c0,0.6-0.4,1-1,1h-3.8c-0.6,0-1-0.4-1-1V21.6C170.6,21.1,171,20.6,171.6,20.6z"/>
	<path class="st1 hover" d="M202.4,20.6h4.2c0.6,0,1.2,0.4,1.3,0.9l7,19.6c0.6,1.7,1,4.1,1,4.1h0.1c0.1,0,0.5-2.5,1.1-4.1l7-19.6
		c0.2-0.5,0.8-0.9,1.3-0.9h4.1c0.6,0,0.8,0.4,0.7,0.9L219.8,50c-0.2,0.5-0.8,0.9-1.3,0.9h-4.7c-0.6,0-1.2-0.4-1.3-0.9l-10.6-28.5
		C201.5,21,201.8,20.6,202.4,20.6z"/>
	<path class="st1 hover" d="M260.7,34.1c0,0.4,0,1-0.1,1.5c0,0.6-0.5,1-1.1,1h-20.1c-0.6,0-1,0.4-0.9,1c0.7,6,5.2,9,10.4,9
		c3.8,0,6.9-1.9,8.2-2.9c0.4-0.3,1-0.2,1.3,0.2l1.4,2.5c0.3,0.5,0.2,1.2-0.3,1.5c-1.6,1.2-5.5,3.7-11,3.7c-9.5,0-16.1-6.9-16.1-15.9
		c0-9.7,6.5-15.9,15.2-15.9C256.1,19.9,260.7,26.3,260.7,34.1z M254.7,31.3c-0.5-4.5-3.6-6.7-7.2-6.7c-4.1,0-7.6,2.4-8.7,6.8
		c-0.1,0.5,0.2,1,0.8,1h14.2C254.3,32.3,254.7,31.8,254.7,31.3z"/>
	<path class="st1 hover" d="M267.7,43.8c1.3,1,4.1,2.9,8,2.9c2.5,0,5-1.3,5-3.8c0-5.6-15.6-4.4-15.6-14.3c0-5.5,4.9-8.6,11-8.6
		c4.8,0,7.7,1.7,9,2.7c0.4,0.3,0.5,1,0.3,1.5l-1.4,2.6c-0.3,0.5-0.8,0.6-1.2,0.3c-1.1-0.8-3.4-2.1-6.7-2.1c-2.5,0-5,1.1-5,3.7
		c0,5.5,15.6,4.3,15.6,14.2c0,5-4.3,8.8-11,8.8c-5.6,0-9.3-2.5-10.8-3.8c-0.4-0.4-0.5-1-0.2-1.5l1.7-2.5
		C266.7,43.5,267.2,43.4,267.7,43.8z"/>
	<path class="st1 hover" d="M292.5,25.7h-2c-0.6,0-1-0.4-1-1V22c0-0.6,0.4-1,1-1h2.1c0.6,0,1-0.4,1-1v-6.8c0-0.6,0.4-1,1-1h3.6
		c0.6,0,1,0.4,1,1V20c0,0.6,0.4,1,1,1h5.3c0.6,0,1,0.4,1,1v2.7c0,0.6-0.4,1-1,1h-5.3c-0.6,0-1,0.4-1,1v12.5c0,6.1,4.3,6.8,6.5,6.8
		c0.3,0,0.5,0,0.7,0c0.4,0,0.7,0.4,0.7,0.9v3.2c0,0.6-0.4,1.1-1,1.1c-0.3,0-0.7,0-1,0c-3.9,0-11.6-1.2-11.6-11.3V26.7
		C293.5,26.2,293,25.7,292.5,25.7z"/>
	<path class="st1 hover" d="M326.7,19.9c9.1,0,16.4,6.7,16.4,15.8c0,9.2-7.3,16-16.4,16s-16.4-6.7-16.4-16
		C310.3,26.6,317.6,19.9,326.7,19.9z M326.7,46.7c5.8,0,10.4-4.6,10.4-10.9c0-6.3-4.7-10.8-10.4-10.8c-5.7,0-10.4,4.5-10.4,10.8
		C316.2,42.1,321,46.7,326.7,46.7z"/>
	<path class="st1 hover" d="M349.7,20.6h3.6c0.6,0,1,0.4,1,1v4.3c0,0.5,0,0.9,0,1.3c0,0.6-0.1,1,0,1c0,0,0.2-0.4,0.4-0.9
		c1.6-4,4.9-7,9.3-7c0.3,0,0.5,0,0.8,0c0.4,0,0.7,0.5,0.7,1.1v3.8c0,0.6-0.4,0.9-0.8,0.9c-0.3,0-0.5,0-0.8,0c-3.7,0-7.1,2.6-8.5,7.1
		c-0.5,1.7-0.7,3.6-0.7,5.5V50c0,0.6-0.4,1-1,1h-3.8c-0.6,0-1-0.4-1-1V21.6C348.7,21.1,349.2,20.6,349.7,20.6z"/>
</g>
<g>
	<path class="st2 hover" d="M364.1,46.5h2.1c0.6,0,1,0.4,1,1v2.1c0,0.6-0.4,1-1,1h-2.1c-0.6,0-1-0.4-1-1v-2.1
		C363.1,47,363.5,46.5,364.1,46.5z"/>
	<path class="st2 hover" d="M383.4,35.6c0.4,0.3,0.5,1.1,0.2,1.5l-0.7,1.1c-0.3,0.5-0.9,0.5-1.3,0.2c-0.7-0.5-1.9-1.1-3.5-1.1
		c-3,0-4.9,2.3-4.9,5c0,2.7,2,5.1,5.1,5.1c1.7,0,3.2-0.8,4-1.4c0.4-0.3,1-0.2,1.2,0.2l0.6,1.1c0.3,0.5,0.2,1.2-0.3,1.5
		c-1,0.8-3,2-6,2c-5.4,0-8.8-3.8-8.8-8.5c0-4.6,3.4-8.5,8.8-8.5C380.6,33.9,382.4,34.9,383.4,35.6z"/>
	<path class="st2 hover" d="M394,33.9c5,0,9,3.5,9,8.5c0,5-4,8.5-8.9,8.5c-5,0-9-3.5-9-8.5C385.1,37.4,389.1,33.9,394,33.9z M394.1,47.5
		c2.6,0,4.8-2,4.8-5.1c0-3-2.2-5.1-4.8-5.1c-2.7,0-4.9,2.1-4.9,5.1C389.2,45.4,391.4,47.5,394.1,47.5z"/>
	<path class="st2 hover" d="M406,34.3h1.9c0.6,0,1,0.4,1,0.9v0.9c0,0.2,0,0.4,0,0.6c0,0.3,0,0.6,0,0.6c0,0,0.2-0.4,0.6-0.8
		c1-1.3,2.7-2.5,4.8-2.5c2.1,0,3.6,0.8,4.4,2.4c0.2,0.5,0.4,0.9,0.4,0.9c0,0,0.2-0.4,0.6-0.8c1.1-1.4,2.9-2.5,5-2.5
		c3.4,0,5.3,1.9,5.3,6.2v9.5c0,0.6-0.4,1-1,1h-2.1c-0.6,0-1-0.4-1-1v-8.7c0-1.9-0.4-3.3-2.2-3.3c-2.1,0-3.4,1.7-3.9,3.7
		c-0.2,0.6-0.2,1.3-0.2,2.1v6.2c0,0.6-0.4,1-1,1h-2.1c-0.6,0-1-0.4-1-1v-8.7c0-1.8-0.3-3.3-2.2-3.3c-2.1,0-3.5,1.7-4,3.7
		c-0.2,0.6-0.2,1.3-0.2,2.1v6.2c0,0.6-0.4,1-1,1H406c-0.6,0-1-0.4-1-1V35.3C405,34.7,405.4,34.3,406,34.3z"/>
</g>
</svg>
